<?xml version="1.0" encoding="UTF-8" standalone="no"?>
<!DOCTYPE svg PUBLIC "-//W3C//DTD SVG 1.1//EN" "http://www.w3.org/Graphics/SVG/1.1/DTD/svg11.dtd">
<svg version="1.1" xmlns="http://www.w3.org/2000/svg" xmlns:xlink="http://www.w3.org/1999/xlink" preserveAspectRatio="xMidYMid meet" viewBox="0 0 64 64" width="640" height="640"><defs><path d="M63.97 33.32L63.89 34.62L63.76 35.91L63.58 37.19L63.35 38.45L63.07 39.69L62.74 40.91L62.37 42.11L61.95 43.29L61.48 44.45L60.98 45.59L60.43 46.7L59.83 47.79L59.2 48.85L58.53 49.89L57.82 50.89L57.08 51.87L56.29 52.82L55.48 53.74L54.62 54.62L53.74 55.48L52.82 56.29L51.87 57.08L50.89 57.82L49.89 58.53L48.85 59.2L47.79 59.83L46.7 60.43L45.59 60.98L44.45 61.48L43.29 61.95L42.11 62.37L40.91 62.74L39.69 63.07L38.45 63.35L37.19 63.58L35.91 63.76L34.62 63.89L33.32 63.97L32 64L30.68 63.97L29.38 63.89L28.09 63.76L26.81 63.58L25.55 63.35L24.31 63.07L23.09 62.74L21.89 62.37L20.71 61.95L19.55 61.48L18.41 60.98L17.3 60.43L16.21 59.83L15.15 59.2L14.11 58.53L13.11 57.82L12.13 57.08L11.18 56.29L10.26 55.48L9.38 54.62L8.52 53.74L7.71 52.82L6.92 51.87L6.18 50.89L5.47 49.89L4.8 48.85L4.17 47.79L3.57 46.7L3.02 45.59L2.52 44.45L2.05 43.29L1.63 42.11L1.26 40.91L0.93 39.69L0.65 38.45L0.42 37.19L0.24 35.91L0.11 34.62L0.03 33.32L0 32L0.03 30.68L0.11 29.38L0.24 28.09L0.42 26.81L0.65 25.55L0.93 24.31L1.26 23.09L1.63 21.89L2.05 20.71L2.52 19.55L3.02 18.41L3.57 17.3L4.17 16.21L4.8 15.15L5.47 14.11L6.18 13.11L6.92 12.13L7.71 11.18L8.52 10.26L9.38 9.38L10.26 8.52L11.18 7.71L12.13 6.92L13.11 6.18L14.11 5.47L15.15 4.8L16.21 4.17L17.3 3.57L18.41 3.02L19.55 2.52L20.71 2.05L21.89 1.63L23.09 1.26L24.31 0.93L25.55 0.65L26.81 0.42L28.09 0.24L29.38 0.11L30.68 0.03L32 0L33.32 0.03L34.62 0.11L35.91 0.24L37.19 0.42L38.45 0.65L39.69 0.93L40.91 1.26L42.11 1.63L43.29 2.05L44.45 2.52L45.59 3.02L46.7 3.57L47.79 4.17L48.85 4.8L49.89 5.47L50.89 6.18L51.87 6.92L52.82 7.71L53.74 8.52L54.62 9.38L55.48 10.26L56.29 11.18L57.08 12.13L57.82 13.11L58.53 14.11L59.2 15.15L59.83 16.21L60.43 17.3L60.98 18.41L61.48 19.55L61.95 20.71L62.37 21.89L62.74 23.09L63.07 24.31L63.35 25.55L63.58 26.81L63.76 28.09L63.89 29.38L63.97 30.68L64 32L64 32L63.97 33.32Z" id="c13iPq6I4d"></path><path d="M52 -11.81L58.88 -4.94L55.03 -1.09L48.16 -7.96L41.29 -1.09L37.44 -4.94L44.31 -11.81L37.44 -18.68L41.29 -22.53L48.16 -15.66L55.03 -22.53L58.88 -18.68L52 -11.81Z" id="cAzQ0yxYn"></path><path d="M20.99 19.85C19.25 19.85 17.85 18.45 17.85 16.71C17.85 15.92 17.85 9.63 17.85 8.85C17.85 7.98 18.55 7.27 19.42 7.27C20.29 7.27 20.99 7.98 20.99 8.85C20.99 9.16 20.99 10.73 20.99 13.56L24.14 13.56C24.14 11.68 24.14 10.63 24.14 10.42C24.14 8.68 25.54 7.27 27.28 7.27C29.02 7.27 30.43 8.68 30.43 10.42C30.43 10.63 30.43 11.68 30.43 13.56L33.57 13.56C33.57 11.68 33.57 10.63 33.57 10.42C33.57 8.68 34.98 7.27 36.72 7.27C38.46 7.27 39.86 8.68 39.86 10.42C39.86 10.63 39.86 11.68 39.86 13.56L43.01 13.56C43.01 10.73 43.01 9.16 43.01 8.85C43.01 7.98 43.71 7.27 44.58 7.27C45.45 7.27 46.15 7.98 46.15 8.85C46.15 9.63 46.15 15.92 46.15 16.71C46.15 18.45 44.75 19.85 43.01 19.85C38.61 19.85 23.19 19.85 20.99 19.85ZM50.87 54.45C47.1 54.45 16.9 54.45 13.13 54.45C12.26 54.45 11.55 53.75 11.55 52.88C11.55 52.01 12.26 51.31 13.13 51.31C13.28 51.31 14.54 51.31 14.7 51.31C16.44 51.31 17.85 49.9 17.85 48.16C17.85 48.16 20.99 29.29 20.99 26.15C20.99 24.41 22.4 23 24.14 23C25.71 23 38.29 23 39.86 23C41.6 23 43.01 24.41 43.01 26.15C43.01 29.29 46.15 48.16 46.15 48.16C46.15 49.9 47.56 51.31 49.3 51.31C49.46 51.31 50.72 51.31 50.87 51.31C51.73 51.31 52.43 51.99 52.45 52.85C52.45 52.85 52.45 52.86 52.45 52.88C51.98 53.93 51.45 54.45 50.87 54.45ZM32 35.58C29.39 35.58 27.28 37.69 27.28 40.3C27.28 41.03 27.28 44.7 27.28 51.31L36.72 51.31L36.72 40.3C35.31 37.15 33.74 35.58 32 35.58Z" id="itQ0wsFvm"></path></defs><g><g><g><use xlink:href="#c13iPq6I4d" opacity="1" fill="#ff7119" fill-opacity="1"></use></g><g><use xlink:href="#cAzQ0yxYn" opacity="1" fill="#ff2a2a" fill-opacity="1"></use></g><g><use xlink:href="#itQ0wsFvm" opacity="1" fill="#ffffff" fill-opacity="1"></use></g></g></g></svg>