<?xml version="1.0" encoding="iso-8859-1"?>
<!-- Generator: Adobe Illustrator 19.0.0, SVG Export Plug-In . SVG Version: 6.00 Build 0)  -->
<svg version="1.1" id="Capa_1" xmlns="http://www.w3.org/2000/svg" xmlns:xlink="http://www.w3.org/1999/xlink" x="0px" y="0px"
	 viewBox="0 0 478 478" style="enable-background:new 0 0 478 478;" xml:space="preserve">
<g>
	<g>
		<path d="M386.242,188.353c-2.663-0.279-5.336-0.452-8.012-0.521v0.051l-2.628-18.415V119.48h42.667
			c4.713,0,8.533,3.82,8.533,8.533c0,4.713-3.82,8.533-8.533,8.533h-8.533c-9.426,0-17.067,7.641-17.067,17.067
			s7.641,17.067,17.067,17.067h8.533c23.564,0,42.667-19.103,42.667-42.667s-19.103-42.667-42.667-42.667h-59.733
			c-9.426,0-17.067,7.641-17.067,17.067v51.2H215.482l-17.067-34.133h40.653c9.426,0,17.067-7.641,17.067-17.067
			s-7.641-17.067-17.067-17.067h-102.4c-9.426,0-17.067,7.641-17.067,17.067s7.641,17.067,17.067,17.067h23.586l24.354,48.708
			l-29.406,34.304c-48.461-29.153-111.379-13.502-140.533,34.959C-14.484,285.912,1.168,348.83,49.628,377.984
			c48.461,29.153,111.379,13.502,140.533-34.959c6.619-11.002,11.109-23.15,13.237-35.812h35.669
			c2.439-0.06,4.837-0.642,7.031-1.707c0.725-0.413,1.42-0.875,2.082-1.382c1.051-0.548,2.041-1.206,2.953-1.963l22.613-22.613
			c-5.882,56.247,34.948,106.613,91.195,112.494c56.247,5.882,106.613-34.948,112.494-91.195
			C483.318,244.601,442.489,194.235,386.242,188.353z M102.535,358.413c-37.703,0-68.267-30.564-68.267-68.267
			s30.564-68.267,68.267-68.267c10.381,0.063,20.608,2.522,29.884,7.185l-42.837,49.988c-6.127,7.163-5.287,17.936,1.876,24.063
			c3.087,2.641,7.015,4.093,11.077,4.097h65.843C160.619,337.263,133.569,358.297,102.535,358.413z M139.637,273.08l18.876-21.914
			c4.571,6.657,7.911,14.079,9.865,21.914H139.637z M203.399,273.08c-2.978-17.824-10.634-34.539-22.187-48.435l16.077-18.773
			l19.149,67.209H203.399z M247.601,257.567l-20.036-69.82h89.771L247.601,257.567z M443.589,297.629
			c-3.738,34.69-33.097,60.938-67.988,60.784c-37.703-0.043-68.232-30.642-68.188-68.345c0.031-27.51,16.572-52.313,41.957-62.915
			l9.335,65.417c1.339,9.331,9.988,15.811,19.32,14.473c9.331-1.338,15.811-9.988,14.472-19.319l-9.301-65.075
			C420.578,226.677,447.617,260.247,443.589,297.629z"/>
	</g>
</g>
<g>
</g>
<g>
</g>
<g>
</g>
<g>
</g>
<g>
</g>
<g>
</g>
<g>
</g>
<g>
</g>
<g>
</g>
<g>
</g>
<g>
</g>
<g>
</g>
<g>
</g>
<g>
</g>
<g>
</g>
</svg>
