<?xml version="1.0" encoding="UTF-8" standalone="no"?>
<!DOCTYPE svg PUBLIC "-//W3C//DTD SVG 1.1//EN" "http://www.w3.org/Graphics/SVG/1.1/DTD/svg11.dtd">
<svg version="1.1" xmlns="http://www.w3.org/2000/svg" xmlns:xlink="http://www.w3.org/1999/xlink" preserveAspectRatio="xMidYMid meet" viewBox="0 0 64 64" width="64" height="64"><defs><path d="M64 32C64 49.66 49.66 64 32 64C14.34 64 0 49.66 0 32C0 14.34 14.34 0 32 0C49.66 0 64 14.34 64 32Z" id="avmiCpB4V"></path><path d="M80.45 -3.34L87.32 3.53L83.47 7.38L76.6 0.51L69.73 7.38L65.89 3.53L72.76 -3.34L65.89 -10.21L69.73 -14.06L76.6 -7.19L83.47 -14.06L87.32 -10.21L80.45 -3.34Z" id="agbShD2AL"></path><path d="M32 55.95C26.08 55.95 16.14 55.14 16.14 49.7C16.14 45.64 21.68 44.16 26.95 43.67C27.04 43.98 27.76 46.45 27.85 46.76C22.89 47.18 19.31 48.33 19.31 49.7C19.31 51.43 24.99 52.82 32 52.82C39.01 52.82 44.69 51.43 44.69 49.7C44.69 48.33 41.11 47.18 36.15 46.76C36.24 46.45 36.96 43.98 37.05 43.67C42.32 44.16 47.86 45.64 47.86 49.7C47.86 55.14 37.92 55.95 32 55.95ZM32 49.7C28.44 37.41 26.46 30.58 26.06 29.22C22.28 27.05 19.71 23.07 19.71 18.45C19.71 11.54 25.39 5.95 32.4 5.95C39.4 5.95 45.08 11.54 45.08 18.45C45.08 23.44 42.09 27.72 37.79 29.72C37.02 32.38 35.09 39.04 32 49.7ZM32 12.2C28.5 12.2 25.66 15 25.66 18.45C25.66 21.9 28.5 24.7 32 24.7C35.5 24.7 38.34 21.9 38.34 18.45C38.34 15 35.5 12.2 32 12.2Z" id="c2oC5ZDBXd"></path></defs><g><g><g><use xlink:href="#avmiCpB4V" opacity="1" fill="#000000" fill-opacity="1"></use></g><g><use xlink:href="#agbShD2AL" opacity="1" fill="#ff2a2a" fill-opacity="1"></use></g><g><use xlink:href="#c2oC5ZDBXd" opacity="1" fill="#ffffff" fill-opacity="1"></use><g><use xlink:href="#c2oC5ZDBXd" opacity="1" fill-opacity="0" stroke="#000000" stroke-width="1" stroke-opacity="0"></use></g></g></g></g></svg>