<?xml version="1.0" encoding="UTF-8" standalone="no"?>
<!DOCTYPE svg PUBLIC "-//W3C//DTD SVG 1.1//EN" "http://www.w3.org/Graphics/SVG/1.1/DTD/svg11.dtd">
<svg version="1.1" xmlns="http://www.w3.org/2000/svg" xmlns:xlink="http://www.w3.org/1999/xlink" preserveAspectRatio="xMidYMid meet" viewBox="0 0 64 64" width="64" height="64"><defs><path d="M64 32C64 49.66 49.66 64 32 64C14.34 64 0 49.66 0 32C0 14.34 14.34 0 32 0C49.66 0 64 14.34 64 32Z" id="avmiCpB4V"></path><path d="M80.45 -3.23L87.32 3.64L83.47 7.49L76.6 0.62L69.73 7.49L65.89 3.64L72.76 -3.23L65.89 -10.1L69.73 -13.95L76.6 -7.08L83.47 -13.95L87.32 -10.1L80.45 -3.23Z" id="gA2uMH7ri"></path><path d="M52.08 35.67C51.92 35.67 51.12 35.67 49.68 35.67C49.68 32.78 49.68 31.17 49.68 30.85C49.68 29.98 49.36 29.22 48.72 28.59C48.09 27.95 47.33 27.63 46.46 27.63C45.6 27.63 41.32 27.63 33.61 27.63L33.61 22.81C35.05 22.81 35.86 22.81 36.02 22.81C36.69 22.81 37.26 22.58 37.72 22.11C38.19 21.64 38.43 21.07 38.43 20.4C38.43 19.6 38.43 13.17 38.43 12.37C38.43 11.7 38.19 11.13 37.72 10.66C37.26 10.19 36.69 9.96 36.02 9.96C35.21 9.96 28.79 9.96 27.98 9.96C27.31 9.96 26.74 10.19 26.28 10.66C25.81 11.13 25.57 11.7 25.57 12.37C25.57 13.17 25.57 19.6 25.57 20.4C25.57 21.07 25.81 21.64 26.28 22.11C26.74 22.58 27.31 22.81 27.98 22.81C28.14 22.81 28.95 22.81 30.39 22.81L30.39 27.63C22.68 27.63 18.4 27.63 17.54 27.63C16.67 27.63 15.92 27.95 15.28 28.59C14.64 29.22 14.33 29.98 14.33 30.85C14.33 31.17 14.33 32.78 14.33 35.67C12.88 35.67 12.08 35.67 11.92 35.67C11.25 35.67 10.68 35.9 10.21 36.37C9.74 36.84 9.51 37.41 9.51 38.08C9.51 38.88 9.51 45.31 9.51 46.11C9.51 46.78 9.74 47.35 10.21 47.82C10.68 48.29 11.25 48.52 11.92 48.52C12.72 48.52 19.15 48.52 19.95 48.52C20.62 48.52 21.19 48.29 21.66 47.82C22.13 47.35 22.36 46.78 22.36 46.11C22.36 45.31 22.36 38.88 22.36 38.08C22.36 37.41 22.13 36.84 21.66 36.37C21.19 35.9 20.62 35.67 19.95 35.67C19.79 35.67 18.99 35.67 17.54 35.67L17.54 30.85L30.39 30.85L30.39 35.67C28.95 35.67 28.14 35.67 27.98 35.67C27.31 35.67 26.74 35.9 26.28 36.37C25.81 36.84 25.57 37.41 25.57 38.08C25.57 38.88 25.57 45.31 25.57 46.11C25.57 46.78 25.81 47.35 26.28 47.82C26.74 48.29 27.31 48.52 27.98 48.52C28.79 48.52 35.21 48.52 36.02 48.52C36.69 48.52 37.26 48.29 37.72 47.82C38.19 47.35 38.43 46.78 38.43 46.11C38.43 45.31 38.43 38.88 38.43 38.08C38.43 37.41 38.19 36.84 37.72 36.37C37.26 35.9 36.69 35.67 36.02 35.67C35.86 35.67 35.05 35.67 33.61 35.67L33.61 30.85L46.46 30.85L46.46 35.67C45.02 35.67 44.21 35.67 44.05 35.67C43.38 35.67 42.81 35.9 42.34 36.37C41.88 36.84 41.64 37.41 41.64 38.08C41.64 38.88 41.64 45.31 41.64 46.11C41.64 46.78 41.88 47.35 42.34 47.82C42.81 48.29 43.38 48.52 44.05 48.52C44.85 48.52 51.28 48.52 52.08 48.52C52.75 48.52 53.32 48.29 53.79 47.82C54.26 47.35 54.49 46.78 54.49 46.11C54.49 45.31 54.49 38.88 54.49 38.08C54.49 37.41 54.26 36.84 53.79 36.37C53.32 35.9 52.75 35.67 52.08 35.67Z" id="d1j2byYLhe"></path></defs><g><g><g><use xlink:href="#avmiCpB4V" opacity="1" fill="#000000" fill-opacity="1"></use></g><g><use xlink:href="#gA2uMH7ri" opacity="1" fill="#ff2a2a" fill-opacity="1"></use></g><g><use xlink:href="#d1j2byYLhe" opacity="1" fill="#ffffff" fill-opacity="1"></use><g><use xlink:href="#d1j2byYLhe" opacity="1" fill-opacity="0" stroke="#000000" stroke-width="1" stroke-opacity="0"></use></g></g></g></g></svg>