<?xml version="1.0" encoding="UTF-8" standalone="no"?>
<!DOCTYPE svg PUBLIC "-//W3C//DTD SVG 1.1//EN" "http://www.w3.org/Graphics/SVG/1.1/DTD/svg11.dtd">
<svg version="1.1" xmlns="http://www.w3.org/2000/svg" xmlns:xlink="http://www.w3.org/1999/xlink" preserveAspectRatio="xMidYMid meet" viewBox="0 0 64 64" width="64" height="64"><defs><path d="M64 32C64 49.66 49.66 64 32 64C14.34 64 0 49.66 0 32C0 14.34 14.34 0 32 0C49.66 0 64 14.34 64 32Z" id="avmiCpB4V"></path><path d="M81 -2.57L87.87 4.3L84.02 8.15L77.15 1.28L70.28 8.15L66.44 4.3L73.31 -2.57L66.44 -9.44L70.28 -13.29L77.15 -6.42L84.02 -13.29L87.87 -9.44L81 -2.57Z" id="bbJA7HkJ"></path><path d="M36.61 33.72C40.91 28.47 40.13 20.73 34.88 16.43C29.62 12.14 21.88 12.91 17.59 18.17C13.29 23.42 14.07 31.16 19.32 35.46C23.85 39.16 30.35 39.16 34.88 35.46C36.1 36.68 45.89 46.46 47.11 47.69C47.6 48.16 48.37 48.14 48.84 47.66C49.3 47.18 49.3 46.43 48.84 45.95C46.4 43.51 37.84 34.95 36.61 33.72ZM17.31 25.96C17.31 20.54 21.7 16.15 27.12 16.15C32.54 16.15 36.93 20.54 36.93 25.96C36.93 31.38 32.54 35.78 27.12 35.78C21.7 35.77 17.31 31.38 17.31 25.96Z" id="a1yDF7Xk1H"></path></defs><g><g><g><use xlink:href="#avmiCpB4V" opacity="1" fill="#000000" fill-opacity="1"></use></g><g><use xlink:href="#bbJA7HkJ" opacity="1" fill="#ff2a2a" fill-opacity="1"></use></g><g><use xlink:href="#a1yDF7Xk1H" opacity="1" fill="#ffffff" fill-opacity="1"></use><g><use xlink:href="#a1yDF7Xk1H" opacity="1" fill-opacity="0" stroke="#ffffff" stroke-width="2" stroke-opacity="1"></use></g></g></g></g></svg>