<?xml version="1.0" encoding="UTF-8" standalone="no"?>
<!DOCTYPE svg PUBLIC "-//W3C//DTD SVG 1.1//EN" "http://www.w3.org/Graphics/SVG/1.1/DTD/svg11.dtd">
<svg version="1.1" xmlns="http://www.w3.org/2000/svg" xmlns:xlink="http://www.w3.org/1999/xlink" preserveAspectRatio="xMidYMid meet" viewBox="0 0 64 64" width="64" height="64"><defs><path d="M63.97 33.32L63.89 34.62L63.76 35.91L63.58 37.19L63.35 38.45L63.07 39.69L62.74 40.91L62.37 42.11L61.95 43.29L61.48 44.45L60.98 45.59L60.43 46.7L59.83 47.79L59.2 48.85L58.53 49.89L57.82 50.89L57.08 51.87L56.29 52.82L55.48 53.74L54.62 54.62L53.74 55.48L52.82 56.29L51.87 57.08L50.89 57.82L49.89 58.53L48.85 59.2L47.79 59.83L46.7 60.43L45.59 60.98L44.45 61.48L43.29 61.95L42.11 62.37L40.91 62.74L39.69 63.07L38.45 63.35L37.19 63.58L35.91 63.76L34.62 63.89L33.32 63.97L32 64L30.68 63.97L29.38 63.89L28.09 63.76L26.81 63.58L25.55 63.35L24.31 63.07L23.09 62.74L21.89 62.37L20.71 61.95L19.55 61.48L18.41 60.98L17.3 60.43L16.21 59.83L15.15 59.2L14.11 58.53L13.11 57.82L12.13 57.08L11.18 56.29L10.26 55.48L9.38 54.62L8.52 53.74L7.71 52.82L6.92 51.87L6.18 50.89L5.47 49.89L4.8 48.85L4.17 47.79L3.57 46.7L3.02 45.59L2.52 44.45L2.05 43.29L1.63 42.11L1.26 40.91L0.93 39.69L0.65 38.45L0.42 37.19L0.24 35.91L0.11 34.62L0.03 33.32L0 32L0.03 30.68L0.11 29.38L0.24 28.09L0.42 26.81L0.65 25.55L0.93 24.31L1.26 23.09L1.63 21.89L2.05 20.71L2.52 19.55L3.02 18.41L3.57 17.3L4.17 16.21L4.8 15.15L5.47 14.11L6.18 13.11L6.92 12.13L7.71 11.18L8.52 10.26L9.38 9.38L10.26 8.52L11.18 7.71L12.13 6.92L13.11 6.18L14.11 5.47L15.15 4.8L16.21 4.17L17.3 3.57L18.41 3.02L19.55 2.52L20.71 2.05L21.89 1.63L23.09 1.26L24.31 0.93L25.55 0.65L26.81 0.42L28.09 0.24L29.38 0.11L30.68 0.03L32 0L33.32 0.03L34.62 0.11L35.91 0.24L37.19 0.42L38.45 0.65L39.69 0.93L40.91 1.26L42.11 1.63L43.29 2.05L44.45 2.52L45.59 3.02L46.7 3.57L47.79 4.17L48.85 4.8L49.89 5.47L50.89 6.18L51.87 6.92L52.82 7.71L53.74 8.52L54.62 9.38L55.48 10.26L56.29 11.18L57.08 12.13L57.82 13.11L58.53 14.11L59.2 15.15L59.83 16.21L60.43 17.3L60.98 18.41L61.48 19.55L61.95 20.71L62.37 21.89L62.74 23.09L63.07 24.31L63.35 25.55L63.58 26.81L63.76 28.09L63.89 29.38L63.97 30.68L64 32L64 32L63.97 33.32Z" id="b7TmNzSLx8"></path><path d="M63.3 -12.54L70.17 -5.67L66.33 -1.82L59.45 -8.69L52.58 -1.82L48.74 -5.67L55.61 -12.54L48.74 -19.41L52.58 -23.25L59.45 -16.38L66.33 -23.25L70.17 -19.41L63.3 -12.54Z" id="g2uIz8HZ0"></path><path d="M55.85 17.85C55.77 17.89 47.13 21.17 31.95 21.17C16.77 21.17 8.24 17.89 8.15 17.85C8.06 17.82 7.58 17.63 6.72 17.3L6.72 47.12C7.55 46.85 8.02 46.69 8.11 46.66C8.21 46.62 18.19 43.32 31.95 43.32C45.69 43.32 55.79 46.63 55.89 46.66C55.99 46.69 56.45 46.84 57.28 47.12L57.28 17.3C56.42 17.63 55.94 17.82 55.85 17.85ZM44.92 41.24C44.81 41.01 44.26 39.83 43.26 37.72L44.88 37.72L41.65 30.26L38.41 37.72L39.9 37.72C39.1 39.42 38.65 40.37 38.56 40.56C37.67 40.5 36.75 40.44 35.81 40.4C35.69 40.14 35.07 38.83 33.96 36.47L36.08 36.47L31.84 26.69L27.6 36.47L29.55 36.47C28.43 38.84 27.81 40.16 27.69 40.42C26.79 40.46 25.91 40.52 25.06 40.58C24.97 40.39 24.52 39.44 23.71 37.71L25.33 37.71L22.1 30.26L18.86 37.71L20.35 37.71C19.34 39.86 18.78 41.05 18.66 41.29C14.12 41.96 10.73 42.82 8.95 43.32C8.95 41.11 8.95 23.43 8.95 21.22C12.01 22.18 19.86 24.17 31.95 24.17C44.06 24.17 51.97 22.17 55.04 21.22C55.04 22.69 55.04 30.06 55.04 43.32L55.04 43.32L55.04 43.33C51.46 42.39 48.09 41.7 44.92 41.24Z" id="a2d9iEwFZT"></path><path d="M48.74 26.26C46.97 26.26 45.54 27.69 45.54 29.46C45.54 31.22 46.97 32.66 48.74 32.66C50.5 32.66 51.94 31.22 51.94 29.46C51.94 27.69 50.5 26.26 48.74 26.26Z" id="a5n50wsDLh"></path></defs><g><g><g><use xlink:href="#b7TmNzSLx8" opacity="1" fill="#53ff19" fill-opacity="1"></use></g><g><use xlink:href="#g2uIz8HZ0" opacity="1" fill="#ff2a2a" fill-opacity="1"></use></g><g><use xlink:href="#a2d9iEwFZT" opacity="1" fill="#ffffff" fill-opacity="1"></use></g><g><use xlink:href="#a5n50wsDLh" opacity="1" fill="#ffffff" fill-opacity="1"></use></g></g></g></svg>