<?xml version="1.0" encoding="UTF-8" standalone="no"?>
<!DOCTYPE svg PUBLIC "-//W3C//DTD SVG 1.1//EN" "http://www.w3.org/Graphics/SVG/1.1/DTD/svg11.dtd">
<svg version="1.1" xmlns="http://www.w3.org/2000/svg" xmlns:xlink="http://www.w3.org/1999/xlink" preserveAspectRatio="xMidYMid meet" viewBox="0 0 64 64" width="64" height="64"><defs><path d="M48.39 -12.17L55.26 -5.3L51.42 -1.45L44.55 -8.33L37.67 -1.45L33.83 -5.3L40.7 -12.17L33.83 -19.04L37.67 -22.89L44.55 -16.02L51.42 -22.89L55.26 -19.04L48.39 -12.17Z" id="b1dvHETD8I"></path><path d="M63.97 33.32L63.89 34.62L63.76 35.91L63.58 37.19L63.35 38.45L63.07 39.69L62.74 40.91L62.37 42.11L61.95 43.29L61.48 44.45L60.98 45.59L60.43 46.7L59.83 47.79L59.2 48.85L58.53 49.89L57.82 50.89L57.08 51.87L56.29 52.82L55.48 53.74L54.62 54.62L53.74 55.48L52.82 56.29L51.87 57.08L50.89 57.82L49.89 58.53L48.85 59.2L47.79 59.83L46.7 60.43L45.59 60.98L44.45 61.48L43.29 61.95L42.11 62.37L40.91 62.74L39.69 63.07L38.45 63.35L37.19 63.58L35.91 63.76L34.62 63.89L33.32 63.97L32 64L30.68 63.97L29.38 63.89L28.09 63.76L26.81 63.58L25.55 63.35L24.31 63.07L23.09 62.74L21.89 62.37L20.71 61.95L19.55 61.48L18.41 60.98L17.3 60.43L16.21 59.83L15.15 59.2L14.11 58.53L13.11 57.82L12.13 57.08L11.18 56.29L10.26 55.48L9.38 54.62L8.52 53.74L7.71 52.82L6.92 51.87L6.18 50.89L5.47 49.89L4.8 48.85L4.17 47.79L3.57 46.7L3.02 45.59L2.52 44.45L2.05 43.29L1.63 42.11L1.26 40.91L0.93 39.69L0.65 38.45L0.42 37.19L0.24 35.91L0.11 34.62L0.03 33.32L0 32L0.03 30.68L0.11 29.38L0.24 28.09L0.42 26.81L0.65 25.55L0.93 24.31L1.26 23.09L1.63 21.89L2.05 20.71L2.52 19.55L3.02 18.41L3.57 17.3L4.17 16.21L4.8 15.15L5.47 14.11L6.18 13.11L6.92 12.13L7.71 11.18L8.52 10.26L9.38 9.38L10.26 8.52L11.18 7.71L12.13 6.92L13.11 6.18L14.11 5.47L15.15 4.8L16.21 4.17L17.3 3.57L18.41 3.02L19.55 2.52L20.71 2.05L21.89 1.63L23.09 1.26L24.31 0.93L25.55 0.65L26.81 0.42L28.09 0.24L29.38 0.11L30.68 0.03L32 0L33.32 0.03L34.62 0.11L35.91 0.24L37.19 0.42L38.45 0.65L39.69 0.93L40.91 1.26L42.11 1.63L43.29 2.05L44.45 2.52L45.59 3.02L46.7 3.57L47.79 4.17L48.85 4.8L49.89 5.47L50.89 6.18L51.87 6.92L52.82 7.71L53.74 8.52L54.62 9.38L55.48 10.26L56.29 11.18L57.08 12.13L57.82 13.11L58.53 14.11L59.2 15.15L59.83 16.21L60.43 17.3L60.98 18.41L61.48 19.55L61.95 20.71L62.37 21.89L62.74 23.09L63.07 24.31L63.35 25.55L63.58 26.81L63.76 28.09L63.89 29.38L63.97 30.68L64 32L64 32L63.97 33.32Z" id="b2GpwPw0be"></path><path d="M21.24 25.73C21 25.75 20.86 25.75 20.84 25.76C20.61 25.77 20.38 25.74 20.31 25.68C20.21 25.6 20.19 24.92 20.19 21.48C20.19 16.83 20.27 17.27 19.43 17.53C19.4 17.54 19.25 17.59 18.97 17.68L18.93 21.7L18.89 25.73C18.62 25.75 18.47 25.75 18.44 25.76C18.18 25.77 17.94 25.74 17.87 25.68C17.77 25.6 17.75 24.99 17.75 22.03C17.75 18.76 17.74 18.47 17.61 18.47C17.53 18.47 17.11 18.84 16.65 19.29C15.93 20.02 15.79 20.22 15.42 21C14.71 22.44 14.7 22.47 14.67 25.79C14.66 25.98 14.65 26.96 14.63 28.71C18.01 28.71 19.89 28.71 20.27 28.71C23.37 28.71 25.91 28.68 25.91 28.64C25.91 28.53 26.91 27.74 27.51 27.38C28.24 26.94 29.09 26.59 29.99 26.35C31.09 26.07 32.85 26.07 33.98 26.38C35.33 26.74 36.65 27.42 37.65 28.27C37.68 28.29 37.86 28.44 38.17 28.71L43.77 28.71L49.37 28.71C49.35 26.93 49.34 25.94 49.34 25.75C49.31 22.99 49.29 22.75 49.11 22.16C48.76 20.97 48.33 20.28 47.31 19.26C46.28 18.24 45.6 17.82 44.4 17.45C44.36 17.43 44.15 17.37 43.77 17.25L33.71 17.23L23.64 17.2L23.62 21.47L23.59 25.73C23.35 25.75 23.22 25.75 23.19 25.76C22.96 25.77 22.73 25.74 22.66 25.68C22.56 25.6 22.54 24.92 22.54 21.4C22.54 21.12 22.54 19.72 22.54 17.21L21.91 17.21L21.28 17.21L21.27 21.47L21.24 25.73ZM45.83 20.9C45.98 21.21 46 21.4 46 23.23C46 26.12 46.09 26.02 43.23 26.02C41.06 26.02 40.8 25.97 40.52 25.42C40.36 25.11 40.36 24.96 40.38 22.99C40.38 22.85 40.39 22.15 40.41 20.89L40.72 20.6L41.04 20.32C42.27 20.32 42.96 20.32 43.1 20.32C44.78 20.32 45.21 20.34 45.41 20.44C45.55 20.52 45.73 20.72 45.83 20.9Z" id="awnC3pHuy"></path><path d="M25.15 33.69C25.01 34.55 25.08 35.95 25.32 36.77C25.65 37.92 26.09 38.64 27.08 39.62C28.07 40.61 28.71 41.02 29.71 41.34C33.64 42.58 37.67 40.4 38.69 36.47C38.92 35.6 38.93 33.96 38.73 33.16C38.36 31.72 37.91 30.94 36.79 29.84C35.71 28.76 34.77 28.27 33.32 27.99C32.74 27.88 31.58 27.85 30.99 27.93C28.03 28.34 25.63 30.71 25.15 33.69ZM35.19 31.13C35.87 31.76 36.43 32.66 36.72 33.63C36.93 34.32 36.9 35.46 36.67 36.18C36.03 38.2 34.1 39.65 32.04 39.65C31.29 39.65 30.71 39.5 29.86 39.09C28.22 38.32 27.14 36.6 27.14 34.75C27.13 32.5 28.77 30.51 31.04 30.02C31.75 29.86 32.13 29.86 32.84 30.01C33.5 30.15 34.81 30.77 35.19 31.13Z" id="c6B11uFx58"></path><path d="M14.68 46.46C14.8 46.84 14.86 47.05 14.88 47.09C15.25 48.29 15.68 48.97 16.69 49.99C17.74 51.03 18.43 51.46 19.65 51.81C19.7 51.82 19.92 51.88 20.32 52L31.96 52L43.6 52C44 51.88 44.22 51.82 44.26 51.81C45.6 51.42 46.53 50.84 47.53 49.78C48.23 49.04 48.8 48.05 49.12 47.01C49.14 46.96 49.2 46.75 49.32 46.38L49.34 37.96L49.37 29.55C46.26 29.55 44.53 29.55 44.19 29.55C39.68 29.55 39.02 29.57 39.02 29.68C39.02 29.74 39.15 30.01 39.32 30.26C40.91 32.76 41.07 35.95 39.74 38.61C38.38 41.31 35.87 43.05 32.82 43.4C30.37 43.68 27.53 42.63 25.76 40.76C25.06 40.02 24.66 39.44 24.14 38.34C23.53 37.07 23.35 36.25 23.35 34.75C23.35 33.77 23.38 33.39 23.54 32.79C23.75 31.91 24.16 30.95 24.59 30.28C24.75 30.01 24.9 29.74 24.9 29.68C24.9 29.57 24.24 29.55 19.77 29.55C19.43 29.55 17.72 29.55 14.63 29.55L14.66 38L14.68 46.46Z" id="cvye2JmYZ"></path></defs><g><g><g><use xlink:href="#b1dvHETD8I" opacity="1" fill="#ff2a2a" fill-opacity="1"></use></g><g><use xlink:href="#b2GpwPw0be" opacity="1" fill="#53ff19" fill-opacity="1"></use></g><g><use xlink:href="#awnC3pHuy" opacity="1" fill="#ffffff" fill-opacity="1"></use></g><g><use xlink:href="#c6B11uFx58" opacity="1" fill="#ffffff" fill-opacity="1"></use></g><g><use xlink:href="#cvye2JmYZ" opacity="1" fill="#ffffff" fill-opacity="1"></use></g></g></g></svg>