<?xml version="1.0" encoding="UTF-8" standalone="no"?>
<!DOCTYPE svg PUBLIC "-//W3C//DTD SVG 1.1//EN" "http://www.w3.org/Graphics/SVG/1.1/DTD/svg11.dtd">
<svg version="1.1" xmlns="http://www.w3.org/2000/svg" xmlns:xlink="http://www.w3.org/1999/xlink" preserveAspectRatio="xMidYMid meet" viewBox="0 0 64 64" width="640" height="640"><defs><path d="M64 32C64 49.66 49.66 64 32 64C14.34 64 0 49.66 0 32C0 14.34 14.34 0 32 0C49.66 0 64 14.34 64 32Z" id="b30ziqCc0f"></path><path d="M15.78 31.58C15.75 31.81 15.73 32.03 15.73 32.26C15.74 32.95 15.8 36.39 15.9 42.59C13.75 47.21 12.55 49.77 12.31 50.28C12.19 50.51 12.1 50.78 12.06 51.05C11.86 52.32 12.74 53.5 14.01 53.7C15 53.85 15.95 53.35 16.4 52.52C16.8 51.68 19.95 44.95 20.34 44.11C20.43 43.92 20.5 43.71 20.53 43.49C20.53 43.46 20.54 43.36 20.55 43.17L20.52 36.78L26.58 39.42C27.17 43.16 27.49 45.24 27.56 45.66C27.75 46.57 28.5 47.3 29.48 47.45C30.76 47.64 31.94 46.77 32.14 45.51C32.17 45.29 32.17 45.08 32.15 44.87C32.03 44.12 31.07 38.09 30.96 37.33C30.81 36.61 30.33 35.98 29.65 35.66C29.29 35.5 27.48 34.7 24.23 33.26L27.68 27.29C28.71 28.59 29.28 29.31 29.39 29.45C29.57 29.64 29.79 29.81 30.05 29.91C30.7 30.1 35.92 31.62 36.57 31.81C37.43 31.99 38.32 31.54 38.66 30.71C39.04 29.77 38.59 28.7 37.65 28.32C37.64 28.32 37.61 28.31 37.56 28.29L31.89 26.63C29.33 23.57 27.91 21.88 27.63 21.54C26.99 20.86 26.14 20.38 25.15 20.22C23.42 19.97 21.78 20.79 20.91 22.18C20.6 22.72 19.02 25.44 16.18 30.33C15.96 30.87 15.83 31.28 15.78 31.58ZM34.46 48.24L23.25 50.96L23.36 52.88C39.76 52.88 48.88 52.88 50.7 52.88C51.67 52.88 52.45 52.1 52.45 51.13C52.45 48.69 52.44 36.45 52.42 14.43L48.68 13.56L46.52 23.21L42.93 24.71L39.73 33.61L42.77 40.42L41.91 43.03L34.87 45.15L34.46 48.24ZM30.75 16.29C30.75 14.38 29.18 12.82 27.26 12.82C25.33 12.82 23.77 14.38 23.77 16.29C23.77 18.21 25.33 19.77 27.26 19.77C29.18 19.77 30.75 18.21 30.75 16.29ZM19.94 18.96C19.77 18.86 18.42 18.07 18.25 17.98C17.77 17.71 17.16 17.86 16.89 18.35C16.36 19.24 12.2 26.4 11.68 27.3C11.41 27.77 11.56 28.37 12.05 28.65C12.22 28.75 13.58 29.53 13.75 29.63C14.22 29.9 14.83 29.74 15.1 29.27C15.45 28.67 17.19 25.69 20.31 20.31C20.39 19.59 20.27 19.14 19.94 18.96Z" id="bEfYlqW8j"></path><path d="M50.39 -15.99L57.26 -9.12L53.42 -5.27L46.55 -12.14L39.67 -5.27L35.83 -9.12L42.7 -15.99L35.83 -22.86L39.67 -26.71L46.55 -19.84L53.42 -26.71L57.26 -22.86L50.39 -15.99Z" id="a4Yo5Odfuo"></path></defs><g><g><g><use xlink:href="#b30ziqCc0f" opacity="1" fill="#c619ff" fill-opacity="1"></use></g><g><use xlink:href="#bEfYlqW8j" opacity="1" fill="#ffffff" fill-opacity="1"></use></g><g><use xlink:href="#a4Yo5Odfuo" opacity="1" fill="#ff2a2a" fill-opacity="1"></use></g></g></g></svg>