<?xml version="1.0" encoding="UTF-8" standalone="no"?>
<!DOCTYPE svg PUBLIC "-//W3C//DTD SVG 1.1//EN" "http://www.w3.org/Graphics/SVG/1.1/DTD/svg11.dtd">
<svg version="1.1" xmlns="http://www.w3.org/2000/svg" xmlns:xlink="http://www.w3.org/1999/xlink" preserveAspectRatio="xMidYMid meet" viewBox="0 0 64 64" width="64" height="64"><defs><path d="M64 32C64 49.66 49.66 64 32 64C14.34 64 0 49.66 0 32C0 14.34 14.34 0 32 0C49.66 0 64 14.34 64 32Z" id="eio75OzDB"></path><path d="M46.44 28.97C46.44 28.97 46.44 28.97 46.44 28.97L46.17 27.06L46.17 21.88C48.82 21.88 50.3 21.88 50.59 21.88C51.08 21.88 51.48 22.27 51.48 22.76C51.48 23.25 51.08 23.65 50.59 23.65C50.5 23.65 49.8 23.65 49.71 23.65C48.73 23.65 47.94 24.44 47.94 25.42C47.94 26.39 48.73 27.19 49.71 27.19C49.8 27.19 50.5 27.19 50.59 27.19C53.04 27.19 55.02 25.21 55.02 22.76C55.02 20.32 53.04 18.34 50.59 18.34C49.97 18.34 45.02 18.34 44.4 18.34C43.42 18.34 42.63 19.13 42.63 20.11C42.63 20.46 42.63 22.23 42.63 25.42L29.56 25.42L27.79 21.88C30.32 21.88 31.73 21.88 32.01 21.88C32.98 21.88 33.78 21.08 33.78 20.11C33.78 19.13 32.98 18.34 32.01 18.34C30.95 18.34 22.45 18.34 21.39 18.34C20.41 18.34 19.62 19.13 19.62 20.11C19.62 21.08 20.41 21.88 21.39 21.88C21.55 21.88 22.37 21.88 23.83 21.88L26.36 26.93C24.53 29.06 23.51 30.25 23.31 30.49C18.28 27.46 11.76 29.09 8.73 34.11C5.71 39.14 7.33 45.66 12.36 48.69C17.39 51.71 23.91 50.09 26.93 45.06C27.62 43.92 28.09 42.66 28.31 41.35C28.68 41.35 31.64 41.35 32.01 41.35C32.26 41.34 32.51 41.28 32.74 41.17C32.81 41.13 32.88 41.08 32.95 41.03C33.06 40.97 33.16 40.9 33.26 40.82C33.49 40.59 35.37 38.71 35.6 38.48C34.99 44.31 39.23 49.54 45.06 50.15C50.9 50.76 56.12 46.52 56.73 40.69C57.34 34.85 53.11 29.63 47.27 29.02C47 28.99 46.72 28.97 46.44 28.97ZM10.77 39.58C10.77 35.67 13.94 32.5 17.85 32.5C18.92 32.5 19.98 32.76 20.95 33.24C20.5 33.76 16.95 37.91 16.5 38.43C15.87 39.17 15.95 40.29 16.7 40.92C17.02 41.2 17.43 41.35 17.85 41.35C18.53 41.35 23.99 41.35 24.68 41.35C23.87 44.46 21.07 46.65 17.85 46.66C13.94 46.66 10.77 43.49 10.77 39.58ZM23.65 35.53C24.13 36.22 24.47 36.99 24.68 37.81C24.48 37.81 23.48 37.81 21.69 37.81C22.87 36.44 23.52 35.69 23.65 35.53ZM26.01 32.78C26.12 32.65 26.67 32.01 27.67 30.84L29.66 37.81L28.31 37.81C27.57 35.42 26.81 33.74 26.01 32.78ZM30.81 28.96L40.12 28.96L32.89 36.2L30.81 28.96ZM46.17 46.66C42.26 46.65 39.09 43.48 39.1 39.57C39.1 36.72 40.81 34.14 43.45 33.04C43.54 33.72 44.32 39.15 44.42 39.83C44.55 40.8 45.45 41.47 46.42 41.33C47.39 41.19 48.06 40.29 47.92 39.33C47.82 38.65 47.05 33.25 46.96 32.58C50.83 32.99 53.64 36.48 53.22 40.35C52.83 43.95 49.79 46.67 46.17 46.66Z" id="d1pkFwgGId"></path><path d="M35.85 14.01L42.72 20.88L38.87 24.73L32 17.86L25.13 24.73L21.28 20.88L28.15 14.01L21.28 7.14L25.13 3.29L32 10.16L38.87 3.29L42.72 7.14L35.85 14.01Z" id="f4tDtn4FAz"></path></defs><g><g><g><use xlink:href="#eio75OzDB" opacity="1" fill="#c244f7" fill-opacity="1"></use></g><g><use xlink:href="#d1pkFwgGId" opacity="1" fill="#ffffff" fill-opacity="1"></use></g><g><use xlink:href="#f4tDtn4FAz" opacity="1" fill="#ff2a2a" fill-opacity="1"></use></g></g></g></svg>