<?xml version="1.0" encoding="UTF-8" standalone="no"?>
<!DOCTYPE svg PUBLIC "-//W3C//DTD SVG 1.1//EN" "http://www.w3.org/Graphics/SVG/1.1/DTD/svg11.dtd">
<svg version="1.1" xmlns="http://www.w3.org/2000/svg" xmlns:xlink="http://www.w3.org/1999/xlink" preserveAspectRatio="xMidYMid meet" viewBox="0 0 64 64" width="640" height="640"><defs><path d="M64 32C64 49.66 49.66 64 32 64C14.34 64 0 49.66 0 32C0 14.34 14.34 0 32 0C49.66 0 64 14.34 64 32Z" id="a9grAgt6fg"></path><path d="M35.91 0.24L37.19 0.42L38.45 0.65L39.69 0.93L40.91 1.26L42.11 1.63L43.29 2.05L44.45 2.52L45.59 3.02L46.7 3.57L47.79 4.17L48.85 4.8L49.89 5.47L50.89 6.18L51.87 6.92L52.82 7.71L53.74 8.52L54.62 9.38L55.48 10.26L56.29 11.18L57.08 12.13L57.82 13.11L58.53 14.11L59.2 15.15L59.83 16.21L60.43 17.3L60.98 18.41L61.48 19.55L61.95 20.71L62.37 21.89L62.74 23.09L63.07 24.31L63.35 25.55L63.58 26.81L63.76 28.09L63.89 29.38L63.97 30.68L64 32L63.97 33.32L63.89 34.62L63.76 35.91L63.58 37.19L63.35 38.45L63.07 39.69L62.74 40.91L62.37 42.11L61.95 43.29L61.48 44.45L60.98 45.59L60.43 46.7L59.83 47.79L59.2 48.85L58.53 49.89L57.82 50.89L57.08 51.87L56.29 52.82L55.48 53.74L54.62 54.62L53.74 55.48L52.82 56.29L51.87 57.08L50.89 57.82L49.89 58.53L48.85 59.2L47.79 59.83L46.7 60.43L45.59 60.98L44.45 61.48L43.29 61.95L42.11 62.37L40.91 62.74L39.69 63.07L38.45 63.35L37.19 63.58L35.91 63.76L34.62 63.89L33.32 63.97L32 64L30.68 63.97L29.38 63.89L28.09 63.76L26.81 63.58L25.55 63.35L24.31 63.07L23.09 62.74L21.89 62.37L20.71 61.95L19.55 61.48L18.41 60.98L17.3 60.43L16.21 59.83L15.26 59.27L15.27 59.08L15.27 58.81L15.27 58.52L15.27 58.21L15.28 57.86L15.28 57.49L15.28 57.27L15.28 57.06L15.28 56.84L15.29 56.63L15.29 56.42L15.29 56.21L15.29 56.01L15.3 55.81L15.3 55.62L15.3 55.43L15.3 55.25L15.31 55.07L15.31 54.9L15.31 54.74L15.31 54.58L15.32 54.44L15.32 54.3L15.32 54.17L15.33 54.06L15.33 53.95L15.33 53.85L15.33 53.77L15.34 53.7L15.34 53.64L15.34 53.59L15.36 53.34L15.38 53.12L15.39 52.9L15.4 52.7L15.42 52.52L15.43 52.35L15.44 52.19L15.46 52.04L15.47 51.91L15.48 51.79L15.5 51.67L15.51 51.57L15.52 51.48L15.54 51.39L15.55 51.31L15.57 51.24L15.58 51.18L15.6 51.12L15.62 51.07L15.64 51.02L15.66 50.97L15.68 50.93L15.7 50.89L15.72 50.85L15.75 50.81L15.77 50.78L15.81 50.74L15.84 50.7L15.89 50.66L15.93 50.61L15.98 50.57L16.04 50.52L16.1 50.47L16.16 50.42L16.22 50.36L16.28 50.31L16.34 50.26L16.41 50.21L16.47 50.16L16.54 50.12L16.6 50.07L16.66 50.03L16.72 49.99L16.77 49.95L16.82 49.92L16.87 49.89L16.91 49.87L16.95 49.85L16.98 49.84L17.01 49.83L17.02 49.83L17.03 49.83L17.04 49.83L17.06 49.82L17.07 49.82L17.08 49.81L17.09 49.81L17.1 49.8L17.11 49.8L17.12 49.79L17.13 49.79L17.15 49.78L17.16 49.77L17.17 49.76L17.18 49.75L17.19 49.74L17.21 49.73L17.22 49.72L17.23 49.71L17.25 49.7L17.26 49.69L17.27 49.67L17.29 49.66L17.31 49.64L17.32 49.63L17.35 49.6L17.37 49.57L17.4 49.54L17.42 49.51L17.44 49.48L17.46 49.45L17.48 49.42L17.5 49.39L17.52 49.35L17.54 49.32L17.56 49.28L17.57 49.24L17.59 49.2L17.6 49.16L17.62 49.12L17.63 49.08L17.65 49.04L17.66 49L17.67 48.95L17.68 48.91L17.69 48.86L17.7 48.81L17.71 48.76L17.71 48.72L17.72 48.67L17.72 48.65L17.73 48.61L17.73 48.55L17.75 48.45L17.75 48.41L17.76 48.38L17.76 48.37L17.76 48.35L17.76 48.33L17.77 48.31L17.77 48.29L17.77 48.29L17.77 48.28L17.77 48.27L17.78 48.26L17.78 48.25L17.78 48.24L17.79 48.23L17.79 48.22L17.8 48.21L17.8 48.19L17.81 48.18L17.82 48.17L17.82 48.15L17.83 48.14L17.84 48.12L17.85 48.11L17.86 48.09L17.87 48.08L17.88 48.06L17.89 48.04L17.9 48.03L17.91 48.01L17.92 47.99L17.93 47.98L17.94 47.96L17.95 47.95L17.96 47.93L18.14 47.69L18.43 47.62L18.46 47.62L18.48 47.61L18.5 47.61L18.53 47.6L18.56 47.6L18.58 47.59L18.61 47.59L18.64 47.58L18.67 47.58L18.7 47.57L18.73 47.57L18.76 47.57L18.79 47.56L18.82 47.56L18.85 47.56L18.88 47.55L18.91 47.55L18.95 47.55L18.98 47.54L19.01 47.54L19.04 47.54L19.08 47.54L19.11 47.54L19.14 47.53L19.18 47.53L19.23 47.53L19.27 47.53L19.31 47.53L19.35 47.52L19.39 47.52L19.42 47.52L19.46 47.52L19.48 47.51L19.51 47.51L19.54 47.51L19.56 47.5L19.58 47.5L19.61 47.5L19.63 47.49L19.65 47.48L19.67 47.48L19.68 47.47L19.7 47.46L19.72 47.46L19.74 47.45L19.77 47.44L19.79 47.43L19.81 47.41L19.84 47.4L19.86 47.39L19.9 47.37L19.93 47.35L19.95 47.34L19.98 47.32L20.01 47.31L20.04 47.29L20.06 47.27L20.09 47.26L20.11 47.24L20.13 47.22L20.16 47.2L20.18 47.18L20.2 47.16L20.23 47.14L20.25 47.12L20.27 47.1L20.3 47.07L20.32 47.05L20.35 47.02L20.37 46.99L20.4 46.96L20.42 46.93L20.45 46.9L20.48 46.86L20.51 46.82L20.69 46.6L21.06 45.14L21.13 44.85L21.2 44.57L21.27 44.31L21.34 44.07L21.4 43.84L21.46 43.62L21.52 43.42L21.59 43.22L21.65 43.04L21.71 42.86L21.77 42.7L21.83 42.54L21.9 42.38L21.97 42.24L22.04 42.09L22.11 41.95L22.19 41.81L22.27 41.67L22.35 41.53L22.44 41.39L22.53 41.25L22.63 41.11L22.74 40.96L22.85 40.8L22.97 40.64L23.03 40.57L23.08 40.49L23.13 40.41L23.18 40.33L23.23 40.25L23.27 40.16L23.32 40.07L23.36 39.98L23.4 39.89L23.44 39.79L23.47 39.69L23.51 39.59L23.54 39.48L23.57 39.37L23.61 39.25L23.64 39.13L23.67 39L23.69 38.86L23.72 38.72L23.75 38.58L23.78 38.42L23.8 38.26L23.83 38.1L23.86 37.92L23.88 37.74L23.9 37.6L23.92 37.47L23.94 37.34L23.96 37.22L23.98 37.1L24 36.98L24.02 36.86L24.04 36.75L24.06 36.65L24.09 36.54L24.11 36.44L24.13 36.35L24.15 36.26L24.17 36.17L24.2 36.08L24.22 36L24.24 35.92L24.27 35.84L24.29 35.77L24.32 35.7L24.34 35.63L24.37 35.56L24.39 35.5L24.42 35.44L24.45 35.39L24.46 35.36L24.48 35.32L24.51 35.28L24.54 35.23L24.58 35.18L24.62 35.12L24.66 35.06L24.71 34.99L24.75 34.92L24.81 34.84L24.86 34.77L24.92 34.69L24.98 34.6L25.03 34.52L25.09 34.44L25.16 34.35L25.22 34.27L25.28 34.19L25.34 34.11L25.4 34.03L25.46 33.95L25.51 33.87L25.57 33.8L25.62 33.73L25.67 33.67L25.71 33.62L25.75 33.57L25.79 33.52L25.82 33.47L25.86 33.42L25.9 33.37L25.93 33.32L25.97 33.27L26 33.22L26.04 33.17L26.07 33.12L26.1 33.08L26.13 33.03L26.16 32.98L26.19 32.94L26.22 32.89L26.25 32.85L26.27 32.81L26.3 32.77L26.32 32.72L26.34 32.69L26.36 32.65L26.38 32.61L26.4 32.57L26.41 32.54L26.43 32.51L26.44 32.48L26.46 32.44L26.47 32.4L26.49 32.35L26.51 32.3L26.53 32.25L26.55 32.2L26.57 32.15L26.59 32.09L26.61 32.04L26.64 31.98L26.66 31.93L26.68 31.87L26.7 31.82L26.71 31.77L26.73 31.72L26.75 31.67L26.77 31.63L26.78 31.58L26.79 31.55L26.8 31.51L26.81 31.48L26.82 31.46L26.83 31.43L26.83 31.4L26.84 31.35L26.85 31.28L26.86 31.2L26.87 31.1L26.89 30.99L26.9 30.87L26.91 30.74L26.93 30.6L26.94 30.46L26.96 30.31L26.97 30.16L26.99 30L27 29.85L27.01 29.7L27.03 29.55L27.04 29.41L27.05 29.27L27.06 29.15L27.07 29.03L27.08 28.92L27.08 28.83L27.09 28.74L27.09 28.68L27.09 28.63L27.09 28.61L27.09 28.59L27.09 28.56L27.09 28.54L27.09 28.51L27.09 28.49L27.09 28.46L27.09 28.44L27.09 28.42L27.09 28.39L27.08 28.37L27.08 28.34L27.08 28.32L27.08 28.3L27.08 28.27L27.07 28.25L27.07 28.23L27.07 28.21L27.07 28.19L27.07 28.17L27.06 28.15L27.06 28.13L27.06 28.12L27.06 28.1L27.05 28.09L27.04 28L27.01 27.92L26.99 27.84L26.95 27.77L26.92 27.7L26.88 27.64L26.83 27.58L26.78 27.53L26.73 27.49L26.67 27.45L26.6 27.41L26.53 27.38L26.46 27.35L26.38 27.33L26.29 27.31L26.2 27.3L26.1 27.29L26 27.29L25.89 27.29L25.78 27.3L25.66 27.31L25.53 27.33L25.4 27.35L25.26 27.37L25.12 27.4L25.09 27.41L25.03 27.42L24.96 27.44L24.93 27.44L24.85 27.46L24.7 27.49L24.58 27.52L24.5 27.54L24.42 27.55L24.39 27.56L24.31 27.58L24.28 27.58L24.24 27.59L24.21 27.6L24.17 27.61L24.13 27.61L24.09 27.62L24.06 27.63L24.02 27.64L23.98 27.64L23.95 27.65L23.91 27.65L23.88 27.66L23.84 27.67L23.81 27.67L23.78 27.68L23.75 27.68L23.71 27.68L23.68 27.69L23.65 27.69L23.62 27.69L23.59 27.7L23.57 27.7L23.54 27.7L23.51 27.7L23.49 27.71L23.46 27.71L23.44 27.71L23.41 27.71L23.12 27.71L22.62 27.46L22.59 27.45L22.56 27.43L22.52 27.41L22.48 27.39L22.44 27.37L22.4 27.35L22.36 27.33L22.32 27.31L22.28 27.29L22.24 27.27L22.2 27.24L22.16 27.22L22.11 27.2L22.07 27.18L22.03 27.16L21.99 27.13L21.95 27.11L21.9 27.09L21.86 27.07L21.83 27.05L21.79 27.03L21.75 27.01L21.72 26.99L21.68 26.97L21.65 26.95L21.57 26.91L21.49 26.87L21.41 26.83L21.33 26.78L21.25 26.74L21.17 26.71L21.1 26.67L21.02 26.63L20.94 26.59L20.87 26.56L20.79 26.53L20.72 26.49L20.65 26.46L20.58 26.43L20.51 26.41L20.44 26.38L20.38 26.35L20.31 26.33L20.25 26.31L20.19 26.29L20.13 26.27L20.08 26.25L20.03 26.24L19.98 26.23L19.93 26.21L19.86 26.2L19.78 26.18L19.71 26.17L19.63 26.15L19.56 26.14L19.49 26.13L19.42 26.12L19.35 26.1L19.27 26.09L19.2 26.08L19.13 26.07L19.07 26.06L19 26.06L18.93 26.05L18.86 26.04L18.8 26.03L18.73 26.03L18.67 26.02L18.6 26.02L18.54 26.01L18.48 26.01L18.41 26L18.35 26L18.29 26L18.23 26L18.18 26L18.12 26L18.07 25.99L18.03 25.99L17.99 25.99L17.95 25.99L17.92 25.99L17.88 25.99L17.85 25.98L17.82 25.98L17.8 25.98L17.77 25.98L17.75 25.97L17.73 25.97L17.71 25.96L17.68 25.96L17.66 25.95L17.64 25.94L17.62 25.93L17.6 25.92L17.57 25.91L17.55 25.9L17.52 25.89L17.49 25.88L17.46 25.86L17.42 25.85L17.37 25.83L17.32 25.81L17.27 25.78L17.22 25.76L17.16 25.74L17.1 25.71L17.05 25.69L16.98 25.66L16.92 25.64L16.86 25.61L16.8 25.59L16.74 25.57L16.68 25.54L16.62 25.52L16.57 25.5L16.51 25.48L16.46 25.46L16.41 25.44L16.37 25.42L16.33 25.41L16.29 25.39L16.26 25.38L16.23 25.37L16.21 25.37L16.13 25.34L16.06 25.32L15.99 25.3L15.92 25.28L15.85 25.27L15.79 25.25L15.73 25.23L15.67 25.22L15.61 25.2L15.55 25.19L15.5 25.18L15.44 25.17L15.39 25.15L15.33 25.14L15.28 25.13L15.23 25.12L15.18 25.12L15.13 25.11L15.08 25.1L15.02 25.09L14.97 25.09L14.92 25.08L14.87 25.07L14.81 25.07L14.76 25.06L14.5 25.04L14.47 25.23L14.47 25.25L14.46 25.28L14.45 25.31L14.44 25.33L14.43 25.36L14.42 25.38L14.41 25.41L14.4 25.43L14.39 25.46L14.37 25.48L14.36 25.5L14.35 25.53L14.33 25.55L14.32 25.57L14.3 25.59L14.29 25.61L14.27 25.63L14.25 25.65L14.23 25.67L14.22 25.69L14.2 25.71L14.18 25.73L14.16 25.75L14.14 25.76L14.12 25.78L14.08 25.81L14.05 25.84L14.01 25.86L13.98 25.88L13.94 25.91L13.91 25.92L13.87 25.94L13.83 25.96L13.79 25.97L13.74 25.99L13.69 26L13.64 26.01L13.58 26.02L13.51 26.03L13.44 26.03L13.36 26.04L13.27 26.05L13.17 26.05L13.07 26.06L12.95 26.06L12.83 26.06L12.69 26.07L12.54 26.07L12.38 26.08L12.2 26.08L11 26.1L10.73 26.21L10.68 26.23L10.63 26.25L10.58 26.26L10.54 26.28L10.49 26.3L10.45 26.32L10.42 26.35L10.38 26.37L10.35 26.39L10.32 26.41L10.29 26.44L10.26 26.46L10.23 26.49L10.2 26.52L10.18 26.55L10.16 26.58L10.14 26.61L10.12 26.64L10.1 26.68L10.08 26.72L10.06 26.76L10.04 26.8L10.03 26.84L10.01 26.89L9.99 26.94L9.99 26.96L9.98 26.98L9.97 27.01L9.96 27.03L9.96 27.06L9.95 27.08L9.95 27.11L9.95 27.14L9.94 27.17L9.94 27.2L9.93 27.24L9.93 27.28L9.93 27.33L9.93 27.38L9.93 27.43L9.92 27.49L9.92 27.56L9.92 27.63L9.92 27.71L9.92 27.79L9.92 27.89L9.92 27.99L9.92 28.1L9.92 28.22L9.92 28.34L9.92 28.42L9.92 28.5L9.92 28.58L9.92 28.66L9.92 28.74L9.92 28.83L9.91 28.91L9.91 28.99L9.91 29.07L9.91 29.14L9.91 29.22L9.91 29.3L9.91 29.37L9.91 29.44L9.91 29.51L9.9 29.58L9.9 29.65L9.9 29.71L9.9 29.77L9.9 29.83L9.9 29.88L9.89 29.93L9.89 29.97L9.89 30.01L9.89 30.05L9.89 30.1L9.89 30.15L9.88 30.2L9.88 30.25L9.88 30.29L9.88 30.32L9.87 30.36L9.87 30.39L9.87 30.42L9.86 30.45L9.86 30.48L9.86 30.5L9.85 30.53L9.85 30.55L9.84 30.57L9.84 30.59L9.83 30.61L9.83 30.63L9.82 30.65L9.82 30.66L9.81 30.68L9.8 30.7L9.79 30.72L9.78 30.74L9.77 30.76L9.75 30.81L9.72 30.85L9.69 30.9L9.66 30.95L9.62 30.99L9.58 31.03L9.54 31.08L9.5 31.12L9.45 31.16L9.41 31.2L9.36 31.24L9.31 31.27L9.25 31.31L9.2 31.34L9.14 31.37L9.08 31.4L9.02 31.43L8.96 31.46L8.9 31.48L8.84 31.51L8.78 31.53L8.71 31.55L8.65 31.57L8.58 31.58L8.52 31.59L8.5 31.6L8.47 31.6L8.45 31.6L8.42 31.61L8.39 31.61L8.36 31.61L8.33 31.62L8.29 31.62L8.26 31.62L8.22 31.63L8.18 31.63L8.14 31.63L8.09 31.63L8.05 31.64L8.01 31.64L7.96 31.64L7.92 31.64L7.87 31.64L7.82 31.65L7.77 31.65L7.72 31.65L7.68 31.65L7.63 31.65L7.58 31.65L7.53 31.65L7.43 31.65L7.34 31.65L7.25 31.65L7.17 31.65L7.1 31.65L7.04 31.65L6.97 31.65L6.92 31.65L6.86 31.64L6.81 31.63L6.76 31.62L6.71 31.61L6.67 31.6L6.62 31.58L6.58 31.57L6.53 31.54L6.49 31.52L6.44 31.5L6.39 31.47L6.33 31.43L6.28 31.4L6.22 31.36L6.15 31.31L6.08 31.27L6.01 31.22L5.95 31.18L5.89 31.14L5.84 31.11L5.79 31.07L5.75 31.05L5.71 31.02L5.66 31L5.62 30.98L5.59 30.96L5.55 30.94L5.51 30.93L5.47 30.91L5.44 30.9L5.4 30.89L5.36 30.89L5.33 30.88L5.29 30.88L5.25 30.88L5.21 30.88L5.16 30.88L5.12 30.88L5.07 30.88L5.02 30.88L4.96 30.89L4.9 30.9L4.88 30.9L4.85 30.9L4.83 30.91L4.8 30.91L4.78 30.91L4.76 30.92L4.73 30.92L4.71 30.93L4.69 30.93L4.66 30.94L4.64 30.94L4.61 30.95L4.59 30.96L4.57 30.96L4.54 30.97L4.52 30.98L4.49 30.99L4.46 31L4.44 31.01L4.41 31.02L4.38 31.03L4.35 31.04L4.32 31.05L4.29 31.07L4.25 31.08L4.21 31.1L4.18 31.11L4.15 31.12L4.13 31.14L4.07 31.16L4.04 31.17L4.02 31.18L3.99 31.19L3.96 31.21L3.93 31.22L3.9 31.23L3.88 31.24L3.85 31.25L3.82 31.26L3.8 31.27L3.77 31.28L3.75 31.29L3.72 31.3L3.7 31.31L3.68 31.32L3.66 31.33L3.64 31.34L3.62 31.34L3.34 31.45L2.23 31.47L2.11 31.48L2.01 31.48L1.91 31.48L1.82 31.48L1.73 31.48L1.65 31.49L1.58 31.49L1.51 31.49L1.45 31.49L1.39 31.5L1.33 31.5L1.28 31.5L1.23 31.51L1.19 31.51L1.15 31.51L1.11 31.52L1.07 31.52L1.04 31.53L1.01 31.53L0.98 31.54L0.95 31.54L0.92 31.55L0.89 31.56L0.86 31.56L0.83 31.57L0.78 31.58L0.74 31.6L0.7 31.61L0.66 31.62L0.62 31.63L0.58 31.64L0.55 31.66L0.51 31.67L0.48 31.69L0.45 31.7L0.42 31.71L0.39 31.73L0.36 31.75L0.33 31.76L0.3 31.78L0.27 31.8L0.24 31.82L0.21 31.84L0.18 31.86L0.15 31.89L0.13 31.91L0.1 31.94L0.07 31.96L0.04 31.99L0.01 32.02L0 32.03L0 32L0.03 30.68L0.11 29.38L0.24 28.09L0.42 26.81L0.65 25.55L0.93 24.31L1.26 23.09L1.63 21.89L2.05 20.71L2.52 19.55L3.02 18.41L3.57 17.3L4.17 16.21L4.8 15.15L5.47 14.11L6.18 13.11L6.92 12.13L7.71 11.18L8.52 10.26L9.38 9.38L10.26 8.52L11.18 7.71L12.13 6.92L13.11 6.18L14.11 5.47L15.15 4.8L16.21 4.17L17.3 3.57L18.41 3.02L19.55 2.52L20.71 2.05L21.89 1.63L23.09 1.26L24.31 0.93L25.55 0.65L26.81 0.42L28.09 0.24L29.38 0.11L30.68 0.03L32 0L33.32 0.03L34.62 0.11L34.62 0.11L35.91 0.24Z" id="a9qN4eOOt"></path><path d="M48.39 -12.17L55.26 -5.3L51.42 -1.45L44.55 -8.33L37.67 -1.45L33.83 -5.3L40.7 -12.17L33.83 -19.04L37.67 -22.89L44.55 -16.02L51.42 -22.89L55.26 -19.04L48.39 -12.17Z" id="b57QIQDZ8j"></path><path d="M35.99 12.55C34.64 12.55 33.54 13.65 33.54 15.01C33.54 16.36 34.64 17.46 35.99 17.46C37.34 17.46 38.44 16.36 38.44 15.01C38.44 13.65 37.34 12.55 35.99 12.55Z" id="bKaolHVfx"></path><path d="M41.89 25.91C41.77 25.45 41.21 23.17 40.2 19.07C43.1 15.14 44.71 12.95 45.03 12.52C45.42 11.99 45.3 11.25 44.78 10.86C44.25 10.48 43.51 10.59 43.12 11.11C42.64 11.78 38.73 17.07 38.25 17.74C38.18 17.75 35.27 18.46 35.1 18.52C34.5 17.91 29.72 13.04 29.12 12.44C28.66 11.97 27.91 11.96 27.45 12.42C26.98 12.88 26.97 13.63 27.43 14.09C27.88 14.56 30.15 16.86 34.23 21.01L35.12 24.64L35.12 24.64L36.11 28.65L35.56 30.59C32.69 30.08 31.09 29.8 30.78 29.75C30 29.61 29.27 30.12 29.13 30.9C28.99 31.67 29.51 32.41 30.28 32.54C36.8 33.7 36.4 33.63 36.58 33.63C37.2 33.63 37.77 33.22 37.94 32.6C39.3 27.8 39.21 28.13 39.23 27.95C39.29 27.94 39.76 27.82 39.82 27.81C39.88 27.89 39.63 27.59 42.47 31.14C42.12 31.56 39.26 34.88 38.91 35.29C38.39 35.88 38.46 36.78 39.05 37.29C39.65 37.8 40.55 37.74 41.06 37.14C41.49 36.64 44.96 32.61 45.39 32.11C45.84 31.59 45.85 30.83 45.43 30.29C41.79 25.73 42.05 26.04 41.89 25.91Z" id="b7RSBFFcJq"></path></defs><g><g><g><use xlink:href="#a9grAgt6fg" opacity="1" fill="#ffffff" fill-opacity="1"></use></g><g><use xlink:href="#a9qN4eOOt" opacity="1" fill="#c619ff" fill-opacity="1"></use></g><g><use xlink:href="#b57QIQDZ8j" opacity="1" fill="#ff2a2a" fill-opacity="1"></use></g><g><use xlink:href="#bKaolHVfx" opacity="1" fill="#ffffff" fill-opacity="1"></use></g><g><use xlink:href="#b7RSBFFcJq" opacity="1" fill="#ffffff" fill-opacity="1"></use></g></g></g></svg>