<?xml version="1.0" encoding="UTF-8" standalone="no"?>
<!DOCTYPE svg PUBLIC "-//W3C//DTD SVG 1.1//EN" "http://www.w3.org/Graphics/SVG/1.1/DTD/svg11.dtd">
<svg version="1.1" xmlns="http://www.w3.org/2000/svg" xmlns:xlink="http://www.w3.org/1999/xlink" preserveAspectRatio="xMidYMid meet" viewBox="0 0 64 64" width="64" height="64"><defs><path d="M64 32C64 49.66 49.66 64 32 64C14.34 64 0 49.66 0 32C0 14.34 14.34 0 32 0C49.66 0 64 14.34 64 32Z" id="fd35wSVV6"></path><path d="M53.93 47.39C52.97 46.96 51.89 46.7 50.76 46.7C49.62 46.7 48.54 46.96 47.58 47.39C46.64 47.81 45.6 48.06 44.5 48.06C43.41 48.06 42.36 47.81 41.43 47.39C40.46 46.96 39.37 46.7 38.26 46.7C37.12 46.7 36.04 46.96 35.08 47.39C34.15 47.81 33.09 48.06 32 48.06C30.91 48.06 29.87 47.81 28.92 47.39C27.96 46.96 26.88 46.7 25.76 46.7C24.63 46.7 23.54 46.96 22.58 47.39C21.65 47.81 20.59 48.06 19.5 48.06C18.42 48.06 17.36 47.81 16.42 47.39C15.47 46.96 14.38 46.7 13.25 46.7C12.13 46.7 11.05 46.96 10.09 47.39C9.14 47.81 8.1 48.06 7 48.06C7 47.6 7 43.93 7 43.48C8.09 43.48 9.14 43.23 10.09 42.82C11.05 42.38 12.13 42.12 13.25 42.12C14.38 42.12 15.47 42.38 16.42 42.82C17.36 43.23 18.42 43.48 19.5 43.48C20.59 43.48 21.65 43.23 22.58 42.82C23.54 42.38 24.63 42.12 25.76 42.12C26.88 42.12 27.96 42.38 28.92 42.82C29.87 43.23 30.91 43.48 32 43.48C33.09 43.48 34.15 43.23 35.08 42.82C36.04 42.38 37.12 42.12 38.26 42.12C39.37 42.12 40.46 42.38 41.43 42.82C42.36 43.23 43.41 43.48 44.5 43.48C45.6 43.48 46.64 43.23 47.58 42.82C48.54 42.38 49.62 42.12 50.76 42.12C51.89 42.12 52.97 42.38 53.93 42.82C54.86 43.23 55.91 43.48 57 43.48C57 43.78 57 45.31 57 48.06C55.57 47.9 54.55 47.67 53.93 47.39ZM55.71 29.19C55.71 25.92 53.04 23.28 49.76 23.28C46.47 23.28 43.81 25.93 43.81 29.19C43.81 32.44 46.23 35.1 49.76 35.1C53.04 35.1 55.71 32.44 55.71 29.19ZM16.43 38.88C17.36 39.3 18.42 39.55 19.5 39.55C20.59 39.55 21.65 39.3 22.58 38.88C23.54 38.45 24.63 38.18 25.76 38.18C26.88 38.18 27.96 38.45 28.92 38.88C29.87 39.3 30.91 39.55 32.01 39.55C33.09 39.55 34.15 39.3 35.08 38.88C36.04 38.45 37.12 38.18 38.26 38.18C39.37 38.18 40.46 38.45 41.43 38.88C42.36 39.3 43.41 39.55 44.51 39.55C45.3 39.55 46.07 39.41 46.79 39.19C46.13 38 42.83 32.08 36.87 21.42C43.8 20.16 47.64 19.47 48.41 19.33C50.11 19.01 51.34 17.69 51.34 16C51.34 14.13 49.81 12.64 47.94 12.64C47.91 12.64 47.78 12.64 47.55 12.65C36.86 14.58 30.91 15.65 29.73 15.87C28.48 16.15 26.82 17.97 27.76 20.2C27.77 20.23 27.82 20.35 27.91 20.56L32.57 28.9L15.12 38.43C15.71 38.61 16.15 38.76 16.43 38.88Z" id="iWsGDifAq"></path><path d="M35.85 12.14L42.72 19.01L38.87 22.86L32 15.99L25.13 22.86L21.28 19.01L28.15 12.14L21.28 5.27L25.13 1.42L32 8.29L38.87 1.42L42.72 5.27L35.85 12.14Z" id="b5q71l1k6p"></path></defs><g><g><g><use xlink:href="#fd35wSVV6" opacity="1" fill="#c619ff" fill-opacity="1"></use></g><g><use xlink:href="#iWsGDifAq" opacity="1" fill="#ffffff" fill-opacity="1"></use></g><g><use xlink:href="#b5q71l1k6p" opacity="1" fill="#ff2a2a" fill-opacity="1"></use></g></g></g></svg>