<?xml version="1.0" encoding="UTF-8" standalone="no"?>
<!DOCTYPE svg PUBLIC "-//W3C//DTD SVG 1.1//EN" "http://www.w3.org/Graphics/SVG/1.1/DTD/svg11.dtd">
<svg version="1.1" xmlns="http://www.w3.org/2000/svg" xmlns:xlink="http://www.w3.org/1999/xlink" preserveAspectRatio="xMidYMid meet" viewBox="0 0 64 64" width="64" height="64"><defs><path d="M64 32C64 49.66 49.66 64 32 64C14.34 64 0 49.66 0 32C0 14.34 14.34 0 32 0C49.66 0 64 14.34 64 32Z" id="b30ziqCc0f"></path><path d="M15.72 52.94C13.55 50.55 12.38 47.43 12.38 44.21C12.38 42.31 12.94 40.42 13.99 38.81C14.63 37.84 19.7 30.1 20.33 29.13C21.89 26.74 22.72 23.9 22.72 21.07C22.72 18.62 22.11 16.23 20.95 14.06C20.81 14.14 19.69 14.76 19.56 14.84C20.56 16.78 21.11 18.9 21.11 21.07C21.11 23.63 20.33 26.13 18.94 28.24C18.31 29.21 13.24 36.95 12.6 37.92C11.38 39.75 10.77 41.98 10.77 44.21C10.77 52.38 17.39 59 25.51 59C27.18 59 28.79 58.72 30.35 58.17C30.4 57.55 30.46 56.94 30.46 56.38C30.46 51.05 27.23 46.21 22.28 44.21C19.5 46.6 17.22 49.6 15.72 52.94ZM21.45 53.55C21.45 52.84 22.02 52.27 22.72 52.27C23.43 52.27 24 52.84 24 53.55C24 54.25 23.43 54.83 22.72 54.83C22.02 54.83 21.45 54.25 21.45 53.55Z" id="ecEjutB5Z"></path><path d="M45.87 16.28C44.7 15.56 43.36 15.17 41.97 15.17C39.02 15.17 36.41 16.89 35.24 19.56C36.46 18.84 37.91 18.4 39.41 18.4C41.19 18.4 42.69 18.9 44.19 19.95C45.47 20.9 46.25 22.35 46.25 23.96C46.25 23.96 46.25 24.01 46.25 24.01C46.2 26.24 45.7 28.57 44.81 30.63C42.97 34.64 39.41 37.42 35.02 38.14C34.84 38.18 33.42 38.49 33.24 38.53C32.96 37.75 32.79 36.92 32.79 36.08C32.79 34.92 32.9 34.3 33.35 33.25C30.73 34.69 29.01 37.2 28.51 40.2C27.98 40.53 23.71 43.15 23.17 43.48C28.23 45.76 31.51 50.82 31.51 56.39C31.51 56.39 31.4 57.78 31.46 57.78C38.36 54.49 36.97 55.38 42.69 50.32C43.58 49.54 44.75 49.16 45.98 49.16C47.7 49.16 49.26 50.05 50.15 51.49C50.15 51.46 50.15 51.19 50.15 51.16C50.15 50.16 50.15 50.1 49.87 49.16C49.26 47.32 47.7 46.04 45.98 45.48C48.7 41.03 49.76 37.92 50.26 32.75C50.27 32.28 50.33 29.92 50.43 25.68C50.33 22.41 50.27 20.6 50.26 20.23C50.2 20.07 50.2 19.9 50.2 19.79C50.2 17.95 51.15 16.34 52.76 15.45C54.1 14.73 55.21 14.45 56.71 14.45C55.32 13.45 53.93 13 52.2 13C49.7 13 47.31 14.22 45.87 16.28Z" id="a1FGFf0yq9"></path><path d="M35.85 13L42.72 19.87L38.87 23.72L32 16.85L25.13 23.72L21.28 19.87L28.15 13L21.28 6.13L25.13 2.28L32 9.15L38.87 2.28L42.72 6.13L35.85 13Z" id="a1UkdQRWo"></path></defs><g><g><g><use xlink:href="#b30ziqCc0f" opacity="1" fill="#c619ff" fill-opacity="1"></use></g><g><use xlink:href="#ecEjutB5Z" opacity="1" fill="#ffffff" fill-opacity="1"></use></g><g><use xlink:href="#a1FGFf0yq9" opacity="1" fill="#ffffff" fill-opacity="1"></use></g><g><use xlink:href="#a1UkdQRWo" opacity="1" fill="#ff2a2a" fill-opacity="1"></use></g></g></g></svg>