<?xml version="1.0" encoding="UTF-8" standalone="no"?>
<!DOCTYPE svg PUBLIC "-//W3C//DTD SVG 1.1//EN" "http://www.w3.org/Graphics/SVG/1.1/DTD/svg11.dtd">
<svg version="1.1" xmlns="http://www.w3.org/2000/svg" xmlns:xlink="http://www.w3.org/1999/xlink" preserveAspectRatio="xMidYMid meet" viewBox="0 0 64 64" width="64" height="64"><defs><path d="M64 32C64 49.66 49.66 64 32 64C14.34 64 0 49.66 0 32C0 14.34 14.34 0 32 0C49.66 0 64 14.34 64 32Z" id="b30ziqCc0f"></path><path d="M27.3 58.95C27.55 58.95 27.8 58.91 28.04 58.85C29.35 58.5 30.31 57.28 30.29 55.86C30.28 55.2 30.22 51.9 30.12 45.97L23.98 42.42L24.2 55.96C25.15 57.98 26.18 58.97 27.3 58.95ZM20.61 21.97C20.6 21.14 19.91 20.49 19.05 20.51C14.76 20.62 11.31 24.07 11.33 28.2C11.34 29.17 11.42 36.87 11.43 37.83C11.43 38.66 12.13 39.31 12.99 39.29C13.61 39.27 18.58 39.14 19.2 39.13C20.06 39.1 20.75 38.42 20.75 37.59C20.72 34.46 20.62 23.53 20.61 21.97ZM41.41 20.62C40.6 20.84 40.12 21.68 40.33 22.49C40.36 22.59 40.49 23.08 40.73 23.96L37.54 24.81C34.27 22.92 32.45 21.88 32.09 21.67C30.8 20.92 29.29 20.72 27.85 21.11C25.37 21.77 23.67 24.03 23.71 26.6C23.73 27.65 23.87 36.1 23.89 37.15C23.91 38.22 24.48 39.2 25.41 39.74C26.08 40.12 29.44 42.07 35.49 45.56C36.72 50.12 37.39 52.65 37.53 53.16C37.96 54.78 39.63 55.74 41.26 55.31C42.88 54.87 43.84 53.2 43.41 51.58C43.2 50.82 41.57 44.74 41.37 43.98C40.95 42.41 39.94 41.1 38.54 40.29C37.99 39.98 33.63 37.46 33.08 37.14C33.09 37.09 33.11 37.05 33.11 37C33.1 36.48 33.05 33.88 32.98 29.2C34.54 30.11 35.41 30.61 35.59 30.71C36.29 31.11 37.12 31.22 37.89 31.02C38.19 30.94 39.66 30.54 42.3 29.83C45.84 43.06 47.81 50.4 48.21 51.87C48.42 52.68 49.26 53.16 50.07 52.95C50.22 52.91 51.39 52.59 51.54 52.55C52.35 52.34 52.83 51.5 52.61 50.69C51.83 47.75 45.53 24.25 44.74 21.31C44.52 20.49 43.69 20.01 42.88 20.23C42.59 20.31 41.56 20.59 41.41 20.62ZM32.78 11.92C32.13 9.48 29.62 8.04 27.19 8.69C24.76 9.34 23.31 11.84 23.96 14.28C24.62 16.71 27.12 18.16 29.55 17.5C31.99 16.85 33.43 14.35 32.78 11.92Z" id="a1i3edlTvJ"></path><path d="M35.85 13.65L42.72 20.52L38.87 24.36L32 17.49L25.13 24.36L21.28 20.52L28.15 13.65L21.28 6.77L25.13 2.93L32 9.8L38.87 2.93L42.72 6.77L35.85 13.65Z" id="bigClil8C"></path></defs><g><g><g><use xlink:href="#b30ziqCc0f" opacity="1" fill="#c619ff" fill-opacity="1"></use></g><g><use xlink:href="#a1i3edlTvJ" opacity="1" fill="#ffffff" fill-opacity="1"></use></g><g><use xlink:href="#bigClil8C" opacity="1" fill="#ff2a2a" fill-opacity="1"></use></g></g></g></svg>