<?xml version="1.0" encoding="UTF-8" standalone="no"?>
<!DOCTYPE svg PUBLIC "-//W3C//DTD SVG 1.1//EN" "http://www.w3.org/Graphics/SVG/1.1/DTD/svg11.dtd">
<svg version="1.1" xmlns="http://www.w3.org/2000/svg" xmlns:xlink="http://www.w3.org/1999/xlink" preserveAspectRatio="xMidYMid meet" viewBox="0 0 64 64" width="64" height="64"><defs><path d="M64 32C64 49.66 49.66 64 32 64C14.34 64 0 49.66 0 32C0 14.34 14.34 0 32 0C49.66 0 64 14.34 64 32Z" id="c10gjEN9wd"></path><path d="M16.06 21.73C16.06 12.87 23.2 5.68 32 5.68C40.8 5.68 47.94 12.87 47.94 21.73C41.56 21.73 19.25 21.73 16.06 21.73ZM11.05 50.4C10.19 50.4 9.5 51.09 9.5 51.94C9.5 52.8 10.19 53.49 11.05 53.49C15.24 53.49 48.76 53.49 52.95 53.49C53.81 53.49 54.5 52.8 54.5 51.94C54.5 51.09 53.81 50.4 52.95 50.4C44.57 50.4 15.24 50.4 11.05 50.4ZM17.53 25.7C15.93 25.7 15.05 25.7 14.87 25.7C14.02 25.7 13.33 25.01 13.33 24.15C13.33 23.3 14.02 22.61 14.87 22.61C18.3 22.61 45.7 22.61 49.13 22.61C49.98 22.61 50.67 23.3 50.67 24.15C50.67 25.01 49.98 25.7 49.13 25.7C48.95 25.7 48.07 25.7 46.47 25.7L46.47 46.24C48.07 46.24 48.95 46.24 49.13 46.24C49.98 46.24 50.67 46.93 50.67 47.78C50.67 48.64 49.98 49.33 49.13 49.33C45.7 49.33 18.3 49.33 14.87 49.33C14.02 49.33 13.33 48.64 13.33 47.78C13.33 46.93 14.02 46.24 14.87 46.24C15.05 46.24 15.93 46.24 17.53 46.24L17.53 25.7ZM34.76 25.7L29.24 25.7L29.24 46.24L34.76 46.24L34.76 25.7ZM37.86 25.7L37.86 46.24L43.38 46.24L43.38 25.7L37.86 25.7ZM26.14 46.24L26.14 25.7L20.62 25.7L20.62 46.24L26.14 46.24Z" id="a9h7FCE71"></path><path d="M35.85 11.96L42.72 18.83L38.87 22.68L32 15.8L25.13 22.68L21.28 18.83L28.15 11.96L21.28 5.09L25.13 1.24L32 8.11L38.87 1.24L42.72 5.09L35.85 11.96Z" id="a1Yj4wq5zG"></path></defs><g><g><g><use xlink:href="#c10gjEN9wd" opacity="1" fill="#ff7119" fill-opacity="1"></use></g><g><use xlink:href="#a9h7FCE71" opacity="1" fill="#ffffff" fill-opacity="1"></use><g><use xlink:href="#a9h7FCE71" opacity="1" fill-opacity="0" stroke="#000000" stroke-width="1" stroke-opacity="0"></use></g></g><g><use xlink:href="#a1Yj4wq5zG" opacity="1" fill="#ff2a2a" fill-opacity="1"></use></g></g></g></svg>