<?xml version="1.0" encoding="UTF-8" standalone="no"?>
<!DOCTYPE svg PUBLIC "-//W3C//DTD SVG 1.1//EN" "http://www.w3.org/Graphics/SVG/1.1/DTD/svg11.dtd">
<svg version="1.1" xmlns="http://www.w3.org/2000/svg" xmlns:xlink="http://www.w3.org/1999/xlink" preserveAspectRatio="xMidYMid meet" viewBox="0 0 64 64" width="64" height="64"><defs><path d="M63.97 33.32L63.89 34.62L63.76 35.91L63.58 37.19L63.35 38.45L63.07 39.69L62.74 40.91L62.37 42.11L61.95 43.29L61.48 44.45L60.98 45.59L60.43 46.7L59.83 47.79L59.2 48.85L58.53 49.89L57.82 50.89L57.08 51.87L56.29 52.82L55.48 53.74L54.62 54.62L53.74 55.48L52.82 56.29L51.87 57.08L50.89 57.82L49.89 58.53L48.85 59.2L47.79 59.83L46.7 60.43L45.59 60.98L44.45 61.48L43.29 61.95L42.11 62.37L40.91 62.74L39.69 63.07L38.45 63.35L37.19 63.58L35.91 63.76L34.62 63.89L33.32 63.97L32 64L30.68 63.97L29.38 63.89L28.09 63.76L26.81 63.58L25.55 63.35L24.31 63.07L23.09 62.74L21.89 62.37L20.71 61.95L19.55 61.48L18.41 60.98L17.3 60.43L16.21 59.83L15.15 59.2L14.11 58.53L13.11 57.82L12.13 57.08L11.18 56.29L10.26 55.48L9.38 54.62L8.52 53.74L7.71 52.82L6.92 51.87L6.18 50.89L5.47 49.89L4.8 48.85L4.17 47.79L3.57 46.7L3.02 45.59L2.52 44.45L2.05 43.29L1.63 42.11L1.26 40.91L0.93 39.69L0.65 38.45L0.42 37.19L0.24 35.91L0.11 34.62L0.03 33.32L0 32L0.03 30.68L0.11 29.38L0.24 28.09L0.42 26.81L0.65 25.55L0.93 24.31L1.26 23.09L1.63 21.89L2.05 20.71L2.52 19.55L3.02 18.41L3.57 17.3L4.17 16.21L4.8 15.15L5.47 14.11L6.18 13.11L6.92 12.13L7.71 11.18L8.52 10.26L9.38 9.38L10.26 8.52L11.18 7.71L12.13 6.92L13.11 6.18L14.11 5.47L15.15 4.8L16.21 4.17L17.3 3.57L18.41 3.02L19.55 2.52L20.71 2.05L21.89 1.63L23.09 1.26L24.31 0.93L25.55 0.65L26.81 0.42L28.09 0.24L29.38 0.11L30.68 0.03L32 0L33.32 0.03L34.62 0.11L35.91 0.24L37.19 0.42L38.45 0.65L39.69 0.93L40.91 1.26L42.11 1.63L43.29 2.05L44.45 2.52L45.59 3.02L46.7 3.57L47.79 4.17L48.85 4.8L49.89 5.47L50.89 6.18L51.87 6.92L52.82 7.71L53.74 8.52L54.62 9.38L55.48 10.26L56.29 11.18L57.08 12.13L57.82 13.11L58.53 14.11L59.2 15.15L59.83 16.21L60.43 17.3L60.98 18.41L61.48 19.55L61.95 20.71L62.37 21.89L62.74 23.09L63.07 24.31L63.35 25.55L63.58 26.81L63.76 28.09L63.89 29.38L63.97 30.68L64 32L64 32L63.97 33.32Z" id="c13iPq6I4d"></path><path d="M65.3 -12.72L72.17 -5.85L68.33 -2L61.45 -8.87L54.58 -2L50.74 -5.85L57.61 -12.72L50.74 -19.59L54.58 -23.44L61.45 -16.57L68.33 -23.44L72.17 -19.59L65.3 -12.72Z" id="a1wLwHecqe"></path><path d="M49.77 47.69L49.77 45.71L48.28 45.71L48.28 24L49.77 24L49.77 20.05L52.73 20.05L32 10.18L11.27 20.05L14.23 20.05L14.23 24L15.72 24L15.72 45.71L14.23 45.71L14.23 47.69L12.75 47.69L12.75 49.66L11.27 49.66L11.27 51.64L52.73 51.64L52.73 49.66L51.25 49.66L51.25 47.69L49.77 47.69ZM18.67 45.71L18.67 24L23.12 24L23.12 45.71L18.67 45.71ZM26.08 45.71L26.08 24L30.52 24L30.52 45.71L26.08 45.71ZM33.48 45.71L33.48 24L37.92 24L37.92 45.71L33.48 45.71ZM40.88 45.71L40.88 24L45.33 24L45.33 45.71L40.88 45.71Z" id="b2kpI0WiN6"></path></defs><g><g><g><use xlink:href="#c13iPq6I4d" opacity="1" fill="#ff7119" fill-opacity="1"></use></g><g><use xlink:href="#a1wLwHecqe" opacity="1" fill="#ff2a2a" fill-opacity="1"></use></g><g><use xlink:href="#b2kpI0WiN6" opacity="1" fill="#ffffff" fill-opacity="1"></use></g></g></g></svg>