<?xml version="1.0" encoding="UTF-8" standalone="no"?>
<!DOCTYPE svg PUBLIC "-//W3C//DTD SVG 1.1//EN" "http://www.w3.org/Graphics/SVG/1.1/DTD/svg11.dtd">
<svg version="1.1" xmlns="http://www.w3.org/2000/svg" xmlns:xlink="http://www.w3.org/1999/xlink" preserveAspectRatio="xMidYMid meet" viewBox="0 0 64 64" width="64" height="64"><defs><path d="M63.97 33.32L63.89 34.62L63.76 35.91L63.58 37.19L63.35 38.45L63.07 39.69L62.74 40.91L62.37 42.11L61.95 43.29L61.48 44.45L60.98 45.59L60.43 46.7L59.83 47.79L59.2 48.85L58.53 49.89L57.82 50.89L57.08 51.87L56.29 52.82L55.48 53.74L54.62 54.62L53.74 55.48L52.82 56.29L51.87 57.08L50.89 57.82L49.89 58.53L48.85 59.2L47.79 59.83L46.7 60.43L45.59 60.98L44.45 61.48L43.29 61.95L42.11 62.37L40.91 62.74L39.69 63.07L38.45 63.35L37.19 63.58L35.91 63.76L34.62 63.89L33.32 63.97L32 64L30.68 63.97L29.38 63.89L28.09 63.76L26.81 63.58L25.55 63.35L24.31 63.07L23.09 62.74L21.89 62.37L20.71 61.95L19.55 61.48L18.41 60.98L17.3 60.43L16.21 59.83L15.15 59.2L14.11 58.53L13.11 57.82L12.13 57.08L11.18 56.29L10.26 55.48L9.38 54.62L8.52 53.74L7.71 52.82L6.92 51.87L6.18 50.89L5.47 49.89L4.8 48.85L4.17 47.79L3.57 46.7L3.02 45.59L2.52 44.45L2.05 43.29L1.63 42.11L1.26 40.91L0.93 39.69L0.65 38.45L0.42 37.19L0.24 35.91L0.11 34.62L0.03 33.32L0 32L0.03 30.68L0.11 29.38L0.24 28.09L0.42 26.81L0.65 25.55L0.93 24.31L1.26 23.09L1.63 21.89L2.05 20.71L2.52 19.55L3.02 18.41L3.57 17.3L4.17 16.21L4.8 15.15L5.47 14.11L6.18 13.11L6.92 12.13L7.71 11.18L8.52 10.26L9.38 9.38L10.26 8.52L11.18 7.71L12.13 6.92L13.11 6.18L14.11 5.47L15.15 4.8L16.21 4.17L17.3 3.57L18.41 3.02L19.55 2.52L20.71 2.05L21.89 1.63L23.09 1.26L24.31 0.93L25.55 0.65L26.81 0.42L28.09 0.24L29.38 0.11L30.68 0.03L32 0L33.32 0.03L34.62 0.11L35.91 0.24L37.19 0.42L38.45 0.65L39.69 0.93L40.91 1.26L42.11 1.63L43.29 2.05L44.45 2.52L45.59 3.02L46.7 3.57L47.79 4.17L48.85 4.8L49.89 5.47L50.89 6.18L51.87 6.92L52.82 7.71L53.74 8.52L54.62 9.38L55.48 10.26L56.29 11.18L57.08 12.13L57.82 13.11L58.53 14.11L59.2 15.15L59.83 16.21L60.43 17.3L60.98 18.41L61.48 19.55L61.95 20.71L62.37 21.89L62.74 23.09L63.07 24.31L63.35 25.55L63.58 26.81L63.76 28.09L63.89 29.38L63.97 30.68L64 32L64 32L63.97 33.32Z" id="b1cyWeIoeN"></path><path d="M55.78 -11.08L62.65 -4.21L58.81 -0.36L51.94 -7.23L45.07 -0.36L41.22 -4.21L48.09 -11.08L41.22 -17.95L45.07 -21.8L51.94 -14.93L58.81 -21.8L62.65 -17.95L55.78 -11.08Z" id="c53AWm99o"></path><path d="M21.98 16.53L21.98 16.76L21.98 16.99L21.98 17.22L21.98 17.45L21.98 17.68L21.98 17.91L21.98 18.14L21.98 18.37L21.98 18.6L21.98 18.83L21.98 19.06L21.98 19.29L21.98 19.52L21.98 19.75L21.98 19.98L21.98 20.21L21.98 20.44L21.98 20.67L21.98 21.13L21.98 21.36L21.98 21.59L21.98 21.82L21.98 22.05L21.98 22.28L21.98 22.51L21.98 22.74L21.98 22.97L21.98 23.2L21.98 23.43L21.98 23.66L21.98 23.89L21.98 24.12L21.98 24.35L21.98 24.58L21.98 24.81L21.99 25.04L21.99 25.27L22.01 25.27L22.05 25.27L22.1 25.28L22.12 25.28L22.16 25.28L22.2 25.28L22.25 25.28L22.27 25.28L22.31 25.28L22.36 25.28L22.4 25.28L22.44 25.29L22.49 25.29L22.51 25.29L22.55 25.29L22.6 25.29L22.64 25.29L22.66 25.29L22.7 25.29L22.73 25.29L22.77 25.29L22.79 25.29L22.84 25.29L22.86 25.29L22.86 25.36L22.86 25.42L22.86 25.48L22.86 25.54L22.86 25.6L22.86 25.66L22.86 25.71L22.86 25.76L22.86 25.81L22.86 25.86L22.86 25.9L22.85 25.98L22.85 26.02L22.85 26.06L22.85 26.1L22.85 26.13L22.85 26.16L22.85 26.19L22.85 26.22L22.85 26.25L22.85 26.28L22.86 26.3L22.86 26.33L22.86 26.35L22.86 26.37L22.86 26.39L22.86 26.41L22.87 26.43L22.87 26.45L22.87 26.47L22.88 26.49L22.88 26.51L22.89 26.52L22.89 26.54L22.9 26.56L22.9 26.57L22.91 26.59L22.92 26.61L22.93 26.62L22.95 26.67L22.97 26.72L22.99 26.76L23 26.81L23.02 26.85L23.03 26.89L23.04 26.93L23.05 26.97L23.06 27.01L23.07 27.05L23.08 27.09L23.08 27.13L23.09 27.17L23.09 27.21L23.09 27.25L23.09 27.3L23.09 27.34L23.09 27.38L23.09 27.43L23.09 27.47L23.09 27.52L23.09 27.57L23.08 27.62L23.08 27.68L23.08 27.73L23.08 27.79L23.08 27.85L23.07 27.91L23.07 27.98L23.07 28.05L23.07 28.12L23.07 28.2L23.07 28.28L23.07 28.36L23.07 28.45L23.08 28.55L23.08 28.64L23.09 28.74L23.09 28.85L23.1 28.96L23.15 28.96L23.18 28.96L23.24 28.96L23.29 28.96L23.35 28.96L23.4 28.96L23.46 28.96L23.52 28.96L23.57 28.96L23.6 28.96L23.65 28.96L23.71 28.96L23.77 28.96L23.82 28.96L23.88 28.96L23.9 28.96L23.96 28.96L24.02 28.96L24.07 28.96L24.15 28.96L24.21 28.96L24.21 28.89L24.21 28.83L24.21 28.76L24.21 28.69L24.21 28.63L24.21 28.56L24.21 28.49L24.21 28.42L24.21 28.36L24.21 28.29L24.21 28.22L24.21 28.16L24.21 28.09L24.21 28.02L24.21 27.95L24.21 27.89L24.21 27.82L24.21 27.69L24.21 27.62L24.21 27.55L24.21 27.48L24.21 27.42L24.21 27.35L24.21 27.28L24.21 27.21L24.21 27.15L24.21 27.08L24.21 27.01L24.21 26.95L24.21 26.88L24.21 26.81L24.21 26.74L24.21 26.68L24.21 26.61L24.21 26.54L24.22 26.48L24.22 26.41L24.22 26.34L24.22 26.27L24.25 26.27L24.29 26.27L24.34 26.26L24.39 26.26L24.45 26.26L24.55 26.25L24.58 26.25L24.64 26.25L24.64 26.2L24.64 26.13L24.65 26.01L24.65 25.96L24.66 25.91L24.66 25.88L24.66 25.83L24.66 25.81L24.66 25.78L24.68 25.78L24.7 25.78L24.72 25.78L24.74 25.78L24.76 25.78L24.78 25.78L24.8 25.78L24.82 25.78L24.84 25.77L24.86 25.77L24.88 25.77L24.9 25.77L24.92 25.77L24.94 25.77L24.96 25.77L24.98 25.77L25 25.77L25.02 25.77L25.04 25.77L25.06 25.77L25.08 25.77L25.1 25.77L25.11 25.77L25.13 25.77L25.15 25.77L25.17 25.77L25.19 25.77L25.21 25.77L25.23 25.77L25.25 25.77L25.27 25.78L25.29 25.78L25.31 25.78L25.33 25.78L25.35 25.78L25.37 25.78L25.39 25.78L25.41 25.78L25.43 25.78L25.45 25.78L25.45 25.66L25.45 25.54L25.45 25.46L25.45 25.4L25.46 25.32L25.46 25.24L25.46 25.2L25.46 25.17L25.51 25.16L25.57 25.16L25.66 25.16L25.73 25.16L25.8 25.16L25.84 25.15L25.92 25.15L26.01 25.15L26.02 25.15L26.03 25.08L26.03 25.02L26.03 24.97L26.04 24.92L26.04 24.87L26.04 24.84L26.05 24.8L26.05 24.76L26.07 24.76L26.09 24.76L26.1 24.76L26.12 24.76L26.14 24.76L26.16 24.76L26.18 24.76L26.2 24.76L26.22 24.76L26.27 24.75L26.29 24.75L26.31 24.75L26.33 24.75L26.35 24.75L26.36 24.75L26.38 24.75L26.4 24.75L26.42 24.75L26.44 24.75L26.46 24.75L26.48 24.75L26.49 24.75L26.51 24.75L26.53 24.75L26.55 24.75L26.57 24.75L26.59 24.76L26.61 24.76L26.62 24.76L26.64 24.76L26.66 24.77L26.68 24.77L26.7 24.77L26.71 24.78L26.73 24.78L26.75 24.79L26.77 24.79L26.79 24.8L26.81 24.81L26.83 24.83L26.85 24.85L26.87 24.86L26.89 24.88L26.91 24.9L26.93 24.91L26.94 24.93L26.96 24.95L26.98 24.97L27 24.99L27.02 25L27.03 25.02L27.05 25.04L27.07 25.06L27.08 25.08L27.1 25.1L27.12 25.12L27.14 25.14L27.15 25.16L27.19 25.2L27.2 25.22L27.22 25.24L27.24 25.26L27.25 25.28L27.27 25.3L27.29 25.32L27.3 25.34L27.32 25.36L27.34 25.38L27.36 25.4L27.37 25.42L27.39 25.44L27.41 25.46L27.43 25.47L27.45 25.49L27.47 25.51L27.49 25.53L27.51 25.54L27.52 25.55L27.53 25.55L27.53 25.56L27.54 25.56L27.55 25.57L27.56 25.57L27.57 25.57L27.58 25.58L27.59 25.58L27.6 25.58L27.61 25.59L27.62 25.59L27.63 25.59L27.64 25.59L27.65 25.6L27.66 25.6L27.67 25.6L27.68 25.6L27.69 25.6L27.7 25.6L27.71 25.61L27.72 25.61L27.74 25.61L27.76 25.61L27.78 25.62L27.8 25.62L27.82 25.62L27.83 25.62L27.85 25.62L27.87 25.63L27.88 25.63L27.89 25.63L27.9 25.63L27.9 25.72L27.9 25.8L27.9 25.88L27.9 25.96L27.9 26.05L27.9 26.13L27.9 26.21L27.9 26.3L27.9 26.38L27.9 26.46L27.9 26.55L27.9 26.63L27.9 26.71L27.9 26.8L27.9 27.13L27.9 27.21L27.9 27.29L27.9 27.38L27.9 27.46L27.9 27.54L27.9 27.63L27.9 27.71L27.9 27.79L27.9 27.88L27.9 27.96L27.9 28.04L27.9 28.13L27.9 28.21L27.9 28.29L27.9 28.38L27.9 28.46L27.9 28.54L27.9 28.62L27.9 28.71L27.9 28.79L27.91 28.87L27.91 28.96L27.93 28.96L27.98 28.96L28.02 28.96L28.05 28.96L28.09 28.96L28.14 28.96L28.18 28.96L28.21 28.96L28.25 28.96L28.32 28.96L28.35 28.96L28.39 28.96L28.44 28.96L28.49 28.96L28.51 28.96L28.56 28.96L28.6 28.96L28.65 28.96L28.69 28.96L28.74 28.96L28.79 28.96L28.83 28.95L28.84 28.89L28.84 28.82L28.84 28.75L28.84 28.68L28.84 28.61L28.85 28.55L28.85 28.48L28.85 28.41L28.85 28.34L28.85 28.27L28.85 28.2L28.85 28.14L28.85 28.07L28.85 28L28.85 27.93L28.85 27.86L28.85 27.79L28.85 27.73L28.85 27.66L28.85 27.59L28.85 27.52L28.85 27.45L28.85 27.38L28.85 27.32L28.85 27.25L28.85 27.18L28.85 27.11L28.85 27.04L28.85 26.98L28.85 26.91L28.85 26.84L28.85 26.77L28.85 26.7L28.85 26.63L28.85 26.57L28.85 26.5L28.85 26.43L28.86 26.36L28.86 26.29L28.86 26.22L28.88 26.22L28.92 26.22L28.96 26.22L29.01 26.22L29.1 26.21L29.14 26.21L29.17 26.21L29.23 26.21L29.26 26.2L29.27 26.2L29.28 26.16L29.28 26.12L29.29 26.07L29.3 26.03L29.31 25.96L29.31 25.9L29.32 25.87L29.32 25.85L29.34 25.85L29.38 25.85L29.39 25.85L29.43 25.85L29.45 25.85L29.48 25.85L29.5 25.85L29.54 25.85L29.56 25.85L29.59 25.85L29.61 25.85L29.65 25.85L29.68 25.85L29.72 25.85L29.76 25.85L29.78 25.85L29.81 25.85L29.83 25.85L29.87 25.85L29.9 25.85L29.94 25.85L29.96 25.85L29.99 25.85L30.01 25.85L30.05 25.85L30.06 26L30.06 26.07L30.06 26.13L30.06 26.16L30.07 26.22L30.07 26.27L30.13 26.28L30.18 26.28L30.37 26.3L30.46 26.31L30.46 26.35L30.46 26.38L30.46 26.42L30.46 26.46L30.46 26.49L30.46 26.53L30.46 26.57L30.46 26.6L30.46 26.64L30.46 26.71L30.46 26.78L30.46 26.86L30.46 26.97L30.46 27.04L30.46 27.11L30.46 27.19L30.46 27.22L30.46 27.26L30.46 27.3L30.46 27.33L30.46 27.37L30.46 27.41L30.46 27.44L30.46 27.48L30.46 27.52L30.46 27.55L30.46 27.59L30.46 27.63L30.47 27.66L30.47 27.7L30.47 27.74L30.47 27.77L30.51 27.74L30.54 27.7L30.57 27.67L30.61 27.64L30.64 27.62L30.66 27.59L30.69 27.56L30.72 27.54L30.74 27.52L30.76 27.49L30.78 27.47L30.8 27.44L30.82 27.41L30.84 27.38L30.85 27.35L30.86 27.31L30.88 27.28L30.89 27.23L30.9 27.19L30.91 27.14L30.92 27.08L30.92 27.02L30.93 26.95L30.93 26.88L30.94 26.8L30.94 26.71L30.94 26.62L30.95 26.51L30.95 26.4L30.95 26.28L30.95 26.16L30.95 26.02L30.95 25.87L30.95 25.71L30.94 25.54L30.94 25.36L30.94 25.17L30.94 24.96L30.93 24.75L30.93 24.52L30.95 24.52L30.96 24.52L30.98 24.52L31.01 24.52L31.03 24.52L31.07 24.52L31.13 24.51L31.17 24.51L31.19 24.51L31.2 24.51L31.24 24.51L31.26 24.51L31.27 24.51L31.29 24.51L31.31 24.51L31.34 24.51L31.36 24.51L31.38 24.51L31.39 24.51L31.41 24.51L31.43 24.51L31.44 24.51L31.46 24.51L31.48 24.51L31.5 24.51L31.51 24.52L31.53 24.52L31.55 24.52L31.56 24.52L31.58 24.52L31.6 24.52L31.61 24.53L31.65 24.53L31.68 24.54L31.72 24.55L31.74 24.57L31.77 24.58L31.8 24.6L31.82 24.62L31.84 24.64L31.86 24.67L31.87 24.69L31.89 24.72L31.9 24.75L31.91 24.78L31.92 24.82L31.93 24.85L31.94 24.89L31.95 24.93L31.95 24.97L31.96 25.01L31.96 25.05L31.96 25.1L31.96 25.14L31.96 25.19L31.96 25.24L31.96 25.29L31.96 25.34L31.96 25.39L31.96 25.44L31.96 25.49L31.96 25.55L31.96 25.6L31.96 25.65L31.95 25.71L31.95 25.76L31.95 25.82L31.95 25.88L31.95 25.93L31.95 25.99L31.96 26.05L31.96 26.1L31.96 26.13L31.96 26.16L31.96 26.18L31.97 26.21L31.97 26.23L31.98 26.25L31.99 26.28L32 26.3L32.01 26.32L32.02 26.34L32.04 26.36L32.05 26.38L32.06 26.4L32.08 26.42L32.09 26.44L32.11 26.45L32.13 26.47L32.14 26.49L32.16 26.51L32.19 26.54L32.21 26.56L32.23 26.58L32.24 26.6L32.26 26.62L32.28 26.63L32.29 26.65L32.3 26.67L32.32 26.69L32.33 26.71L32.34 26.73L32.35 26.75L32.36 26.78L32.37 26.8L32.38 26.82L32.39 26.85L32.39 26.87L32.39 26.9L32.4 26.92L32.4 26.95L32.4 27L32.4 27.05L32.4 27.1L32.4 27.15L32.4 27.2L32.4 27.25L32.4 27.3L32.4 27.35L32.4 27.4L32.4 27.45L32.4 27.5L32.4 27.55L32.4 27.6L32.4 27.65L32.4 27.7L32.4 27.75L32.4 27.8L32.4 27.85L32.4 27.9L32.4 28L32.4 28.15L32.4 28.2L32.4 28.25L32.4 28.3L32.4 28.35L32.4 28.4L32.4 28.45L32.4 28.5L32.4 28.56L32.4 28.61L32.4 28.66L32.4 28.71L32.4 28.76L32.4 28.81L32.4 28.86L32.4 28.91L32.4 28.96L32.42 28.96L32.47 28.96L32.51 28.96L32.53 28.96L32.58 28.96L32.6 28.96L32.65 28.96L32.67 28.96L32.72 28.96L32.74 28.96L32.78 28.96L32.81 28.96L32.85 28.96L32.9 28.96L32.94 28.96L32.99 28.96L33.01 28.96L33.06 28.96L33.08 28.96L33.12 28.96L33.15 28.96L33.19 28.96L33.21 28.96L33.26 28.96L33.28 28.96L33.31 28.96L33.31 28.83L33.31 28.7L33.31 28.58L33.31 28.45L33.31 28.32L33.31 28.19L33.31 28.07L33.31 27.94L33.31 27.81L33.31 27.69L33.31 27.56L33.31 27.43L33.31 27.3L33.31 27.18L33.31 27.05L33.31 26.92L33.31 26.8L33.31 26.67L33.31 26.54L33.31 26.42L33.31 26.29L33.31 26.16L33.31 26.03L33.31 25.78L33.31 25.53L33.31 25.4L33.31 25.27L33.31 25.14L33.31 25.02L33.31 24.89L33.31 24.76L33.31 24.64L33.31 24.51L33.31 24.38L33.31 24.25L33.31 24.13L33.31 24L33.31 23.87L33.34 23.87L33.37 23.87L33.4 23.87L33.45 23.87L33.48 23.87L33.51 23.87L33.54 23.87L33.59 23.87L33.62 23.87L33.65 23.87L33.71 23.87L33.74 23.87L33.76 23.87L33.82 23.87L33.85 23.87L33.91 23.87L33.93 23.87L33.99 23.87L34.02 23.87L34.07 23.87L34.13 23.87L34.16 23.87L34.22 23.87L34.27 23.87L34.33 23.87L34.39 23.87L34.44 23.87L34.44 23.93L34.44 23.98L34.44 24.04L34.44 24.1L34.44 24.15L34.44 24.21L34.44 24.27L34.44 24.32L34.44 24.38L34.44 24.44L34.44 24.49L34.44 24.55L34.44 24.6L34.44 24.66L34.44 24.77L34.44 24.89L34.44 24.94L34.44 25L34.44 25.05L34.44 25.11L34.44 25.17L34.44 25.22L34.44 25.28L34.44 25.34L34.44 25.39L34.44 25.45L34.44 25.51L34.44 25.56L34.44 25.62L34.44 25.67L34.45 25.73L34.45 25.79L34.45 25.84L34.45 25.9L34.45 25.96L34.45 26.01L34.46 26.07L34.46 26.12L34.51 26.13L34.55 26.13L34.7 26.13L34.74 26.13L34.79 26.14L34.9 26.14L34.96 26.14L34.99 26.14L34.99 26.17L34.99 26.19L34.99 26.21L34.99 26.23L34.99 26.26L34.99 26.3L34.99 26.33L34.99 26.35L34.99 26.37L34.99 26.39L34.99 26.42L34.99 26.46L34.99 26.49L34.99 26.53L34.99 26.58L34.99 26.6L34.99 26.62L34.99 26.65L34.99 26.67L34.99 26.69L34.99 26.72L34.99 26.76L34.99 26.79L34.99 26.81L34.99 26.83L34.99 26.85L34.99 26.88L34.99 26.9L34.99 26.92L34.99 26.95L34.99 26.97L34.99 26.99L34.99 27.02L34.99 27.04L35 27.06L35 27.08L35 27.09L35 27.11L35.01 27.13L35.01 27.15L35.02 27.16L35.03 27.18L35.04 27.2L35.05 27.22L35.06 27.24L35.07 27.26L35.08 27.28L35.1 27.3L35.11 27.32L35.13 27.34L35.14 27.36L35.16 27.38L35.17 27.4L35.19 27.42L35.21 27.44L35.22 27.46L35.24 27.48L35.26 27.5L35.27 27.52L35.29 27.54L35.31 27.56L35.33 27.57L35.34 27.59L35.36 27.61L35.38 27.62L35.39 27.64L35.41 27.65L35.42 27.66L35.44 27.68L35.45 27.69L35.47 27.7L35.48 27.71L35.49 27.72L35.5 27.72L35.52 27.73L35.54 27.74L35.56 27.75L35.59 27.75L35.61 27.76L35.63 27.76L35.66 27.76L35.68 27.76L35.7 27.76L35.73 27.76L35.75 27.76L35.77 27.75L35.8 27.75L35.82 27.74L35.84 27.73L35.87 27.72L35.89 27.71L35.91 27.7L35.93 27.69L35.95 27.67L35.97 27.66L35.99 27.65L36.01 27.63L36.03 27.61L36.04 27.59L36.06 27.58L36.08 27.56L36.09 27.54L36.11 27.51L36.12 27.49L36.13 27.47L36.14 27.45L36.15 27.42L36.16 27.4L36.17 27.38L36.18 27.35L36.18 27.32L36.19 27.3L36.19 27.27L36.19 27.25L36.2 27.22L36.2 27.19L36.2 27.17L36.2 27.14L36.2 27.12L36.2 27.09L36.2 27.07L36.2 27.04L36.2 27.02L36.2 26.99L36.2 26.97L36.2 26.94L36.2 26.92L36.2 26.89L36.2 26.87L36.2 26.84L36.2 26.82L36.2 26.77L36.2 26.72L36.2 26.62L36.2 26.57L36.2 26.54L36.2 26.52L36.2 26.49L36.19 26.47L36.19 26.44L36.19 26.42L36.19 26.37L36.19 26.34L36.2 26.32L36.2 26.29L36.2 26.27L36.2 26.24L36.2 26.22L36.22 26.22L36.27 26.22L36.32 26.22L36.37 26.22L36.42 26.22L36.47 26.22L36.52 26.22L36.56 26.22L36.61 26.21L36.66 26.21L36.71 26.21L36.74 26.21L36.79 26.21L36.83 26.22L36.88 26.22L36.93 26.22L36.98 26.22L37.03 26.22L37.08 26.22L37.13 26.22L37.18 26.22L37.18 26.24L37.18 26.26L37.18 26.28L37.18 26.3L37.18 26.32L37.18 26.33L37.18 26.35L37.18 26.37L37.17 26.41L37.17 26.45L37.17 26.49L37.17 26.51L37.17 26.53L37.17 26.55L37.17 26.57L37.17 26.59L37.17 26.61L37.17 26.63L37.17 26.64L37.17 26.66L37.17 26.68L37.17 26.7L37.17 26.72L37.17 26.74L37.18 26.76L37.18 26.78L37.18 26.8L37.18 26.82L37.18 26.84L37.18 26.86L37.19 26.88L37.19 26.89L37.19 26.91L37.2 26.93L37.2 26.95L37.2 26.97L37.21 26.99L37.22 27.01L37.23 27.03L37.24 27.05L37.26 27.07L37.27 27.09L37.28 27.11L37.3 27.13L37.31 27.15L37.32 27.17L37.34 27.19L37.35 27.2L37.37 27.22L37.39 27.24L37.4 27.26L37.42 27.27L37.43 27.29L37.45 27.31L37.47 27.32L37.48 27.34L37.52 27.37L37.53 27.39L37.55 27.41L37.57 27.42L37.58 27.44L37.6 27.46L37.61 27.47L37.63 27.49L37.65 27.51L37.66 27.53L37.68 27.54L37.69 27.56L37.71 27.58L37.72 27.6L37.73 27.62L37.75 27.64L37.76 27.66L37.77 27.68L37.78 27.7L37.8 27.72L37.8 27.73L37.8 27.75L37.81 27.76L37.81 27.77L37.82 27.79L37.82 27.8L37.82 27.81L37.82 27.83L37.83 27.84L37.83 27.85L37.83 27.87L37.83 27.88L37.84 27.89L37.84 27.91L37.84 27.92L37.84 27.93L37.84 27.95L37.84 27.96L37.84 27.98L37.85 27.99L37.85 28L37.85 28.02L37.85 28.03L37.85 28.06L37.85 28.07L37.85 28.1L37.85 28.16L37.86 28.18L37.86 28.21L37.86 28.23L37.86 28.24L37.86 28.25L37.86 28.27L37.89 28.27L37.92 28.27L37.96 28.27L37.99 28.27L38.02 28.27L38.05 28.27L38.09 28.27L38.12 28.27L38.15 28.27L38.19 28.27L38.22 28.27L38.25 28.27L38.28 28.27L38.32 28.27L38.35 28.27L38.38 28.27L38.41 28.28L38.45 28.28L38.48 28.28L38.51 28.28L38.54 28.28L38.58 28.28L38.64 28.28L38.67 28.28L38.71 28.28L38.77 28.28L38.84 28.28L38.9 28.27L38.97 28.27L39.03 28.27L39.06 28.27L39.13 28.27L39.16 28.27L39.16 28.23L39.16 28.18L39.16 28.13L39.16 28.08L39.16 28.04L39.16 27.99L39.16 27.94L39.16 27.89L39.16 27.85L39.16 27.8L39.16 27.75L39.16 27.71L39.16 27.66L39.16 27.61L39.16 27.47L39.16 27.37L39.16 27.33L39.16 27.28L39.16 27.23L39.16 27.19L39.16 27.14L39.16 27.09L39.16 27.04L39.16 27L39.16 26.95L39.16 26.9L39.16 26.85L39.16 26.81L39.16 26.76L39.16 26.71L39.16 26.66L39.17 26.62L39.17 26.57L39.17 26.52L39.17 26.48L39.17 26.43L39.17 26.38L39.2 26.38L39.22 26.38L39.25 26.38L39.28 26.38L39.3 26.38L39.36 26.38L39.41 26.38L39.43 26.38L39.49 26.38L39.54 26.38L39.56 26.38L39.62 26.38L39.64 26.38L39.72 26.38L39.85 26.37L39.9 26.37L39.95 26.37L40.01 26.37L40.03 26.37L40.08 26.37L40.11 26.37L40.16 26.37L40.19 26.37L40.21 26.37L40.22 26.34L40.22 26.31L40.22 26.27L40.22 26.21L40.22 26.17L40.22 26.11L40.22 26.07L40.22 26.01L40.22 25.94L40.22 25.84L40.22 25.74L40.22 25.64L40.22 25.54L40.22 25.51L40.22 25.44L40.22 25.41L40.22 25.38L40.22 25.31L40.22 25.28L40.22 25.24L40.22 25.21L40.22 25.18L40.22 25.15L40.22 25.11L40.22 25.08L40.22 25.05L40.27 25.04L40.35 25.04L40.4 25.04L40.48 25.03L40.59 25.03L40.61 25L40.64 24.97L40.66 24.94L40.68 24.91L40.7 24.88L40.72 24.86L40.74 24.84L40.76 24.82L40.77 24.79L40.79 24.78L40.81 24.76L40.82 24.74L40.84 24.72L40.85 24.71L40.87 24.69L40.88 24.68L40.9 24.67L40.91 24.66L40.93 24.64L40.94 24.63L40.95 24.62L40.97 24.61L40.99 24.6L41 24.59L41.02 24.58L41.03 24.57L41.05 24.57L41.07 24.56L41.09 24.55L41.11 24.54L41.13 24.53L41.15 24.52L41.18 24.51L41.2 24.51L41.22 24.5L41.25 24.49L41.28 24.48L41.37 24.44L41.38 24.38L41.38 24.36L41.39 24.33L41.39 24.31L41.39 24.29L41.4 24.28L41.4 24.27L41.4 24.25L41.41 24.24L41.41 24.22L41.41 24.21L41.41 24.21L41.43 24.2L41.43 24.19L41.44 24.19L41.45 24.18L41.46 24.18L41.47 24.17L41.48 24.17L41.48 24.16L41.49 24.16L41.5 24.15L41.51 24.15L41.52 24.15L41.53 24.14L41.55 24.13L41.55 24.13L41.56 24.13L41.59 24.12L41.62 24.1L41.62 24.1L41.64 24.09L41.65 24.09L41.66 24.09L41.66 24.04L41.66 24L41.67 23.96L41.67 23.92L41.67 23.88L41.68 23.84L41.68 23.8L41.68 23.76L41.69 23.72L41.69 23.68L41.7 23.64L41.7 23.59L41.7 23.55L41.71 23.51L41.71 23.47L41.72 23.43L41.72 23.39L41.73 23.35L41.73 23.31L41.74 23.27L41.74 23.23L41.75 23.19L41.75 23.15L41.76 23.11L41.77 23.07L41.77 23.03L41.78 22.99L41.79 22.95L41.79 22.9L41.8 22.86L41.81 22.82L41.81 22.78L41.82 22.74L41.83 22.7L41.84 22.66L41.84 22.62L41.85 22.58L41.86 22.54L41.87 22.5L41.88 22.46L41.87 22.45L41.81 22.39L41.8 22.38L41.78 22.36L41.77 22.35L41.76 22.33L41.74 22.32L41.73 22.31L41.72 22.3L41.71 22.28L41.7 22.27L41.69 22.26L41.68 22.25L41.67 22.23L41.66 22.22L41.65 22.21L41.64 22.2L41.63 22.18L41.62 22.17L41.61 22.16L41.6 22.14L41.59 22.13L41.58 22.12L41.57 22.1L41.57 22.09L41.56 22.07L41.55 22.06L41.54 22.05L41.53 22.03L41.53 22.02L41.52 22L41.51 21.99L41.51 21.97L41.5 21.95L41.49 21.94L41.48 21.91L41.47 21.88L41.46 21.84L41.46 21.81L41.45 21.78L41.44 21.75L41.44 21.72L41.43 21.68L41.43 21.65L41.42 21.62L41.42 21.58L41.42 21.55L41.42 21.52L41.42 21.48L41.43 21.45L41.43 21.42L41.43 21.39L41.44 21.35L41.44 21.32L41.45 21.29L41.46 21.26L41.46 21.22L41.47 21.19L41.48 21.16L41.49 21.13L41.5 21.1L41.52 21.07L41.53 21.04L41.54 21.01L41.56 20.98L41.57 20.95L41.59 20.93L41.61 20.9L41.63 20.87L41.65 20.85L41.67 20.82L41.69 20.8L41.71 20.78L41.73 20.75L41.75 20.73L41.77 20.72L41.78 20.71L41.79 20.7L41.81 20.69L41.82 20.68L41.84 20.67L41.85 20.66L41.87 20.65L41.88 20.64L41.89 20.63L41.91 20.62L41.92 20.61L41.94 20.6L41.95 20.59L41.97 20.58L41.98 20.57L42 20.56L42.01 20.56L42.03 20.55L42.04 20.54L42.06 20.53L42.07 20.52L42.09 20.51L42.1 20.51L42.12 20.5L42.13 20.49L42.15 20.48L42.18 20.46L42.21 20.45L42.27 20.42L42.3 20.4L42.33 20.38L42.35 20.37L42.36 20.37L42.36 20.37L42.37 20.36L42.38 20.36L42.39 20.35L42.4 20.35L42.41 20.35L42.42 20.35L42.42 20.35L42.43 20.35L42.44 20.35L42.45 20.35L42.46 20.35L42.47 20.35L42.48 20.35L42.49 20.35L42.5 20.35L42.5 20.35L42.51 20.35L42.52 20.35L42.53 20.36L42.54 20.36L42.55 20.36L42.56 20.36L42.57 20.37L42.58 20.37L42.58 20.37L42.6 20.38L42.62 20.38L42.63 20.39L42.65 20.39L42.65 20.39L42.66 20.4L42.67 20.4L42.68 20.4L42.69 20.4L42.7 20.41L42.72 20.37L42.75 20.33L42.77 20.29L42.8 20.25L42.82 20.21L42.85 20.17L42.88 20.13L42.9 20.09L42.93 20.05L42.96 20.01L42.98 19.98L43.01 19.94L43.04 19.9L43.06 19.86L43.09 19.83L43.12 19.79L43.15 19.75L43.17 19.71L43.2 19.68L43.23 19.64L43.26 19.6L43.29 19.57L43.32 19.53L43.34 19.49L43.37 19.46L43.4 19.42L43.43 19.39L43.46 19.35L43.49 19.31L43.52 19.28L43.55 19.24L43.58 19.21L43.61 19.17L43.64 19.14L43.67 19.11L43.7 19.07L43.74 19.04L43.77 19L43.8 18.97L43.83 18.94L43.83 18.91L43.83 18.87L43.83 18.85L43.83 18.83L43.83 18.8L43.83 18.78L43.83 18.76L43.83 18.74L43.83 18.72L43.83 18.69L43.83 18.67L43.83 18.65L43.83 18.63L43.83 18.61L43.84 18.58L43.84 18.56L43.84 18.54L43.84 18.52L43.84 18.5L43.85 18.48L43.85 18.45L43.85 18.43L43.86 18.41L43.86 18.39L43.87 18.37L43.87 18.35L43.88 18.33L43.88 18.31L43.89 18.28L43.89 18.26L43.9 18.24L43.91 18.22L43.92 18.2L43.93 18.18L43.93 18.16L43.94 18.15L43.95 18.13L43.97 18.11L43.98 18.09L43.99 18.06L44.01 18.04L44.02 18.02L44.04 17.99L44.05 17.97L44.07 17.95L44.09 17.93L44.11 17.91L44.12 17.89L44.14 17.87L44.16 17.85L44.18 17.84L44.2 17.82L44.22 17.8L44.25 17.79L44.27 17.77L44.29 17.76L44.31 17.74L44.33 17.73L44.36 17.72L44.38 17.7L44.4 17.69L44.43 17.68L44.45 17.67L44.48 17.66L44.5 17.65L44.52 17.64L44.55 17.63L44.57 17.63L44.6 17.62L44.62 17.61L44.65 17.6L44.68 17.6L44.7 17.59L44.73 17.59L44.75 17.58L44.78 17.58L44.8 17.58L44.83 17.58L44.85 17.57L44.87 17.57L44.88 17.57L44.9 17.57L44.91 17.57L44.92 17.58L44.94 17.58L44.95 17.58L44.96 17.58L44.98 17.59L44.99 17.59L45 17.6L45.02 17.6L45.03 17.61L45.04 17.61L45.06 17.62L45.07 17.62L45.08 17.63L45.09 17.63L45.11 17.64L45.12 17.65L45.13 17.65L45.14 17.66L45.16 17.67L45.17 17.68L45.18 17.68L45.19 17.69L45.21 17.7L45.23 17.71L45.27 17.74L45.29 17.75L45.3 17.76L45.31 17.77L45.33 17.78L45.34 17.78L45.35 17.79L45.36 17.8L45.41 17.78L45.45 17.75L45.49 17.73L45.54 17.71L45.58 17.69L45.63 17.67L45.67 17.65L45.72 17.63L45.76 17.61L45.81 17.59L45.85 17.57L45.89 17.55L45.94 17.53L45.98 17.51L46.03 17.5L46.08 17.48L46.12 17.46L46.17 17.44L46.21 17.43L46.26 17.41L46.3 17.39L46.35 17.38L46.4 17.36L46.44 17.35L46.49 17.33L46.53 17.32L46.58 17.31L46.63 17.29L46.67 17.28L46.72 17.27L46.77 17.26L46.81 17.24L46.86 17.23L46.91 17.22L46.96 17.21L47 17.2L47.05 17.19L47.1 17.19L47.15 17.18L47.19 17.17L47.23 17.16L47.26 17.16L47.3 17.15L47.32 17.15L47.35 17.14L47.38 17.13L47.4 17.13L47.42 17.12L47.44 17.11L47.46 17.1L47.48 17.09L47.5 17.09L47.52 17.08L47.53 17.07L47.55 17.05L47.56 17.04L47.58 17.03L47.6 17.02L47.61 17L47.63 16.99L47.65 16.98L47.66 16.96L47.68 16.94L47.7 16.93L47.73 16.91L47.75 16.89L47.78 16.87L47.8 16.85L47.83 16.83L47.86 16.81L47.9 16.79L47.93 16.76L47.97 16.74L48.02 16.71L48.06 16.69L48.11 16.66L48.16 16.63L48.22 16.6L48.28 16.57L48.34 16.54L48.43 16.58L48.5 16.62L48.57 16.66L48.64 16.7L48.7 16.73L48.75 16.76L48.8 16.79L48.84 16.82L48.88 16.85L48.91 16.87L48.94 16.89L48.97 16.91L48.99 16.93L49.01 16.95L49.03 16.97L49.04 16.98L49.06 17L49.07 17.01L49.08 17.02L49.09 17.03L49.1 17.04L49.11 17.05L49.12 17.06L49.13 17.07L49.14 17.08L49.15 17.09L49.17 17.1L49.18 17.11L49.2 17.11L49.22 17.12L49.24 17.13L49.27 17.14L49.3 17.15L49.33 17.16L49.37 17.17L49.42 17.18L49.46 17.2L49.52 17.21L49.58 17.22L49.64 17.24L49.68 17.25L49.72 17.25L49.75 17.26L49.79 17.27L49.83 17.28L49.87 17.29L49.9 17.3L49.94 17.31L49.98 17.32L50.02 17.34L50.05 17.35L50.09 17.36L50.13 17.37L50.17 17.38L50.2 17.4L50.24 17.41L50.28 17.42L50.31 17.44L50.35 17.45L50.39 17.46L50.42 17.48L50.46 17.49L50.5 17.51L50.53 17.52L50.57 17.54L50.61 17.55L50.64 17.57L50.68 17.58L50.71 17.6L50.75 17.62L50.78 17.63L50.82 17.65L50.86 17.67L50.89 17.68L50.93 17.7L50.96 17.72L51 17.74L51.03 17.75L51.07 17.77L51.1 17.79L51.12 17.8L51.14 17.81L51.16 17.82L51.17 17.82L51.19 17.83L51.21 17.83L51.23 17.83L51.24 17.83L51.26 17.83L51.28 17.83L51.29 17.83L51.31 17.82L51.33 17.82L51.34 17.81L51.36 17.81L51.38 17.8L51.39 17.79L51.41 17.79L51.42 17.78L51.44 17.77L51.46 17.76L51.47 17.75L51.49 17.74L51.5 17.73L51.52 17.72L51.53 17.71L51.55 17.7L51.58 17.67L51.6 17.66L51.61 17.65L51.63 17.64L51.64 17.63L51.66 17.62L51.68 17.61L51.69 17.6L51.71 17.59L51.72 17.58L51.74 17.58L51.75 17.57L51.81 17.6L51.87 17.63L51.92 17.66L51.97 17.68L52.02 17.71L52.06 17.74L52.11 17.76L52.15 17.79L52.19 17.82L52.23 17.84L52.26 17.87L52.3 17.9L52.33 17.92L52.36 17.95L52.39 17.98L52.42 18.01L52.45 18.03L52.47 18.06L52.49 18.09L52.52 18.12L52.54 18.15L52.55 18.18L52.57 18.21L52.59 18.24L52.6 18.27L52.62 18.3L52.63 18.33L52.64 18.36L52.65 18.4L52.66 18.43L52.67 18.47L52.68 18.5L52.69 18.54L52.69 18.58L52.7 18.62L52.71 18.66L52.71 18.7L52.71 18.74L52.72 18.78L52.72 18.83L52.72 18.85L52.72 18.88L52.72 18.9L52.73 18.92L52.73 18.94L52.74 18.96L52.74 18.98L52.75 19L52.76 19.02L52.77 19.03L52.78 19.05L52.8 19.07L52.81 19.09L52.83 19.11L52.84 19.13L52.86 19.16L52.88 19.18L52.9 19.2L52.93 19.23L52.95 19.26L52.98 19.29L53.01 19.32L53.04 19.36L53.07 19.4L53.1 19.44L53.14 19.48L53.18 19.53L53.22 19.58L53.26 19.64L53.3 19.7L53.35 19.76L53.4 19.82L53.45 19.89L53.5 19.97L53.55 20.05L53.61 20.13L53.67 20.22L53.73 20.32L53.8 20.42L53.86 20.53L53.89 20.51L53.92 20.49L53.95 20.48L53.98 20.46L54.03 20.43L54.06 20.41L54.08 20.4L54.13 20.37L54.16 20.35L54.2 20.33L54.23 20.32L54.24 20.31L54.24 20.31L54.26 20.32L54.27 20.33L54.29 20.34L54.3 20.35L54.32 20.36L54.33 20.37L54.35 20.37L54.36 20.38L54.38 20.39L54.39 20.4L54.41 20.41L54.42 20.42L54.44 20.43L54.45 20.44L54.47 20.45L54.48 20.46L54.5 20.46L54.51 20.47L54.53 20.48L54.56 20.5L54.62 20.53L54.65 20.55L54.67 20.56L54.7 20.57L54.71 20.58L54.73 20.59L54.74 20.6L54.76 20.61L54.77 20.62L54.79 20.63L54.8 20.64L54.82 20.65L54.83 20.66L54.85 20.66L54.88 20.69L54.91 20.71L54.93 20.73L54.96 20.76L54.99 20.78L55.01 20.81L55.03 20.84L55.05 20.86L55.08 20.89L55.1 20.93L55.11 20.96L55.13 20.99L55.15 21.02L55.16 21.06L55.18 21.09L55.19 21.12L55.2 21.16L55.22 21.2L55.23 21.23L55.23 21.27L55.24 21.31L55.25 21.34L55.25 21.38L55.26 21.42L55.26 21.46L55.26 21.49L55.27 21.53L55.26 21.57L55.26 21.61L55.26 21.65L55.26 21.68L55.25 21.72L55.25 21.76L55.24 21.79L55.23 21.83L55.22 21.87L55.21 21.9L55.19 21.94L55.18 21.97L55.17 22.01L55.16 22.03L55.15 22.04L55.14 22.06L55.13 22.08L55.12 22.1L55.11 22.11L55.1 22.13L55.09 22.15L55.08 22.16L55.07 22.18L55.05 22.19L55.04 22.21L55.03 22.22L55.02 22.24L55.01 22.25L54.99 22.27L54.98 22.28L54.97 22.3L54.95 22.31L54.94 22.32L54.92 22.34L54.91 22.35L54.9 22.36L54.88 22.37L54.87 22.39L54.85 22.4L54.84 22.41L54.82 22.42L54.81 22.43L54.79 22.45L54.78 22.46L54.76 22.47L54.75 22.48L54.73 22.49L54.71 22.5L54.7 22.52L54.68 22.53L54.64 22.56L54.64 22.59L54.65 22.64L54.66 22.69L54.67 22.72L54.68 22.8L54.7 22.86L54.7 22.9L54.72 22.97L54.73 23.05L54.73 23.06L54.8 23.06L54.84 23.06L54.88 23.06L54.93 23.06L55.01 23.06L55.01 23.02L55.01 22.96L55.01 22.9L55.01 22.86L55.02 22.81L55.02 22.77L55.02 22.72L55.02 22.66L55.08 22.66L55.17 22.66L55.24 22.66L55.42 22.66L55.51 22.66L55.51 22.69L55.52 22.74L55.52 22.8L55.52 22.85L55.53 22.89L55.53 22.93L55.53 22.95L55.53 22.96L55.61 22.97L55.7 22.98L55.77 22.99L55.81 22.99L55.85 22.99L55.85 23.14L55.85 23.28L55.86 23.41L55.86 23.53L55.86 23.64L55.86 23.74L55.86 23.84L55.86 23.93L55.86 24.01L55.86 24.09L55.86 24.16L55.85 24.23L55.85 24.29L55.85 24.34L55.85 24.39L55.85 24.44L55.85 24.48L55.85 24.52L55.85 24.56L55.85 24.59L55.85 24.62L55.85 24.65L55.85 24.68L55.85 24.71L55.85 24.74L55.85 24.77L55.86 24.79L55.86 24.82L55.86 24.85L55.87 24.88L55.87 24.91L55.88 24.94L55.89 24.98L55.89 25.02L55.9 25.06L55.91 25.1L55.92 25.15L55.94 25.21L55.95 25.26L55.96 25.33L55.97 25.34L55.97 25.36L55.97 25.38L55.97 25.4L55.98 25.41L55.98 25.43L55.98 25.45L55.98 25.46L55.98 25.48L55.98 25.5L55.98 25.52L55.98 25.53L55.98 25.55L55.98 25.57L55.98 25.58L55.98 25.6L55.98 25.62L55.97 25.64L55.97 25.65L55.97 25.67L55.97 25.69L55.97 25.7L55.96 25.72L55.96 25.74L55.96 25.75L55.95 25.77L55.95 25.79L55.95 25.81L55.94 25.82L55.94 25.84L55.94 25.86L55.93 25.87L55.93 25.91L55.91 25.99L55.91 26.01L55.95 26.01L55.99 26.01L56.03 26.01L56.05 26.01L56.09 26.01L56.13 26.01L56.17 26.01L56.21 26.01L56.25 26.01L56.32 26.01L56.34 26.01L56.38 26.01L56.4 26.01L56.44 26.01L56.46 26.01L56.5 26.01L56.52 26.01L56.56 26.01L56.58 26.01L56.63 26.01L56.65 26.01L56.69 26.01L56.71 26.01L56.73 26.01L56.73 25.98L56.73 25.96L56.73 25.93L56.73 25.91L56.73 25.88L56.73 25.85L56.73 25.83L56.73 25.8L56.73 25.78L56.73 25.75L56.73 25.72L56.72 25.67L56.72 25.64L56.72 25.62L56.72 25.59L56.72 25.56L56.72 25.54L56.72 25.51L56.72 25.48L56.72 25.46L56.72 25.43L56.72 25.4L56.73 25.38L56.73 25.35L56.73 25.33L56.74 25.3L56.74 25.28L56.75 25.25L56.75 25.23L56.76 25.21L56.77 25.18L56.78 25.16L56.79 25.14L56.8 25.11L56.81 25.09L56.82 25.07L56.84 25.05L56.85 25.03L56.87 25.01L56.89 24.99L56.9 24.97L56.92 24.96L56.94 24.94L56.96 24.93L56.97 24.91L56.99 24.9L57.01 24.89L57.03 24.88L57.05 24.87L57.07 24.87L57.09 24.86L57.11 24.85L57.13 24.85L57.16 24.84L57.18 24.84L57.2 24.84L57.22 24.83L57.24 24.83L57.27 24.83L57.29 24.83L57.31 24.83L57.33 24.83L57.36 24.83L57.38 24.83L57.4 24.83L57.43 24.83L57.45 24.83L57.47 24.84L57.52 24.84L57.54 24.84L57.56 24.84L57.58 24.84L57.61 24.84L57.63 24.84L57.65 24.84L57.67 24.84L57.69 24.84L57.71 24.84L57.72 24.94L57.72 25.03L57.72 25.13L57.72 25.23L57.72 25.33L57.72 25.43L57.72 25.53L57.72 25.63L57.72 25.73L57.72 25.83L57.72 25.93L57.72 26.03L57.72 26.13L57.72 26.23L57.72 26.33L57.72 26.42L57.72 26.52L57.72 26.62L57.72 26.71L57.72 26.81L57.72 26.9L57.72 26.99L57.72 27.08L57.72 27.17L57.72 27.26L57.72 27.34L57.72 27.42L57.72 27.5L57.72 27.58L57.72 27.66L57.72 27.73L57.72 27.8L57.72 27.87L57.73 27.93L57.73 27.99L57.73 28.05L57.73 28.1L57.74 28.15L57.74 28.2L57.74 28.24L57.81 28.24L57.86 28.23L57.87 28.23L57.88 28.23L57.99 28.22L58.03 28.22L58.03 28.2L58.04 28.19L58.04 28.17L58.04 28.16L58.04 28.14L58.04 28.11L58.04 28.1L58.04 28.05L58.04 28.02L58.04 28L58.04 27.99L58.04 27.97L58.04 27.96L58.04 27.94L58.04 27.93L58.04 27.91L58.04 27.9L58.04 27.88L58.04 27.87L58.04 27.85L58.04 27.84L58.04 27.82L58.05 27.81L58.05 27.79L58.05 27.78L58.05 27.76L58.05 27.75L58.06 27.73L58.06 27.72L58.06 27.7L58.06 27.69L58.07 27.67L58.07 27.66L58.07 27.64L58.08 27.63L58.08 27.61L58.1 27.58L58.11 27.55L58.13 27.52L58.15 27.49L58.17 27.46L58.18 27.43L58.2 27.41L58.22 27.39L58.24 27.37L58.26 27.35L58.28 27.33L58.3 27.31L58.32 27.3L58.34 27.28L58.36 27.27L58.38 27.26L58.4 27.25L58.42 27.24L58.44 27.23L58.46 27.22L58.48 27.21L58.5 27.21L58.52 27.2L58.54 27.19L58.56 27.19L58.58 27.19L58.6 27.18L58.62 27.18L58.64 27.18L58.65 27.17L58.67 27.17L58.69 27.17L58.71 27.17L58.72 27.17L58.75 27.17L58.77 27.16L58.78 27.16L58.8 27.16L58.81 27.16L58.81 26.93L58.81 26.71L58.81 26.5L58.81 26.31L58.81 26.12L58.81 25.95L58.81 25.79L58.81 25.64L58.81 25.5L58.81 25.37L58.81 25.25L58.81 25.14L58.81 25.04L58.81 24.94L58.81 24.85L58.81 24.77L58.81 24.7L58.81 24.63L58.81 24.57L58.82 24.52L58.82 24.47L58.83 24.42L58.83 24.38L58.84 24.34L58.85 24.3L58.86 24.27L58.87 24.24L58.88 24.21L58.89 24.19L58.91 24.16L58.93 24.14L58.95 24.11L58.97 24.09L58.99 24.06L59.01 24.03L59.04 24L59.07 23.97L59.1 23.94L59.13 23.91L59.16 23.87L59.18 23.85L59.2 23.83L59.24 23.79L59.25 23.78L59.27 23.76L59.28 23.75L59.3 23.74L59.31 23.72L59.32 23.71L59.34 23.7L59.35 23.69L59.36 23.68L59.37 23.67L59.39 23.67L59.4 23.66L59.41 23.65L59.43 23.65L59.44 23.64L59.46 23.64L59.47 23.64L59.49 23.63L59.51 23.63L59.53 23.63L59.55 23.63L59.58 23.63L59.6 23.62L59.63 23.62L59.65 23.62L59.68 23.62L59.72 23.62L59.75 23.62L59.79 23.62L59.83 23.62L59.87 23.62L59.96 23.63L60.01 23.63L60.06 23.63L60.12 23.63L60.12 23.78L60.12 23.93L60.13 24.08L60.13 24.24L60.13 24.39L60.13 24.55L60.13 24.72L60.13 24.88L60.13 25.04L60.13 25.2L60.13 25.37L60.13 25.53L60.13 25.69L60.13 25.86L60.13 26.02L60.13 26.18L60.13 26.34L60.13 26.5L60.13 26.65L60.13 26.81L60.13 26.96L60.13 27.1L60.13 27.25L60.13 27.39L60.13 27.53L60.13 27.66L60.13 27.79L60.13 27.92L60.13 28.04L60.13 28.15L60.13 28.26L60.13 28.37L60.14 28.46L60.14 28.56L60.14 28.64L60.14 28.72L60.14 28.79L60.15 28.85L60.15 28.91L60.15 28.96L60.21 28.96L60.29 28.96L60.35 28.96L60.4 28.96L60.46 28.96L60.51 28.96L60.57 28.96L60.62 28.96L60.71 28.96L60.73 28.96L60.79 28.96L60.82 28.96L60.87 28.96L60.9 28.96L60.96 28.96L61.01 28.96L61.04 28.96L61.09 28.96L61.15 28.96L61.2 28.96L61.26 28.96L61.26 28.89L61.26 28.82L61.26 28.75L61.26 28.68L61.26 28.61L61.26 28.55L61.26 28.48L61.26 28.41L61.26 28.34L61.26 28.27L61.26 28.2L61.26 28.13L61.26 28.07L61.26 28L61.26 27.93L61.26 27.79L61.26 27.59L61.26 27.52L61.26 27.45L61.26 27.38L61.26 27.31L61.26 27.24L61.26 27.18L61.26 27.11L61.26 27.04L61.26 26.97L61.26 26.9L61.26 26.83L61.26 26.77L61.26 26.7L61.26 26.63L61.26 26.56L61.26 26.49L61.26 26.42L61.26 26.35L61.26 26.29L61.27 26.22L61.32 26.22L61.37 26.22L61.44 26.22L61.49 26.22L61.55 26.22L61.62 26.22L61.7 26.22L61.83 26.22L61.88 26.22L61.95 26.22L62.06 26.22L62.11 26.22L62.21 26.22L62.26 26.22L62.28 26.22L62.28 40.07L61.47 40.07L60.69 40.07L59.96 40.07L59.26 40.07L58.57 40.07L57.9 40.07L57.22 40.07L56.53 40.07L55.83 40.07L55.09 40.07L54.31 40.07L53.48 40.07L52.59 40.07L51.63 40.07L50.59 40.07L49.46 40.07L48.24 40.07L46.9 40.07L45.45 40.07L43.86 40.07L42.14 40.07L40.27 40.07L38.24 40.07L36.04 40.07L33.67 40.07L31.1 40.07L28.34 40.07L25.37 40.07L22.19 40.07L18.77 40.07L15.12 40.07L11.23 40.07L7.07 40.07L2.65 40.07L1.72 40.07L1.72 27.94L1.72 27.94L1.73 27.93L1.74 27.92L1.75 27.92L1.76 27.91L1.77 27.9L1.78 27.89L1.79 27.89L1.8 27.88L1.81 27.87L1.82 27.86L1.84 27.84L1.86 27.82L1.88 27.8L1.89 27.8L1.9 27.79L1.91 27.78L1.92 27.77L1.93 27.76L1.94 27.76L1.95 27.75L1.96 27.74L1.97 27.74L1.98 27.73L1.99 27.72L2 27.72L2.01 27.71L2.02 27.7L2.03 27.7L2.04 27.69L2.05 27.69L2.06 27.69L2.08 27.68L2.09 27.68L2.1 27.68L2.12 27.68L2.13 27.67L2.14 27.67L2.16 27.67L2.17 27.67L2.18 27.67L2.2 27.66L2.21 27.66L2.22 27.66L2.23 27.66L2.25 27.66L2.26 27.66L2.27 27.66L2.29 27.66L2.3 27.66L2.31 27.66L2.33 27.66L2.34 27.66L2.37 27.66L2.38 27.66L2.41 27.66L2.47 27.66L2.5 27.66L2.53 27.66L2.54 27.66L2.55 27.66L2.57 27.66L2.58 27.66L2.58 27.41L2.58 27.17L2.58 26.95L2.58 26.74L2.58 26.55L2.58 26.36L2.57 26.19L2.57 26.03L2.57 25.88L2.57 25.74L2.57 25.6L2.57 25.48L2.57 25.37L2.57 25.27L2.57 25.17L2.57 25.08L2.58 25L2.58 24.92L2.59 24.85L2.59 24.78L2.6 24.72L2.61 24.67L2.63 24.62L2.64 24.57L2.66 24.52L2.67 24.48L2.69 24.44L2.72 24.4L2.74 24.36L2.77 24.32L2.8 24.29L2.83 24.25L2.87 24.21L2.91 24.17L2.95 24.13L2.99 24.08L3.04 24.03L3.09 23.98L3.15 23.93L3.21 23.87L3.21 23.86L3.22 23.85L3.23 23.84L3.24 23.83L3.25 23.83L3.26 23.82L3.27 23.81L3.28 23.81L3.29 23.8L3.3 23.79L3.32 23.79L3.33 23.78L3.35 23.78L3.37 23.77L3.38 23.77L3.41 23.76L3.43 23.76L3.45 23.76L3.48 23.75L3.51 23.75L3.54 23.75L3.57 23.75L3.61 23.75L3.64 23.74L3.68 23.74L3.73 23.74L3.77 23.74L3.82 23.74L3.87 23.74L3.93 23.74L3.99 23.74L4.05 23.74L4.12 23.75L4.19 23.75L4.26 23.75L4.34 23.75L4.42 23.75L4.5 23.76L4.59 23.76L4.69 23.76L4.69 23.85L4.69 23.92L4.7 24.01L4.7 24.08L4.7 24.14L4.71 24.22L4.71 24.29L4.71 24.34L4.74 24.34L4.76 24.34L4.79 24.34L4.81 24.34L4.84 24.34L4.86 24.35L4.89 24.35L4.91 24.35L4.94 24.35L4.96 24.35L4.99 24.35L5.01 24.35L5.04 24.35L5.06 24.35L5.09 24.35L5.11 24.35L5.14 24.35L5.16 24.36L5.19 24.36L5.21 24.36L5.24 24.36L5.26 24.36L5.29 24.36L5.32 24.36L5.34 24.36L5.37 24.36L5.39 24.36L5.42 24.36L5.44 24.36L5.49 24.36L5.52 24.36L5.54 24.36L5.59 24.36L5.62 24.36L5.67 24.36L5.72 24.36L5.72 24.47L5.72 24.58L5.72 24.7L5.72 24.81L5.72 24.92L5.72 25.04L5.72 25.15L5.72 25.26L5.72 25.38L5.72 25.49L5.72 25.6L5.72 25.72L5.72 25.83L5.72 25.94L5.72 26.06L5.72 26.17L5.72 26.28L5.72 26.51L5.72 26.62L5.72 26.73L5.72 26.85L5.72 26.96L5.72 27.07L5.72 27.19L5.72 27.3L5.72 27.41L5.72 27.53L5.72 27.64L5.72 27.75L5.72 27.87L5.72 27.98L5.72 28.09L5.72 28.21L5.73 28.32L5.73 28.43L5.73 28.55L5.73 28.66L5.73 28.77L5.74 28.89L5.81 28.82L5.87 28.75L5.94 28.69L5.99 28.63L6.05 28.58L6.1 28.52L6.15 28.48L6.19 28.43L6.23 28.39L6.27 28.35L6.3 28.31L6.33 28.27L6.36 28.24L6.39 28.2L6.41 28.17L6.43 28.14L6.45 28.11L6.46 28.08L6.48 28.05L6.49 28.02L6.5 27.98L6.51 27.95L6.52 27.92L6.52 27.89L6.53 27.85L6.53 27.82L6.53 27.78L6.53 27.74L6.53 27.7L6.53 27.65L6.53 27.61L6.53 27.56L6.53 27.5L6.53 27.45L6.53 27.39L6.53 27.33L6.53 27.26L6.53 27.19L6.53 27.11L6.53 27.03L6.54 27.03L6.58 27.02L6.62 27.02L6.68 27.02L6.74 27.02L6.8 27.01L6.87 27.01L6.91 27.01L6.94 27.01L6.94 26.95L6.95 26.89L6.95 26.84L6.95 26.78L6.95 26.73L6.95 26.67L6.96 26.61L6.96 26.56L6.96 26.5L6.96 26.45L6.96 26.39L6.96 26.34L6.96 26.28L6.96 26.22L6.96 26.17L6.96 26.11L6.96 26.06L6.96 26L6.96 25.94L6.96 25.89L6.96 25.83L6.96 25.78L6.96 25.72L6.95 25.55L6.95 25.5L6.95 25.44L6.95 25.38L6.95 25.33L6.95 25.27L6.95 25.22L6.95 25.16L6.95 25.1L6.95 25.05L6.95 24.99L6.95 24.94L6.95 24.88L6.95 24.82L6.95 24.77L7.06 24.76L7.12 24.76L7.17 24.76L7.22 24.75L7.25 24.75L7.28 24.75L7.28 24.71L7.29 24.65L7.29 24.61L7.29 24.51L7.3 24.4L7.3 24.36L7.32 24.36L7.36 24.36L7.4 24.36L7.42 24.36L7.46 24.36L7.5 24.36L7.52 24.36L7.56 24.36L7.6 24.36L7.62 24.36L7.66 24.36L7.7 24.36L7.73 24.36L7.75 24.36L7.79 24.36L7.83 24.36L7.85 24.36L7.89 24.36L7.93 24.36L7.97 24.36L7.99 24.36L8.03 24.36L8.07 24.36L8.09 24.36L8.1 24.48L8.1 24.54L8.11 24.64L8.11 24.75L8.16 24.75L8.23 24.76L8.3 24.76L8.38 24.76L8.46 24.76L8.53 24.77L8.58 24.77L8.62 24.77L8.62 24.79L8.62 24.81L8.63 24.84L8.63 24.85L8.63 24.87L8.63 24.92L8.63 24.95L8.63 24.97L8.64 25L8.64 25.01L8.64 25.04L8.64 25.05L8.64 25.06L8.64 25.08L8.64 25.09L8.64 25.1L8.65 25.11L8.65 25.13L8.65 25.14L8.65 25.15L8.65 25.16L8.66 25.18L8.66 25.19L8.66 25.2L8.66 25.21L8.67 25.23L8.67 25.24L8.67 25.25L8.67 25.26L8.68 25.27L8.69 25.29L8.69 25.31L8.7 25.32L8.71 25.34L8.72 25.35L8.73 25.37L8.74 25.38L8.75 25.4L8.76 25.41L8.77 25.43L8.78 25.44L8.8 25.45L8.81 25.47L8.82 25.48L8.83 25.49L8.84 25.51L8.86 25.52L8.87 25.53L8.88 25.54L8.89 25.56L8.92 25.58L8.93 25.6L8.94 25.61L8.95 25.62L8.97 25.63L8.98 25.65L8.99 25.66L9 25.67L9.01 25.69L9.02 25.7L9.04 25.71L9.05 25.73L9.06 25.74L9.07 25.76L9.08 25.77L9.09 25.79L9.1 25.8L9.11 25.82L9.12 25.83L9.12 25.85L9.13 25.86L9.13 25.88L9.13 25.9L9.14 25.91L9.14 25.93L9.14 25.94L9.14 25.96L9.15 25.98L9.15 25.99L9.15 26.01L9.15 26.03L9.15 26.04L9.15 26.06L9.15 26.08L9.16 26.09L9.16 26.11L9.16 26.13L9.16 26.18L9.16 26.19L9.16 26.21L9.16 26.23L9.16 26.24L9.16 26.26L9.17 26.28L9.17 26.29L9.17 26.31L9.17 26.33L9.17 26.34L9.17 26.36L9.18 26.38L9.18 26.39L9.18 26.41L9.19 26.42L9.19 26.44L9.19 26.46L9.2 26.47L9.2 26.49L9.21 26.5L9.22 26.52L9.23 26.53L9.24 26.54L9.24 26.55L9.25 26.57L9.26 26.58L9.27 26.59L9.28 26.61L9.29 26.62L9.3 26.63L9.31 26.64L9.32 26.65L9.32 26.67L9.33 26.68L9.34 26.69L9.35 26.7L9.36 26.71L9.37 26.72L9.38 26.74L9.39 26.75L9.4 26.76L9.42 26.78L9.45 26.8L9.49 26.85L9.51 26.87L9.52 26.88L9.53 26.89L9.54 26.9L9.55 26.92L9.56 26.93L9.57 26.94L9.58 26.95L9.59 26.96L9.62 26.99L9.64 27.02L9.67 27.05L9.69 27.07L9.71 27.09L9.73 27.12L9.75 27.14L9.77 27.15L9.79 27.17L9.8 27.19L9.82 27.2L9.84 27.21L9.85 27.22L9.87 27.23L9.89 27.24L9.91 27.25L9.93 27.26L9.95 27.26L9.97 27.27L9.99 27.27L10.01 27.28L10.04 27.28L10.07 27.28L10.1 27.28L10.13 27.28L10.17 27.28L10.21 27.28L10.25 27.28L10.29 27.28L10.34 27.28L10.39 27.28L10.45 27.28L10.51 27.28L10.57 27.28L10.64 27.28L10.71 27.28L10.79 27.27L10.87 27.27L10.96 27.27L11.06 27.27L11.06 27.23L11.06 27.16L11.06 27.1L11.06 27.06L11.06 26.95L11.06 26.81L11.06 26.68L11.06 26.5L11.12 26.5L11.15 26.5L11.23 26.49L11.32 26.49L11.38 26.48L11.41 26.48L11.41 26.46L11.42 26.41L11.42 26.36L11.42 26.3L11.42 26.27L11.42 26.22L11.42 26.15L11.42 26.14L11.44 26.14L11.47 26.14L11.53 26.14L11.56 26.14L11.58 26.14L11.62 26.15L11.65 26.15L11.69 26.15L11.72 26.15L11.76 26.15L11.79 26.15L11.83 26.15L11.87 26.15L11.9 26.15L11.94 26.15L11.98 26.15L12.01 26.15L12.04 26.15L12.04 26.24L12.04 26.29L12.04 26.35L12.04 26.4L12.04 26.46L12.04 26.51L12.04 26.57L12.04 26.6L12.04 26.65L12.04 26.71L12.04 26.76L12.04 26.79L12.04 26.84L12.04 26.9L12.04 26.96L12.04 27.01L12.04 27.04L12.04 27.09L12.04 27.12L12.04 27.18L12.05 27.23L12.05 27.26L12.09 27.26L12.11 27.26L12.15 27.26L12.19 27.26L12.23 27.26L12.27 27.26L12.31 27.26L12.35 27.26L12.39 27.26L12.43 27.26L12.47 27.26L12.51 27.26L12.55 27.26L12.59 27.26L12.63 27.26L12.65 27.26L12.69 27.26L12.73 27.26L12.77 27.26L12.79 27.26L12.83 27.26L12.85 27.26L12.85 27.2L12.85 27.14L12.85 27.08L12.85 27.02L12.85 26.96L12.85 26.91L12.85 26.85L12.85 26.79L12.85 26.73L12.85 26.67L12.85 26.62L12.85 26.56L12.85 26.5L12.85 26.44L12.85 26.38L12.85 26.33L12.85 26.03L12.85 25.98L12.85 25.92L12.85 25.86L12.85 25.8L12.85 25.74L12.85 25.69L12.85 25.63L12.85 25.57L12.85 25.51L12.85 25.45L12.85 25.4L12.85 25.34L12.85 25.28L12.85 25.22L12.85 25.16L12.85 25.1L12.85 25.05L12.85 24.99L12.85 24.93L12.89 24.93L12.91 24.93L12.96 24.92L13.01 24.92L13.05 24.92L13.11 24.92L13.14 24.92L13.18 24.91L13.2 24.91L13.2 24.86L13.21 24.72L13.21 24.65L13.22 24.62L13.22 24.57L13.22 24.54L13.22 24.49L13.22 24.48L13.26 24.48L13.3 24.48L13.34 24.48L13.4 24.47L13.44 24.47L13.48 24.47L13.52 24.47L13.58 24.47L13.62 24.47L13.66 24.47L13.74 24.47L13.8 24.47L13.85 24.47L13.89 24.47L13.95 24.47L13.99 24.47L14.01 24.47L14.01 24.49L14.01 24.53L14.02 24.56L14.02 24.61L14.02 24.73L14.02 24.78L14.03 24.85L14.03 24.89L14.03 24.91L14.09 24.92L14.15 24.92L14.17 24.92L14.23 24.93L14.29 24.93L14.34 24.94L14.34 25.03L14.34 25.13L14.34 25.23L14.34 25.33L14.34 25.43L14.34 25.53L14.35 25.63L14.35 25.73L14.35 25.82L14.34 25.92L14.34 26.02L14.34 26.12L14.34 26.22L14.34 26.32L14.34 26.42L14.34 26.71L14.34 26.81L14.34 26.91L14.34 27.01L14.34 27.11L14.34 27.2L14.34 27.3L14.34 27.4L14.34 27.5L14.34 27.6L14.34 27.7L14.34 27.8L14.34 27.89L14.34 27.99L14.34 28.09L14.34 28.19L14.35 28.29L14.35 28.39L14.35 28.49L14.35 28.58L14.35 28.68L14.35 28.78L14.35 28.88L14.41 28.82L14.47 28.77L14.52 28.72L14.56 28.67L14.61 28.63L14.65 28.58L14.68 28.54L14.72 28.5L14.75 28.47L14.78 28.43L14.8 28.4L14.83 28.37L14.85 28.34L14.87 28.32L14.89 28.29L14.91 28.27L14.92 28.25L14.94 28.23L14.95 28.21L14.97 28.2L14.98 28.18L15 28.16L15.01 28.15L15.03 28.14L15.05 28.13L15.06 28.12L15.08 28.11L15.1 28.1L15.12 28.09L15.15 28.08L15.17 28.07L15.2 28.06L15.23 28.05L15.27 28.05L15.31 28.04L15.35 28.03L15.39 28.02L15.44 28.02L15.49 28.01L15.54 28L15.55 27.96L15.55 27.89L15.55 27.85L15.55 27.8L15.55 27.73L15.55 27.65L15.55 27.6L15.55 27.53L15.56 27.42L15.56 27.27L15.59 27.27L15.63 27.27L15.67 27.27L15.72 27.27L15.77 27.27L15.87 27.26L15.99 27.26L15.99 27.17L15.99 27.09L15.99 27L15.99 26.91L15.99 26.82L15.99 26.74L15.99 26.65L15.99 26.56L15.99 26.48L15.99 26.39L15.99 26.3L15.99 26.21L15.99 26.13L15.99 26.04L15.99 25.95L15.99 25.86L15.99 25.69L15.99 25.51L15.99 25.34L15.99 25.25L15.99 25.17L15.99 25.08L15.99 24.99L15.99 24.9L15.99 24.82L15.99 24.73L15.99 24.64L15.99 24.55L15.99 24.47L15.99 24.38L15.99 24.29L15.99 24.21L15.99 24.12L15.99 24.03L15.99 23.94L15.99 23.86L15.99 23.77L16.03 23.76L16.05 23.76L16.08 23.76L16.11 23.75L16.17 23.75L16.23 23.74L16.27 23.73L16.27 23.67L16.27 23.61L16.28 23.59L16.28 23.53L16.28 23.5L16.28 23.42L16.28 23.34L16.28 23.3L16.28 23.22L16.28 23.18L16.28 23.1L16.29 23.04L16.29 23L16.29 22.94L16.31 22.94L16.31 22.93L16.32 22.93L16.37 22.92L16.4 22.9L16.43 22.89L16.46 22.88L16.5 22.87L16.5 22.8L16.5 22.76L16.5 22.69L16.5 22.63L16.51 22.54L16.51 22.47L16.51 22.41L16.51 22.36L16.51 22.3L16.51 22.26L16.51 22.19L16.51 22.1L16.51 21.99L16.53 21.99L16.55 21.99L16.57 21.99L16.59 21.99L16.6 21.98L16.62 21.98L16.64 21.98L16.66 21.98L16.68 21.98L16.7 21.98L16.72 21.98L16.73 21.98L16.77 21.98L16.79 21.97L16.81 21.97L16.83 21.97L16.85 21.97L16.86 21.97L16.88 21.97L16.9 21.97L16.92 21.97L16.94 21.97L16.97 21.97L16.99 21.97L17.01 21.97L17.03 21.97L17.05 21.97L17.09 21.97L17.12 21.97L17.14 21.97L17.16 21.97L17.18 21.97L17.2 21.97L17.23 21.97L17.25 21.97L17.26 22.01L17.26 22.06L17.26 22.08L17.26 22.12L17.26 22.17L17.26 22.19L17.26 22.23L17.27 22.27L17.27 22.32L17.27 22.36L17.27 22.38L17.27 22.43L17.27 22.47L17.27 22.51L17.27 22.56L17.27 22.6L17.27 22.64L17.28 22.69L17.28 22.71L17.28 22.75L17.28 22.8L17.28 22.84L17.32 22.85L17.35 22.85L17.4 22.86L17.41 22.86L17.44 22.87L17.49 22.88L17.49 22.93L17.49 22.97L17.49 23.01L17.49 23.08L17.49 23.12L17.49 23.19L17.49 23.24L17.49 23.3L17.49 23.35L17.49 23.44L17.49 23.48L17.49 23.52L17.49 23.59L17.49 23.64L17.49 23.7L17.49 23.75L17.49 23.77L17.57 23.78L17.73 23.8L17.79 23.81L17.81 23.82L17.81 23.87L17.81 23.9L17.81 23.95L17.81 24.04L17.82 24.11L17.82 24.18L17.82 24.23L17.82 24.31L17.82 24.38L17.82 24.45L17.82 24.5L17.88 24.51L17.92 24.51L17.94 24.51L17.97 24.51L18.02 24.52L18.04 24.52L18.09 24.52L18.12 24.53L18.12 24.57L18.12 24.62L18.13 24.68L18.13 24.73L18.13 24.8L18.14 24.86L18.14 24.93L18.14 25L18.14 25.08L18.14 25.16L18.15 25.23L18.15 25.32L18.15 25.4L18.15 25.48L18.15 25.57L18.15 25.65L18.15 25.74L18.15 25.82L18.15 25.91L18.15 25.99L18.15 26.07L18.15 26.15L18.15 26.23L18.15 26.31L18.15 26.39L18.15 26.46L18.15 26.53L18.15 26.6L18.15 26.66L18.15 26.72L18.15 26.78L18.15 26.83L18.14 26.88L18.14 26.92L18.14 26.96L18.14 26.99L18.14 27.02L18.14 27.06L18.14 27.15L18.14 27.19L18.14 27.23L18.15 27.26L18.15 27.29L18.15 27.32L18.15 27.35L18.15 27.38L18.16 27.4L18.16 27.43L18.17 27.45L18.18 27.47L18.18 27.49L18.19 27.51L18.2 27.53L18.22 27.56L18.23 27.58L18.25 27.6L18.26 27.62L18.28 27.64L18.3 27.67L18.33 27.7L18.35 27.72L18.38 27.76L18.41 27.79L18.45 27.82L18.48 27.86L18.52 27.9L18.56 27.94L18.61 27.99L18.65 28.04L18.7 28.1L18.76 28.16L18.81 28.22L18.87 28.29L18.94 28.36L19.01 28.44L19.08 28.52L19.15 28.61L19.18 28.63L19.2 28.66L19.22 28.68L19.24 28.7L19.25 28.72L19.27 28.74L19.29 28.76L19.3 28.77L19.32 28.79L19.33 28.8L19.34 28.81L19.36 28.82L19.37 28.84L19.38 28.85L19.39 28.85L19.4 28.86L19.42 28.87L19.43 28.88L19.44 28.88L19.45 28.89L19.47 28.89L19.48 28.9L19.49 28.9L19.51 28.91L19.52 28.91L19.54 28.91L19.55 28.91L19.57 28.91L19.59 28.92L19.61 28.92L19.63 28.92L19.66 28.92L19.68 28.92L19.71 28.92L19.73 28.92L19.79 28.92L19.83 28.92L19.86 28.92L19.9 28.92L19.9 28.87L19.9 28.82L19.9 28.76L19.9 28.71L19.9 28.66L19.9 28.6L19.9 28.55L19.9 28.5L19.9 28.44L19.9 28.39L19.9 28.34L19.9 28.28L19.9 28.23L19.9 28.18L19.9 28.12L19.9 28.07L19.9 28.02L19.9 27.96L19.9 27.91L19.9 27.86L19.9 27.81L19.9 27.75L19.9 27.7L19.9 27.65L19.9 27.59L19.9 27.54L19.9 27.49L19.9 27.38L19.9 27.33L19.9 27.27L19.9 27.17L19.9 27.06L19.9 26.95L19.9 26.85L19.9 26.79L19.9 26.75L19.9 26.72L19.9 26.68L19.9 26.64L19.91 26.61L19.91 26.58L19.92 26.55L19.92 26.52L19.93 26.49L19.94 26.47L19.94 26.44L19.95 26.42L19.96 26.4L19.97 26.38L19.97 26.35L19.98 26.33L19.99 26.32L20 26.3L20.01 26.28L20.02 26.26L20.03 26.24L20.04 26.21L20.05 26.19L20.06 26.18L20.07 26.16L20.07 26.14L20.08 26.13L20.09 26.11L20.09 26.09L20.1 26.08L20.11 26.06L20.11 26.04L20.11 26.02L20.12 26L20.12 25.98L20.12 25.96L20.12 25.94L20.12 25.91L20.12 25.89L20.12 25.28L20.12 24.17L20.11 23.65L20.11 23.17L20.11 22.71L20.11 22.29L20.11 21.89L20.11 21.51L20.11 21.16L20.11 20.84L20.11 20.53L20.11 20.25L20.11 20L20.11 19.76L20.11 19.54L20.11 19.34L20.11 19.16L20.11 18.99L20.11 18.85L20.12 18.71L20.12 18.59L20.12 18.49L20.13 18.4L20.13 18.32L20.14 18.25L20.14 18.19L20.15 18.13L20.15 18.09L20.16 18.06L20.17 18.03L20.17 18L20.18 17.98L20.19 17.97L20.2 17.96L20.21 17.94L20.22 17.94L20.23 17.93L20.25 17.92L20.26 17.9L20.28 17.88L20.3 17.86L20.33 17.83L20.35 17.81L20.37 17.78L20.41 17.73L20.46 17.68L20.5 17.64L20.55 17.59L20.62 17.51L20.68 17.44L20.75 17.37L20.77 17.34L20.79 17.32L20.82 17.29L20.84 17.27L20.86 17.25L20.88 17.22L20.91 17.2L20.93 17.17L20.95 17.15L20.97 17.12L21 17.1L21.02 17.07L21.04 17.05L21.06 17.02L21.08 17L21.11 16.98L21.13 16.95L21.15 16.93L21.17 16.9L21.19 16.88L21.21 16.86L21.23 16.84L21.25 16.82L21.27 16.79L21.29 16.77L21.31 16.75L21.33 16.73L21.35 16.7L21.43 16.61L21.45 16.59L21.47 16.57L21.49 16.55L21.51 16.52L21.53 16.5L21.55 16.48L21.57 16.46L21.59 16.44L21.61 16.41L21.63 16.39L21.65 16.37L21.67 16.35L21.69 16.33L21.71 16.31L21.73 16.29L21.75 16.27L21.77 16.24L21.8 16.22L21.82 16.2L21.84 16.19L21.86 16.17L21.88 16.15L21.91 16.13L21.93 16.11L21.95 16.09L21.98 16.07L21.98 16.3L21.98 16.53ZM52.75 28.58L52.76 29L53 28.74L53.22 28.45L53.41 28.14L53.59 27.82L53.38 27.69L53.17 27.55L52.96 27.42L52.75 27.3L52.75 27.72L52.74 28.15L52.75 28.58ZM27.05 28.61L27.05 28.7L27.05 28.79L27.06 28.88L27.1 28.96L27.22 28.98L27.34 28.96L27.43 28.89L27.44 28.76L27.4 28.63L27.3 28.6L27.17 28.6L27.05 28.61ZM26.73 28.59L26.65 28.6L26.58 28.62L26.53 28.67L26.51 28.75L26.52 28.83L26.53 28.91L26.6 28.96L26.68 28.98L26.77 28.97L26.85 28.96L26.9 28.88L26.9 28.78L26.89 28.68L26.88 28.58L26.8 28.59L26.73 28.59ZM26 28.61L25.95 28.68L25.93 28.78L25.95 28.88L26 28.96L26.08 28.97L26.17 28.98L26.25 28.96L26.32 28.91L26.33 28.83L26.33 28.75L26.32 28.67L26.28 28.61L26.21 28.6L26.14 28.59L26.07 28.6L26 28.61ZM54.83 28.7L54.83 28.81L54.83 28.92L54.93 28.92L55.03 28.92L55.12 28.92L55.22 28.92L55.22 28.81L55.22 28.7L55.22 28.6L55.22 28.49L55.12 28.49L55.03 28.49L54.93 28.49L54.83 28.49L54.83 28.6L54.83 28.7ZM29.61 26.65L29.6 26.87L29.6 27.41L29.59 28.44L29.6 28.53L29.61 28.62L29.65 28.69L29.74 28.71L29.78 28.34L29.79 27.68L29.79 27.04L29.79 26.74L29.78 26.67L29.75 26.61L29.7 26.57L29.65 26.59L29.61 26.65ZM29.23 26.65L29.21 26.73L29.21 26.82L29.21 26.9L29.21 27.32L29.21 27.75L29.21 28.17L29.22 28.6L29.24 28.67L29.29 28.71L29.35 28.7L29.39 28.64L29.4 28.27L29.41 27.64L29.4 27L29.38 26.61L29.36 26.6L29.32 26.58L29.3 26.57L29.27 26.59L29.23 26.65ZM29.98 26.78L29.98 26.89L29.98 27.01L29.98 27.74L29.98 28.34L30.02 28.68L30.15 28.68L30.17 28.29L30.18 27.64L30.17 26.99L30.15 26.61L30.12 26.6L30.06 26.58L30.03 26.57L29.99 26.67L29.98 26.78ZM40.47 28.24L40.42 28.31L40.4 28.41L40.42 28.51L40.47 28.59L40.55 28.6L40.64 28.61L40.72 28.59L40.79 28.54L40.8 28.46L40.8 28.38L40.79 28.3L40.74 28.24L40.67 28.22L40.6 28.22L40.54 28.22L40.47 28.24ZM41.05 28.24L40.99 28.31L40.98 28.41L41 28.51L41.04 28.59L41.12 28.6L41.21 28.6L41.29 28.59L41.37 28.54L41.37 28.48L41.38 28.41L41.37 28.35L41.36 28.29L41.3 28.23L41.22 28.22L41.13 28.22L41.05 28.24ZM50.59 26.99L50.47 27.12L50.34 27.24L50.33 27.43L50.33 27.62L50.36 27.81L50.43 27.98L50.52 28.15L50.6 28.32L50.7 28.47L50.84 28.59L50.85 28.13L50.85 27.66L50.85 27.2L50.85 26.73L50.72 26.86L50.59 26.99ZM52.14 28.25L52.14 28.37L52.14 28.49L52.25 28.49L52.36 28.49L52.47 28.49L52.57 28.49L52.57 28.37L52.57 28.25L52.57 28.13L52.58 28.01L52.47 28.01L52.36 28.01L52.25 28.01L52.14 28.01L52.14 28.13L52.14 28.25ZM51.71 28.17L51.64 28.17L51.56 28.17L51.56 28.25L51.56 28.33L51.56 28.41L51.57 28.49L51.64 28.49L51.71 28.49L51.78 28.49L51.85 28.49L51.85 28.41L51.85 28.33L51.85 28.25L51.85 28.17L51.78 28.17L51.71 28.17ZM51.28 28.17L51.2 28.17L51.13 28.17L51.13 28.25L51.13 28.33L51.13 28.41L51.13 28.49L51.2 28.49L51.28 28.49L51.35 28.49L51.42 28.49L51.42 28.41L51.42 28.33L51.42 28.25L51.42 28.17L51.35 28.17L51.28 28.17ZM26.58 28.08L26.53 28.15L26.51 28.25L26.53 28.35L26.57 28.43L26.66 28.44L26.75 28.45L26.83 28.43L26.9 28.38L26.9 28.31L26.91 28.25L26.9 28.19L26.9 28.13L26.83 28.07L26.74 28.06L26.66 28.06L26.58 28.08ZM27.11 28.08L27.06 28.15L27.04 28.25L27.05 28.35L27.11 28.43L27.19 28.44L27.27 28.45L27.36 28.43L27.43 28.38L27.44 28.31L27.44 28.24L27.43 28.16L27.41 28.09L27.34 28.07L27.26 28.06L27.18 28.06L27.11 28.08ZM26 28.08L25.94 28.18L25.94 28.3L25.98 28.41L26.08 28.44L26.15 28.44L26.21 28.44L26.27 28.42L26.32 28.38L26.33 28.31L26.33 28.25L26.33 28.19L26.32 28.12L26.25 28.08L26.17 28.06L26.08 28.06L26 28.08ZM33.59 28.17L33.59 28.25L33.59 28.33L33.66 28.33L33.73 28.33L33.8 28.33L33.87 28.33L33.87 28.25L33.87 28.17L33.87 28.09L33.88 28.01L33.8 28.01L33.73 28.01L33.66 28.01L33.59 28.01L33.59 28.09L33.59 28.17ZM54.93 27.85L54.83 27.85L54.83 27.96L54.83 28.07L54.83 28.17L54.83 28.28L54.93 28.28L55.02 28.28L55.12 28.28L55.22 28.28L55.22 28.17L55.22 28.07L55.22 27.96L55.22 27.85L55.12 27.85L55.03 27.85L54.93 27.85ZM54.2 27.47L54.07 27.76L54.19 27.83L54.29 27.92L54.38 28.02L54.45 28.13L54.47 28.14L54.51 28.16L54.53 28.17L54.54 27.77L54.54 27.37L54.53 26.97L54.52 26.57L54.43 26.88L54.32 27.17L54.2 27.47ZM41.05 27.71L41 27.76L40.98 27.84L40.99 27.93L41 28.01L41.05 28.06L41.13 28.07L41.2 28.07L41.28 28.06L41.35 28.03L41.38 27.95L41.37 27.84L41.37 27.75L41.3 27.7L41.22 27.69L41.13 27.69L41.05 27.71ZM40.47 27.71L40.42 27.76L40.41 27.84L40.41 27.92L40.42 28L40.48 28.06L40.55 28.07L40.63 28.07L40.7 28.06L40.77 28.02L40.8 27.94L40.8 27.84L40.79 27.75L40.72 27.7L40.64 27.69L40.55 27.69L40.47 27.71ZM45.9 27.65L45.85 27.73L45.83 27.82L45.85 27.93L45.9 28L45.98 28.02L46.07 28.02L46.15 28.01L46.22 27.95L46.23 27.89L46.23 27.83L46.23 27.76L46.22 27.7L46.15 27.65L46.07 27.63L45.99 27.64L45.9 27.65ZM51.71 27.69L51.64 27.7L51.56 27.7L51.56 27.77L51.56 27.85L51.56 27.93L51.56 28.01L51.64 28.01L51.71 28.01L51.78 28.01L51.85 28.01L51.85 27.93L51.85 27.85L51.85 27.77L51.85 27.69L51.78 27.69L51.71 27.69ZM51.13 27.69L51.13 27.77L51.13 27.85L51.13 27.93L51.13 28.01L51.2 28.01L51.28 28.01L51.35 28.01L51.42 28.01L51.42 27.93L51.42 27.85L51.42 27.77L51.42 27.69L51.35 27.69L51.28 27.69L51.2 27.69L51.13 27.69ZM47.12 27.81L47.12 27.9L47.12 27.99L47.58 28L47.8 27.99L47.9 27.97L48 27.9L47.78 27.84L47.55 27.78L47.34 27.71L47.12 27.63L47.12 27.72L47.12 27.81ZM45.11 26.54L44.91 26.67L44.71 26.8L44.71 27.1L44.71 27.4L44.71 27.69L44.71 27.99L44.91 27.99L45.11 28L45.31 28L45.51 27.99L45.52 27.57L45.52 27.14L45.52 26.71L45.51 26.29L45.31 26.41L45.11 26.54ZM27.11 27.55L27.06 27.6L27.04 27.68L27.05 27.76L27.06 27.84L27.11 27.9L27.18 27.91L27.26 27.91L27.34 27.9L27.41 27.86L27.44 27.78L27.44 27.69L27.43 27.6L27.36 27.54L27.28 27.53L27.19 27.53L27.11 27.55ZM4.03 27.55L3.98 27.63L3.96 27.74L3.99 27.85L4.07 27.9L4.15 27.91L4.22 27.91L4.29 27.9L4.35 27.85L4.36 27.78L4.36 27.72L4.36 27.66L4.35 27.59L4.28 27.54L4.2 27.53L4.12 27.53L4.03 27.55ZM26 27.55L25.94 27.64L25.93 27.77L25.98 27.88L26.08 27.91L26.18 27.91L26.27 27.89L26.33 27.8L26.32 27.6L26.25 27.54L26.17 27.53L26.08 27.53L26 27.55ZM26.57 27.55L26.52 27.65L26.51 27.77L26.56 27.88L26.66 27.91L26.72 27.91L26.79 27.91L26.85 27.89L26.9 27.85L26.91 27.78L26.91 27.72L26.9 27.66L26.9 27.6L26.83 27.54L26.75 27.53L26.66 27.53L26.57 27.55ZM5.09 27.55L5.04 27.59L5.03 27.66L5.03 27.73L5.03 27.8L5.07 27.88L5.15 27.91L5.24 27.91L5.32 27.9L5.39 27.86L5.42 27.78L5.42 27.68L5.41 27.59L5.34 27.54L5.26 27.53L5.17 27.53L5.09 27.55ZM4.52 27.71L4.51 27.81L4.51 27.9L4.6 27.9L4.7 27.91L4.8 27.9L4.88 27.85L4.89 27.79L4.89 27.72L4.89 27.66L4.88 27.6L4.8 27.55L4.71 27.53L4.62 27.53L4.53 27.52L4.52 27.62L4.52 27.71ZM33.59 27.69L33.59 27.77L33.59 27.85L33.66 27.85L33.73 27.85L33.8 27.85L33.87 27.85L33.87 27.77L33.87 27.69L33.87 27.62L33.88 27.54L33.8 27.54L33.73 27.54L33.66 27.53L33.59 27.53L33.59 27.61L33.59 27.69ZM52.14 27.32L52.14 27.44L52.14 27.56L52.14 27.68L52.14 27.8L52.25 27.8L52.36 27.8L52.47 27.8L52.57 27.8L52.57 27.68L52.57 27.56L52.57 27.44L52.57 27.32L52.47 27.32L52.36 27.32L52.25 27.32L52.14 27.32ZM47.73 25.81L47.5 26.24L47.27 26.67L47.19 26.83L47.13 27.01L47.11 27.19L47.14 27.37L47.33 27.48L47.53 27.55L47.75 27.61L47.96 27.66L47.97 27.04L48 26.82L48.06 26.74L48.18 26.52L48.2 26.21L48.2 25.7L48.2 25.21L48.19 24.95L47.95 25.38L47.73 25.81ZM54.83 27.43L54.83 27.53L54.83 27.64L54.93 27.64L55.03 27.64L55.12 27.64L55.22 27.64L55.22 27.53L55.22 27.43L55.22 27.32L55.22 27.22L55.12 27.22L55.03 27.22L54.93 27.22L54.83 27.22L54.83 27.32L54.83 27.43ZM46.53 27.23L46.47 27.32L46.46 27.45L46.51 27.56L46.61 27.59L46.67 27.59L46.74 27.59L46.8 27.57L46.84 27.53L46.85 27.47L46.86 27.4L46.86 27.34L46.85 27.28L46.78 27.23L46.7 27.21L46.61 27.21L46.53 27.23ZM40.47 27.18L40.42 27.23L40.41 27.31L40.41 27.39L40.42 27.47L40.49 27.53L40.57 27.54L40.66 27.54L40.75 27.53L40.79 27.46L40.8 27.38L40.8 27.3L40.79 27.22L40.72 27.17L40.64 27.15L40.55 27.16L40.47 27.18ZM51.71 24.46L51.7 24.57L51.68 24.68L51.67 24.8L51.66 24.91L51.77 24.92L51.87 24.92L51.98 24.93L52.08 24.94L52.09 25.32L52.08 25.7L52.08 26.09L52.1 26.47L52.38 26.67L52.92 27.03L53.46 27.37L53.73 27.54L53.88 27.21L54.02 26.87L54.13 26.52L54.21 26.15L54.15 25.94L54.09 25.72L54.06 25.51L54.09 25.28L54.16 25.06L54.28 24.87L54.4 24.68L54.47 24.46L53.78 24.45L53.09 24.45L52.4 24.45L51.71 24.46ZM41.05 27.18L40.99 27.27L40.98 27.4L41.03 27.51L41.13 27.54L41.23 27.54L41.32 27.52L41.37 27.43L41.37 27.22L41.3 27.17L41.21 27.16L41.13 27.16L41.05 27.18ZM51.57 27.22L51.56 27.3L51.56 27.38L51.56 27.46L51.56 27.54L51.64 27.54L51.71 27.54L51.78 27.54L51.85 27.54L51.85 27.46L51.85 27.38L51.85 27.3L51.85 27.22L51.78 27.22L51.71 27.22L51.64 27.22L51.57 27.22ZM51.13 27.38L51.13 27.46L51.13 27.54L51.2 27.54L51.28 27.54L51.35 27.54L51.42 27.54L51.42 27.46L51.42 27.38L51.42 27.3L51.42 27.22L51.35 27.22L51.28 27.22L51.2 27.22L51.13 27.22L51.13 27.3L51.13 27.38ZM45.9 27.07L45.85 27.14L45.83 27.24L45.85 27.34L45.9 27.42L45.98 27.43L46.07 27.44L46.15 27.42L46.22 27.37L46.23 27.3L46.23 27.24L46.23 27.18L46.22 27.12L46.15 27.06L46.07 27.05L45.98 27.06L45.9 27.07ZM4.56 27.01L4.51 27.08L4.5 27.17L4.51 27.26L4.53 27.35L4.62 27.37L4.71 27.38L4.8 27.37L4.88 27.32L4.89 27.24L4.89 27.16L4.88 27.08L4.83 27.02L4.77 27L4.7 27L4.63 27L4.56 27.01ZM4.03 27.02L3.98 27.09L3.96 27.19L3.98 27.29L4.03 27.36L4.11 27.38L4.2 27.38L4.28 27.37L4.35 27.31L4.36 27.25L4.36 27.19L4.36 27.13L4.35 27.06L4.28 27.01L4.2 27L4.11 27L4.03 27.02ZM5.09 27.02L5.04 27.09L5.02 27.19L5.04 27.29L5.09 27.37L5.17 27.38L5.26 27.38L5.34 27.37L5.41 27.32L5.42 27.25L5.42 27.19L5.42 27.13L5.41 27.06L5.34 27.01L5.26 27L5.17 27L5.09 27.02ZM26.58 27.02L26.53 27.07L26.51 27.15L26.52 27.24L26.53 27.32L26.59 27.36L26.66 27.38L26.74 27.38L26.81 27.37L26.88 27.33L26.91 27.25L26.91 27.15L26.9 27.06L26.83 27.01L26.74 27L26.66 27L26.58 27.02ZM27.11 27.02L27.06 27.07L27.04 27.15L27.05 27.24L27.06 27.32L27.11 27.36L27.19 27.38L27.26 27.38L27.34 27.37L27.41 27.33L27.44 27.25L27.44 27.15L27.43 27.06L27.36 27.01L27.28 27L27.19 27L27.11 27.02ZM26 27.02L25.94 27.11L25.94 27.24L25.98 27.35L26.08 27.38L26.15 27.38L26.21 27.38L26.27 27.36L26.32 27.31L26.33 27.25L26.33 27.19L26.33 27.13L26.32 27.07L26.25 27.01L26.17 27L26.08 27L26 27.02ZM33.59 27.22L33.59 27.3L33.59 27.38L33.66 27.38L33.73 27.38L33.8 27.38L33.87 27.38L33.87 27.3L33.87 27.22L33.87 27.14L33.88 27.06L33.8 27.06L33.73 27.06L33.66 27.06L33.59 27.06L33.59 27.14L33.59 27.22ZM59.45 27L59.45 27.11L59.45 27.22L59.54 27.22L59.64 27.22L59.74 27.22L59.83 27.22L59.83 27.11L59.83 27L59.83 26.9L59.83 26.79L59.74 26.79L59.64 26.79L59.54 26.79L59.45 26.79L59.45 26.9L59.45 27ZM41.79 26.52L41.72 26.54L41.64 26.57L41.64 26.72L41.64 26.87L41.64 27.03L41.64 27.18L41.77 27.18L41.9 27.18L42.04 27.18L42.17 27.18L42.11 27L42.06 26.82L42 26.64L41.94 26.46L41.87 26.49L41.79 26.52ZM51.13 26.9L51.13 26.98L51.13 27.06L51.2 27.06L51.27 27.06L51.35 27.06L51.42 27.06L51.42 26.98L51.42 26.9L51.42 26.82L51.42 26.74L51.35 26.74L51.28 26.74L51.2 26.74L51.13 26.74L51.13 26.82L51.13 26.9ZM51.56 26.9L51.56 26.98L51.57 27.06L51.64 27.06L51.71 27.06L51.78 27.06L51.85 27.06L51.85 26.98L51.85 26.9L51.85 26.82L51.85 26.74L51.78 26.74L51.71 26.74L51.64 26.74L51.57 26.74L51.56 26.82L51.56 26.9ZM41.04 26.64L41 26.71L40.98 26.78L40.99 26.87L41 26.95L41.07 26.99L41.15 27.01L41.23 27.01L41.31 26.99L41.37 26.94L41.38 26.86L41.37 26.77L41.36 26.69L41.3 26.64L41.21 26.62L41.13 26.63L41.04 26.64ZM40.47 26.64L40.41 26.74L40.4 26.87L40.45 26.97L40.56 27.01L40.62 27.01L40.68 27.01L40.74 26.99L40.79 26.94L40.8 26.88L40.8 26.82L40.8 26.76L40.79 26.7L40.72 26.64L40.64 26.62L40.55 26.63L40.47 26.64ZM54.83 26.79L54.83 26.9L54.83 27L54.93 27L55.02 27L55.12 27L55.22 27L55.22 26.9L55.22 26.79L55.22 26.69L55.22 26.58L55.12 26.58L55.03 26.58L54.93 26.58L54.83 26.58L54.83 26.68L54.83 26.79ZM46.52 26.64L46.48 26.71L46.47 26.8L46.46 26.89L46.45 26.97L46.54 26.99L46.62 27L46.71 27L46.8 26.99L46.84 26.93L46.86 26.86L46.85 26.77L46.85 26.69L46.78 26.64L46.69 26.63L46.61 26.63L46.52 26.64ZM49.19 25.59L49.3 25.83L49.55 26.3L49.75 26.3L50 26.36L50.23 26.54L50.36 26.94L50.54 26.76L50.71 26.58L50.83 26.36L50.85 26.1L50.78 26.03L50.6 25.91L50.12 25.6L49.17 24.99L49.17 25.38L49.19 25.59ZM13.8 26.37L13.75 26.37L13.69 26.37L13.68 26.5L13.68 26.63L13.68 26.76L13.68 26.9L13.74 26.9L13.8 26.9L13.86 26.9L13.92 26.9L13.93 26.77L13.93 26.63L13.93 26.5L13.92 26.37L13.86 26.37L13.8 26.37ZM33.59 26.74L33.59 26.82L33.59 26.9L33.66 26.9L33.73 26.9L33.8 26.9L33.87 26.9L33.87 26.82L33.87 26.74L33.87 26.66L33.88 26.58L33.8 26.58L33.73 26.58L33.66 26.58L33.59 26.58L33.59 26.66L33.59 26.74ZM14.02 26.37L14.02 26.5L14.02 26.63L14.02 26.76L14.02 26.9L14.08 26.9L14.14 26.9L14.2 26.9L14.26 26.9L14.26 26.77L14.26 26.63L14.26 26.5L14.26 26.37L14.2 26.37L14.14 26.37L14.08 26.37L14.02 26.37ZM13.35 26.37L13.35 26.5L13.35 26.63L13.35 26.76L13.35 26.9L13.41 26.9L13.47 26.9L13.53 26.9L13.59 26.9L13.59 26.77L13.59 26.63L13.59 26.5L13.59 26.37L13.53 26.37L13.47 26.37L13.41 26.37L13.35 26.37ZM13.01 26.37L13.01 26.5L13.01 26.63L13.01 26.76L13.01 26.9L13.07 26.9L13.13 26.9L13.19 26.9L13.25 26.9L13.25 26.76L13.25 26.63L13.25 26.5L13.25 26.37L13.19 26.37L13.13 26.37L13.07 26.37L13.01 26.37ZM4.03 26.48L3.98 26.56L3.96 26.66L3.98 26.76L4.03 26.83L4.11 26.85L4.2 26.85L4.28 26.84L4.35 26.78L4.36 26.72L4.36 26.66L4.36 26.6L4.35 26.53L4.28 26.48L4.2 26.46L4.11 26.47L4.03 26.48ZM4.56 26.48L4.51 26.57L4.49 26.69L4.52 26.79L4.6 26.84L4.68 26.85L4.75 26.85L4.82 26.83L4.88 26.79L4.89 26.71L4.89 26.64L4.88 26.57L4.86 26.5L4.79 26.47L4.71 26.47L4.63 26.47L4.56 26.48ZM5.09 26.48L5.04 26.55L5.03 26.64L5.04 26.73L5.05 26.82L5.13 26.84L5.21 26.85L5.28 26.85L5.36 26.83L5.41 26.77L5.42 26.69L5.42 26.61L5.41 26.53L5.34 26.48L5.26 26.47L5.17 26.47L5.09 26.48ZM26.58 26.43L26.53 26.5L26.51 26.58L26.52 26.68L26.54 26.76L26.63 26.79L26.73 26.8L26.82 26.79L26.9 26.73L26.9 26.67L26.91 26.61L26.91 26.54L26.9 26.48L26.83 26.43L26.75 26.41L26.66 26.42L26.58 26.43ZM26 26.43L25.95 26.49L25.94 26.57L25.94 26.65L25.95 26.73L26.02 26.78L26.1 26.8L26.19 26.79L26.27 26.78L26.32 26.72L26.33 26.64L26.33 26.55L26.32 26.47L26.25 26.43L26.17 26.41L26.08 26.42L26 26.43ZM27.1 26.43L27.05 26.53L27.04 26.66L27.09 26.76L27.19 26.8L27.25 26.8L27.32 26.79L27.38 26.78L27.42 26.73L27.43 26.67L27.44 26.6L27.43 26.54L27.43 26.48L27.36 26.43L27.27 26.41L27.19 26.42L27.1 26.43ZM45.9 26.43L45.84 26.53L45.84 26.65L45.88 26.76L45.99 26.8L46.05 26.8L46.12 26.79L46.18 26.78L46.22 26.73L46.23 26.67L46.23 26.6L46.23 26.54L46.22 26.48L46.16 26.43L46.07 26.41L45.98 26.42L45.9 26.43ZM42.02 24.46L42.14 24.75L42.33 25.05L42.43 25.44L42.33 25.99L42.29 26.15L42.31 26.31L42.35 26.47L42.39 26.63L42.48 26.53L42.57 26.42L42.67 26.32L42.77 26.23L42.96 26.21L43.15 26.22L43.34 26.22L43.53 26.2L43.63 26.13L43.72 26.04L43.8 25.95L43.89 25.85L44.09 25.85L44.29 25.85L44.5 25.85L44.7 25.85L44.7 25.99L44.71 26.13L44.71 26.28L44.71 26.42L44.9 26.3L45.09 26.18L45.28 26.06L45.47 25.93L45.34 25.58L45.24 25.21L45.16 24.84L45.12 24.46L44.35 24.45L43.57 24.45L42.8 24.45L42.02 24.46ZM51.71 26.26L51.64 26.26L51.56 26.26L51.56 26.34L51.56 26.42L51.56 26.5L51.57 26.58L51.64 26.58L51.71 26.58L51.78 26.58L51.85 26.58L51.85 26.5L51.85 26.42L51.85 26.34L51.85 26.26L51.78 26.26L51.71 26.26ZM51.13 26.42L51.13 26.5L51.13 26.58L51.2 26.58L51.28 26.58L51.35 26.58L51.42 26.58L51.42 26.5L51.42 26.42L51.42 26.34L51.42 26.26L51.35 26.26L51.28 26.26L51.2 26.26L51.13 26.26L51.13 26.34L51.13 26.42ZM59.54 26.15L59.45 26.15L59.45 26.26L59.45 26.37L59.45 26.47L59.45 26.58L59.54 26.58L59.64 26.58L59.74 26.58L59.83 26.58L59.83 26.47L59.83 26.37L59.83 26.26L59.83 26.15L59.74 26.15L59.64 26.15L59.54 26.15ZM40.47 26.06L40.41 26.15L40.4 26.28L40.45 26.39L40.55 26.42L40.61 26.42L40.68 26.42L40.74 26.41L40.79 26.36L40.8 26.3L40.8 26.23L40.8 26.17L40.79 26.11L40.72 26.06L40.64 26.04L40.55 26.04L40.47 26.06ZM41.04 26.06L40.99 26.16L40.98 26.28L41.03 26.39L41.13 26.42L41.19 26.42L41.26 26.42L41.32 26.41L41.36 26.36L41.37 26.28L41.38 26.2L41.36 26.12L41.32 26.06L41.25 26.05L41.18 26.04L41.11 26.05L41.04 26.06ZM8.78 25.89L8.78 26.02L8.78 26.15L8.78 26.29L8.78 26.42L8.84 26.42L8.9 26.42L8.96 26.42L9.02 26.42L9.02 26.29L9.02 26.15L9.02 26.02L9.02 25.89L8.96 25.89L8.9 25.89L8.84 25.89L8.78 25.89ZM8.56 25.89L8.5 25.89L8.45 25.89L8.45 26.02L8.45 26.15L8.45 26.29L8.45 26.42L8.51 26.42L8.57 26.42L8.63 26.42L8.69 26.42L8.69 26.29L8.69 26.02L8.68 25.89L8.62 25.89L8.56 25.89ZM7.1 26.02L7.1 26.15L7.1 26.29L7.1 26.42L7.16 26.42L7.22 26.42L7.28 26.42L7.34 26.42L7.34 26.29L7.34 26.15L7.34 26.02L7.34 25.89L7.28 25.89L7.22 25.89L7.16 25.89L7.1 25.89L7.1 26.02ZM7.77 25.89L7.77 26.02L7.77 26.15L7.77 26.29L7.77 26.42L7.83 26.42L7.89 26.42L7.95 26.42L8.01 26.42L8.01 26.29L8.01 26.15L8.01 26.02L8.01 25.89L7.95 25.89L7.89 25.89L7.83 25.89L7.77 25.89ZM7.44 26.15L7.44 26.29L7.44 26.42L7.5 26.42L7.56 26.42L7.62 26.42L7.68 26.42L7.68 26.29L7.68 26.15L7.68 26.02L7.68 25.89L7.62 25.89L7.56 25.89L7.5 25.89L7.44 25.89L7.44 26.02L7.44 26.15ZM8.11 26.02L8.11 26.15L8.11 26.29L8.11 26.42L8.17 26.42L8.23 26.42L8.29 26.42L8.35 26.42L8.35 26.29L8.35 26.15L8.35 26.02L8.35 25.89L8.29 25.89L8.23 25.89L8.17 25.89L8.11 25.89L8.11 26.02ZM33.59 26.1L33.59 26.18L33.59 26.26L33.59 26.34L33.59 26.42L33.66 26.42L33.73 26.42L33.8 26.42L33.87 26.42L33.87 26.34L33.87 26.26L33.87 26.18L33.87 26.1L33.8 26.1L33.73 26.1L33.66 26.1L33.59 26.1ZM46.52 26.01L46.47 26.08L46.46 26.18L46.47 26.28L46.52 26.36L46.61 26.37L46.69 26.37L46.78 26.36L46.85 26.31L46.85 26.25L46.86 26.18L46.85 26.12L46.85 26.06L46.78 26L46.69 25.99L46.6 25.99L46.52 26.01ZM54.83 26.15L54.83 26.26L54.83 26.37L54.93 26.37L55.03 26.37L55.12 26.37L55.22 26.37L55.22 26.26L55.22 26.15L55.22 26.05L55.22 25.94L55.12 25.94L55.03 25.94L54.93 25.94L54.83 25.94L54.83 26.05L54.83 26.15ZM47.28 25.15L46.96 25.35L46.64 25.56L46.76 25.57L46.87 25.57L46.99 25.57L47.11 25.57L47.11 25.75L47.12 25.92L47.13 26.1L47.14 26.27L47.35 25.9L47.55 25.52L47.74 25.14L47.93 24.76L47.6 24.94L47.28 25.15ZM3.45 25.97L3.45 26.07L3.5 26.14L3.58 26.16L3.67 26.16L3.76 26.15L3.82 26.09L3.83 26.03L3.83 25.97L3.83 25.9L3.82 25.84L3.74 25.79L3.65 25.78L3.56 25.78L3.47 25.77L3.46 25.87L3.45 25.97ZM27.11 25.8L27.06 25.86L27.04 25.96L27.05 26.07L27.1 26.14L27.19 26.16L27.28 26.16L27.36 26.15L27.43 26.09L27.43 26.01L27.44 25.93L27.42 25.85L27.38 25.79L27.31 25.78L27.24 25.78L27.17 25.78L27.11 25.8ZM26.53 25.85L26.51 25.93L26.52 26.01L26.53 26.09L26.6 26.15L26.68 26.16L26.77 26.16L26.85 26.14L26.89 26.08L26.91 26L26.91 25.92L26.9 25.85L26.83 25.79L26.75 25.77L26.66 25.78L26.58 25.79L26.53 25.85ZM4.03 25.79L3.98 25.87L3.97 25.97L3.98 26.06L4.03 26.14L4.11 26.16L4.2 26.16L4.28 26.15L4.35 26.09L4.36 26.03L4.36 25.97L4.36 25.9L4.35 25.84L4.28 25.79L4.2 25.77L4.11 25.78L4.03 25.79ZM26 25.79L25.95 25.87L25.93 25.96L25.95 26.06L25.99 26.14L26.08 26.16L26.16 26.16L26.25 26.15L26.32 26.1L26.33 26.03L26.33 25.97L26.33 25.9L26.32 25.84L26.25 25.79L26.17 25.77L26.08 25.78L26 25.79ZM2.9 25.81L2.91 25.9L2.92 25.99L2.93 26.07L2.97 26.14L3.19 26.16L3.29 26.09L3.31 25.98L3.29 25.85L3.21 25.78L3.11 25.78L3 25.8L2.9 25.81ZM51.56 25.78L51.56 25.86L51.56 25.94L51.56 26.02L51.57 26.1L51.64 26.1L51.71 26.1L51.78 26.1L51.85 26.1L51.85 26.02L51.85 25.94L51.85 25.86L51.85 25.78L51.78 25.78L51.71 25.78L51.64 25.78L51.56 25.78ZM51.13 25.78L51.13 25.86L51.13 25.94L51.13 26.02L51.13 26.1L51.2 26.1L51.28 26.1L51.35 26.1L51.42 26.1L51.42 26.02L51.42 25.94L51.42 25.86L51.42 25.78L51.35 25.78L51.28 25.78L51.2 25.78L51.13 25.78ZM45.95 26.01L45.87 26.07L45.96 26.07L46.04 26.06L46.13 26.06L46.21 26.05L46.21 26L46.21 25.94L46.21 25.89L46.21 25.83L46.12 25.89L46.04 25.95L45.95 26.01ZM13.07 25.52L13.01 25.52L13.01 25.65L13.01 25.78L13.01 25.92L13.01 26.05L13.07 26.05L13.13 26.05L13.19 26.05L13.25 26.05L13.25 25.91L13.25 25.78L13.25 25.65L13.25 25.52L13.19 25.52L13.13 25.52L13.07 25.52ZM13.69 25.52L13.68 25.65L13.68 25.78L13.68 25.91L13.69 26.05L13.75 26.05L13.8 26.05L13.86 26.05L13.93 26.05L13.93 25.91L13.93 25.78L13.93 25.65L13.92 25.52L13.86 25.52L13.8 25.52L13.75 25.52L13.69 25.52ZM14.02 25.78L14.02 25.91L14.02 26.05L14.08 26.05L14.14 26.05L14.2 26.05L14.26 26.05L14.26 25.92L14.26 25.78L14.26 25.65L14.26 25.52L14.2 25.52L14.14 25.52L14.08 25.52L14.02 25.52L14.02 25.65L14.02 25.78ZM13.35 25.52L13.35 25.65L13.35 25.78L13.35 25.91L13.35 26.05L13.41 26.05L13.47 26.05L13.53 26.05L13.59 26.05L13.59 25.91L13.59 25.78L13.59 25.65L13.59 25.52L13.53 25.52L13.47 25.52L13.41 25.52L13.35 25.52ZM33.59 25.78L33.59 25.86L33.59 25.94L33.66 25.94L33.73 25.94L33.8 25.94L33.87 25.94L33.87 25.86L33.87 25.78L33.87 25.7L33.88 25.62L33.8 25.62L33.73 25.62L33.66 25.62L33.59 25.62L33.59 25.7L33.59 25.78ZM59.45 25.52L59.45 25.62L59.45 25.73L59.45 25.83L59.45 25.94L59.54 25.94L59.64 25.94L59.74 25.94L59.83 25.94L59.83 25.84L59.83 25.73L59.83 25.62L59.83 25.52L59.74 25.52L59.64 25.52L59.54 25.52L59.45 25.52ZM45.31 24.46L45.35 24.81L45.42 25.15L45.52 25.49L45.65 25.82L46.01 25.59L46.67 25.17L47.34 24.74L47.75 24.46L47.14 24.45L46.53 24.45L45.92 24.45L45.31 24.46ZM40.47 25.42L40.42 25.49L40.4 25.59L40.42 25.69L40.47 25.77L40.55 25.78L40.64 25.79L40.72 25.77L40.79 25.72L40.8 25.66L40.8 25.59L40.8 25.53L40.79 25.47L40.72 25.42L40.64 25.4L40.55 25.41L40.47 25.42ZM41.05 25.42L41 25.49L40.98 25.59L40.99 25.7L41.04 25.77L41.13 25.78L41.21 25.79L41.3 25.77L41.37 25.72L41.37 25.66L41.38 25.6L41.37 25.53L41.37 25.47L41.3 25.42L41.22 25.4L41.13 25.41L41.05 25.42ZM54.83 25.52L54.83 25.62L54.83 25.73L54.93 25.73L55.03 25.73L55.12 25.73L55.22 25.73L55.22 25.62L55.22 25.52L55.22 25.41L55.22 25.3L55.12 25.3L55.02 25.3L54.93 25.3L54.83 25.3L54.83 25.41L54.83 25.52ZM49.13 24.46L49.17 24.57L49.23 24.65L49.31 24.73L49.4 24.78L49.76 25.01L50.12 25.24L50.48 25.47L50.85 25.69L50.85 25.5L50.85 25.31L50.85 25.12L50.85 24.93L51 24.92L51.16 24.92L51.31 24.92L51.46 24.92L51.48 24.8L51.49 24.69L51.5 24.57L51.52 24.46L50.92 24.45L50.33 24.45L49.73 24.45L49.13 24.46ZM3.46 25.32L3.44 25.4L3.44 25.48L3.45 25.56L3.52 25.61L3.6 25.63L3.69 25.62L3.77 25.61L3.82 25.54L3.83 25.46L3.84 25.36L3.85 25.28L3.76 25.27L3.67 25.26L3.58 25.25L3.5 25.26L3.46 25.32ZM2.97 25.26L2.92 25.36L2.91 25.49L2.95 25.59L3.06 25.63L3.12 25.63L3.18 25.63L3.25 25.61L3.29 25.56L3.3 25.5L3.31 25.44L3.3 25.37L3.29 25.31L3.23 25.26L3.14 25.24L3.06 25.25L2.97 25.26ZM4.03 25.26L3.97 25.36L3.97 25.48L4.01 25.59L4.11 25.63L4.22 25.63L4.3 25.61L4.36 25.52L4.35 25.31L4.28 25.26L4.2 25.24L4.11 25.25L4.03 25.26ZM51.56 25.3L51.56 25.38L51.56 25.46L51.56 25.54L51.57 25.62L51.64 25.62L51.71 25.62L51.78 25.62L51.85 25.62L51.85 25.54L51.85 25.46L51.85 25.38L51.85 25.3L51.78 25.3L51.71 25.3L51.64 25.3L51.56 25.3ZM51.13 25.46L51.13 25.54L51.13 25.62L51.2 25.62L51.28 25.62L51.35 25.62L51.42 25.62L51.42 25.54L51.42 25.46L51.42 25.38L51.42 25.3L51.35 25.3L51.28 25.3L51.2 25.3L51.13 25.3L51.13 25.38L51.13 25.46ZM33.73 25.14L33.66 25.14L33.59 25.14L33.59 25.22L33.59 25.3L33.59 25.38L33.59 25.46L33.66 25.46L33.73 25.46L33.8 25.46L33.88 25.46L33.87 25.38L33.87 25.3L33.87 25.22L33.87 25.14L33.8 25.14L33.73 25.14ZM21.38 25.05L21.33 25.13L21.32 25.22L21.33 25.32L21.38 25.4L21.46 25.41L21.55 25.42L21.64 25.4L21.71 25.35L21.71 25.29L21.72 25.22L21.71 25.16L21.71 25.1L21.64 25.05L21.55 25.03L21.46 25.04L21.38 25.05ZM59.54 24.88L59.45 24.88L59.45 24.98L59.45 25.09L59.45 25.2L59.45 25.3L59.54 25.3L59.64 25.3L59.74 25.3L59.83 25.3L59.83 25.2L59.83 25.09L59.83 24.98L59.83 24.88L59.74 24.88L59.64 24.88L59.54 24.88ZM16.09 24.88L16.09 24.96L16.09 25.04L16.09 25.12L16.09 25.2L16.16 25.2L16.23 25.2L16.3 25.2L16.38 25.2L16.38 25.12L16.38 25.04L16.38 24.96L16.38 24.88L16.3 24.88L16.23 24.88L16.16 24.88L16.09 24.88ZM17.39 24.88L17.39 24.96L17.39 25.04L17.39 25.12L17.39 25.2L17.46 25.2L17.53 25.2L17.6 25.2L17.67 25.2L17.67 25.12L17.67 25.04L17.67 24.96L17.67 24.88L17.6 24.88L17.53 24.88L17.46 24.88L17.39 24.88ZM16.95 24.88L16.95 24.96L16.95 25.04L16.95 25.12L16.95 25.2L17.03 25.2L17.1 25.2L17.17 25.2L17.24 25.2L17.24 25.12L17.24 25.04L17.24 24.96L17.24 24.88L17.17 24.88L17.1 24.88L17.03 24.88L16.95 24.88ZM17.89 24.88L17.82 24.88L17.82 24.96L17.82 25.04L17.82 25.12L17.82 25.2L17.89 25.2L17.96 25.2L18.04 25.2L18.11 25.2L18.11 25.12L18.11 25.04L18.11 24.96L18.11 24.88L18.04 24.88L17.96 24.88L17.89 24.88ZM16.52 25.04L16.52 25.12L16.52 25.2L16.59 25.2L16.66 25.2L16.74 25.2L16.81 25.2L16.81 25.12L16.81 25.04L16.81 24.96L16.81 24.88L16.74 24.88L16.67 24.88L16.59 24.88L16.52 24.88L16.52 24.96L16.52 25.04ZM3.98 24.91L3.98 25L4.03 25.08L4.11 25.09L4.2 25.1L4.28 25.08L4.35 25.03L4.36 24.95L4.37 24.87L4.35 24.79L4.3 24.74L4.23 24.72L4.15 24.72L4.08 24.71L4 24.71L3.99 24.8L3.98 24.91ZM2.98 24.73L2.93 24.8L2.91 24.89L2.92 25L2.97 25.08L3.05 25.09L3.14 25.1L3.22 25.08L3.3 25.03L3.3 24.95L3.31 24.87L3.29 24.79L3.25 24.73L3.18 24.72L3.11 24.71L3.04 24.72L2.98 24.73ZM3.43 24.75L3.44 24.83L3.44 24.93L3.46 25.01L3.51 25.08L3.57 25.09L3.64 25.1L3.71 25.09L3.77 25.08L3.82 25.02L3.84 24.94L3.83 24.86L3.82 24.78L3.74 24.72L3.64 24.72L3.53 24.74L3.43 24.75ZM54.83 24.67L54.83 24.77L54.83 24.88L54.83 24.98L54.83 25.09L54.93 25.09L55.02 25.09L55.12 25.09L55.22 25.09L55.22 24.99L55.22 24.88L55.22 24.77L55.22 24.67L55.12 24.67L55.03 24.67L54.93 24.67L54.83 24.67ZM33.59 24.82L33.59 24.9L33.59 24.99L33.66 24.98L33.73 24.98L33.8 24.98L33.87 24.99L33.87 24.91L33.87 24.83L33.87 24.75L33.87 24.67L33.8 24.67L33.73 24.67L33.66 24.67L33.59 24.67L33.59 24.75L33.59 24.82ZM59.45 24.35L59.45 24.45L59.45 24.56L59.45 24.67L59.54 24.67L59.64 24.67L59.74 24.67L59.83 24.67L59.83 24.56L59.83 24.45L59.83 24.35L59.83 24.24L59.74 24.24L59.64 24.24L59.54 24.24L59.45 24.24L59.45 24.35ZM48.06 23.92L48 24.09L47.99 24.26L48.01 24.44L48.06 24.61L48.09 24.61L48.14 24.62L48.18 24.63L48.22 24.64L48.22 24.51L48.22 24.38L48.22 24.25L48.22 24.13L48.33 24.12L48.44 24.12L48.56 24.12L48.67 24.11L48.65 24.02L48.63 23.97L48.62 23.92L48.48 23.88L48.34 23.87L48.2 23.88L48.06 23.92ZM21.39 24.2L21.33 24.27L21.32 24.37L21.33 24.47L21.38 24.55L21.47 24.56L21.55 24.57L21.64 24.55L21.71 24.5L21.71 24.44L21.72 24.37L21.71 24.31L21.7 24.25L21.64 24.2L21.56 24.18L21.47 24.19L21.39 24.2ZM16.18 24.22L16.19 24.36L16.19 24.51L16.21 24.51L16.26 24.51L16.28 24.5L16.28 24.36L16.28 24.21L16.28 24.07L16.28 23.92L16.26 23.92L16.23 23.92L16.21 23.92L16.19 23.92L16.18 24.07L16.18 24.22ZM16.95 24.07L16.95 24.22L16.95 24.36L16.95 24.51L16.98 24.51L17.03 24.51L17.05 24.51L17.05 24.36L17.05 24.21L17.05 24.07L17.05 23.92L16.95 23.92L16.95 24.07ZM16.76 23.92L16.76 24.07L16.76 24.21L16.76 24.36L16.76 24.51L16.78 24.51L16.84 24.51L16.86 24.51L16.86 24.36L16.86 24.21L16.86 24.07L16.86 23.92L16.78 23.92L16.76 23.92ZM33.73 24.19L33.66 24.19L33.59 24.19L33.59 24.27L33.59 24.35L33.59 24.43L33.59 24.51L33.66 24.51L33.73 24.51L33.8 24.51L33.88 24.51L33.87 24.43L33.87 24.35L33.87 24.27L33.87 24.19L33.8 24.19L33.73 24.19ZM17.39 23.92L17.36 23.92L17.34 23.92L17.34 24.07L17.34 24.21L17.34 24.36L17.34 24.51L17.43 24.51L17.43 24.36L17.43 24.21L17.43 24.07L17.43 23.92L17.41 23.92L17.39 23.92ZM16.38 23.92L16.38 24.07L16.38 24.21L16.38 24.36L16.38 24.51L16.4 24.51L16.45 24.51L16.47 24.51L16.47 24.36L16.47 24.21L16.47 24.07L16.47 23.92L16.45 23.92L16.4 23.92L16.38 23.92ZM17.55 23.92L17.53 23.92L17.53 24.07L17.53 24.22L17.53 24.36L17.53 24.51L17.55 24.51L17.6 24.51L17.63 24.51L17.63 24.36L17.63 24.21L17.63 24.07L17.63 23.92L17.6 23.92L17.55 23.92ZM17.17 23.92L17.15 23.92L17.15 24.07L17.15 24.21L17.15 24.36L17.15 24.51L17.17 24.51L17.22 24.51L17.24 24.51L17.24 24.36L17.24 24.21L17.24 24.07L17.24 23.92L17.22 23.92L17.17 23.92ZM16.62 23.92L16.59 23.92L16.57 23.92L16.57 24.07L16.57 24.22L16.57 24.36L16.57 24.51L16.59 24.51L16.64 24.51L16.66 24.51L16.66 24.36L16.67 24.21L16.66 24.07L16.66 23.92L16.64 23.92L16.62 23.92ZM54.83 24.24L54.83 24.35L54.83 24.45L54.93 24.45L55.02 24.45L55.12 24.45L55.22 24.45L55.22 24.35L55.22 24.24L55.22 24.14L55.22 24.03L55.12 24.03L55.03 24.03L54.93 24.03L54.83 24.03L54.83 24.13L54.83 24.24ZM50.18 23.26L49.86 23.47L49.62 23.62L49.38 23.77L49.14 23.93L48.91 24.09L49.48 24.13L50.32 24.14L51.1 24.14L51.52 24.13L51.48 23.75L51.41 23.37L51.3 23L51.16 22.65L50.83 22.85L50.5 23.05L50.18 23.26ZM45.42 23.41L45.35 23.77L45.31 24.13L45.68 24.14L46.46 24.14L47.29 24.13L47.79 24.1L47.38 23.82L46.7 23.38L46.03 22.96L45.65 22.72L45.52 23.06L45.42 23.41ZM51.83 22.2L51.32 22.54L51.47 22.92L51.59 23.31L51.67 23.72L51.71 24.13L52.4 24.13L53.08 24.14L53.76 24.14L54.45 24.13L54.42 23.75L54.38 23.37L54.33 22.99L54.25 22.61L53.79 22.42L53.5 22.11L53.36 21.71L53.37 21.22L52.86 21.55L52.35 21.88L51.83 22.2ZM43.15 22.18L42.79 22.48L42.25 22.61L42.17 22.99L42.11 23.37L42.07 23.75L42.05 24.13L42.82 24.13L43.58 24.14L44.35 24.13L45.12 24.13L45.16 23.74L45.23 23.35L45.34 22.97L45.47 22.6L44.93 22.25L44.39 21.91L43.85 21.56L43.32 21.22L43.32 21.75L43.15 22.18ZM55.02 23.39L54.93 23.39L54.83 23.39L54.83 23.5L54.83 23.6L54.83 23.71L54.83 23.82L54.93 23.82L55.03 23.82L55.12 23.82L55.22 23.82L55.22 23.71L55.22 23.6L55.22 23.5L55.22 23.39L55.12 23.39L55.02 23.39ZM46.21 21.86L46 22.12L45.81 22.42L46.16 22.67L46.82 23.1L47.5 23.53L47.93 23.78L47.69 23.31L47.29 22.53L46.9 21.79L46.7 21.41L46.45 21.62L46.21 21.86ZM49.64 22.07L49.45 22.44L49.25 22.81L49.13 23.05L49 23.29L48.87 23.53L48.76 23.78L49.19 23.52L49.93 23.06L50.64 22.6L51 22.37L50.79 22.07L50.56 21.8L50.3 21.55L50.02 21.34L49.83 21.7L49.64 22.07ZM21.38 23.4L21.33 23.51L21.32 23.63L21.37 23.73L21.47 23.77L21.53 23.77L21.6 23.77L21.66 23.75L21.71 23.7L21.71 23.64L21.72 23.58L21.71 23.51L21.7 23.45L21.64 23.4L21.55 23.38L21.46 23.39L21.38 23.4ZM16.86 23.36L16.86 23.51L16.86 23.66L16.88 23.66L16.91 23.66L16.93 23.66L16.95 23.66L16.95 23.51L16.95 23.36L16.95 23.22L16.95 23.07L16.93 23.07L16.91 23.07L16.88 23.07L16.86 23.07L16.86 23.22L16.86 23.36ZM17.24 23.36L17.24 23.51L17.24 23.66L17.26 23.66L17.32 23.66L17.34 23.66L17.34 23.51L17.34 23.37L17.34 23.22L17.34 23.08L17.32 23.07L17.27 23.07L17.24 23.07L17.24 23.22L17.24 23.36ZM16.47 23.36L16.47 23.51L16.47 23.66L16.5 23.66L16.55 23.66L16.57 23.66L16.57 23.51L16.57 23.36L16.57 23.22L16.57 23.07L16.55 23.07L16.5 23.07L16.47 23.07L16.47 23.22L16.47 23.36ZM16.71 23.07L16.69 23.07L16.67 23.08L16.67 23.22L16.66 23.37L16.66 23.51L16.67 23.66L16.76 23.66L16.76 23.51L16.76 23.36L16.76 23.22L16.76 23.07L16.74 23.07L16.71 23.07ZM17.05 23.22L17.05 23.36L17.05 23.51L17.05 23.66L17.15 23.66L17.15 23.51L17.15 23.36L17.15 23.22L17.15 23.07L17.05 23.07L17.05 23.22ZM48.49 22.23L48.49 22.92L48.49 23.61L48.81 23.01L49.13 22.4L49.45 21.8L49.77 21.19L49.46 21.04L49.15 20.94L48.82 20.87L48.49 20.84L48.49 21.53L48.49 22.23ZM47.56 20.98L47.25 21.09L46.95 21.24L47.26 21.83L47.57 22.43L47.88 23.02L48.19 23.61L48.2 22.92L48.2 22.23L48.2 21.54L48.2 20.84L47.88 20.89L47.56 20.98ZM21.38 22.55L21.33 22.65L21.32 22.78L21.37 22.88L21.47 22.92L21.57 22.92L21.66 22.9L21.71 22.81L21.71 22.6L21.63 22.55L21.55 22.53L21.46 22.54L21.38 22.55ZM45.25 19.59L45.05 19.69L44.84 19.72L44.61 19.71L44.39 19.63L44.2 19.5L44.02 19.34L43.74 19.64L43.49 19.96L43.25 20.3L43.03 20.65L43.51 20.98L44.31 21.49L45.11 22L45.63 22.32L45.83 22.01L46.07 21.72L46.33 21.46L46.6 21.22L46.35 20.73L46.1 20.25L45.85 19.77L45.59 19.29L45.43 19.45L45.25 19.59ZM51.78 19.84L51.39 19.75L51 19.46L50.78 19.88L50.56 20.3L50.34 20.72L50.12 21.14L50.42 21.38L50.7 21.65L50.95 21.94L51.17 22.26L51.76 21.88L52.35 21.51L52.94 21.13L53.52 20.75L53.31 20.39L53.07 20.05L52.82 19.72L52.54 19.41L52.16 19.73L51.78 19.84ZM21.38 21.7L21.34 21.76L21.32 21.84L21.33 21.92L21.33 22L21.39 22.05L21.47 22.07L21.54 22.07L21.62 22.06L21.69 22.02L21.72 21.94L21.72 21.84L21.7 21.76L21.64 21.7L21.56 21.68L21.47 21.69L21.38 21.7ZM21.39 20.91L21.33 20.98L21.32 21.08L21.33 21.18L21.38 21.25L21.47 21.27L21.55 21.27L21.64 21.26L21.71 21.2L21.71 21.13L21.72 21.04L21.7 20.97L21.66 20.9L21.59 20.89L21.52 20.89L21.45 20.89L21.39 20.91ZM46.49 17.78L46.06 17.93L45.65 18.13L45.71 18.36L45.73 18.6L45.75 18.84L45.81 19.07L46.07 19.57L46.33 20.06L46.59 20.56L46.85 21.05L47.17 20.9L47.51 20.77L47.85 20.68L48.2 20.63L48.2 20.17L48.2 19.7L48.2 19.24L48.2 18.78L47.85 18.61L47.6 18.38L47.44 18.05L47.37 17.56L46.92 17.65L46.49 17.78ZM49.12 18.34L48.88 18.58L48.49 18.77L48.49 19.24L48.49 19.7L48.49 20.16L48.49 20.62L48.84 20.66L49.19 20.73L49.54 20.85L49.87 20.99L50.65 19.47L50.83 18.98L50.8 18.8L50.94 18.17L50.55 17.98L50.15 17.82L49.74 17.69L49.32 17.59L49.26 18.01L49.12 18.34ZM21.38 20.11L21.33 20.21L21.32 20.33L21.37 20.44L21.47 20.47L21.53 20.47L21.6 20.47L21.66 20.45L21.71 20.41L21.71 20.34L21.72 20.28L21.71 20.22L21.7 20.16L21.64 20.1L21.56 20.09L21.47 20.1L21.38 20.11ZM21.39 19.26L21.34 19.32L21.32 19.39L21.33 19.48L21.34 19.56L21.4 19.61L21.49 19.63L21.57 19.62L21.65 19.61L21.7 19.55L21.72 19.47L21.71 19.38L21.71 19.3L21.64 19.26L21.55 19.24L21.47 19.24L21.39 19.26ZM21.38 18.41L21.33 18.48L21.32 18.58L21.33 18.68L21.38 18.76L21.46 18.77L21.55 18.78L21.64 18.76L21.7 18.71L21.71 18.64L21.72 18.58L21.71 18.52L21.71 18.46L21.64 18.41L21.55 18.39L21.47 18.39L21.38 18.41ZM21.38 17.61L21.33 17.71L21.32 17.84L21.37 17.94L21.47 17.97L21.53 17.98L21.6 17.97L21.66 17.96L21.71 17.91L21.71 17.83L21.72 17.75L21.7 17.67L21.66 17.61L21.59 17.6L21.52 17.59L21.45 17.6L21.38 17.61Z" id="a3HSTfTcWH"></path></defs><g><g><g><use xlink:href="#b1cyWeIoeN" opacity="1" fill="#ff7119" fill-opacity="1"></use></g><g><use xlink:href="#c53AWm99o" opacity="1" fill="#ff2a2a" fill-opacity="1"></use></g><g><use xlink:href="#a3HSTfTcWH" opacity="1" fill="#ffffff" fill-opacity="1"></use></g></g></g></svg>