<?xml version="1.0" encoding="UTF-8" standalone="no"?>
<!DOCTYPE svg PUBLIC "-//W3C//DTD SVG 1.1//EN" "http://www.w3.org/Graphics/SVG/1.1/DTD/svg11.dtd">
<svg version="1.1" xmlns="http://www.w3.org/2000/svg" xmlns:xlink="http://www.w3.org/1999/xlink" preserveAspectRatio="xMidYMid meet" viewBox="0 0 64 64" width="64" height="64"><defs><path d="M64 32C64 49.66 49.66 64 32 64C14.34 64 0 49.66 0 32C0 14.34 14.34 0 32 0C49.66 0 64 14.34 64 32Z" id="b1FedPSBIH"></path><path d="M36.58 8.51C34.05 8.51 32 10.56 32 13.1C32 15.63 34.05 17.69 36.58 17.69C39.12 17.69 41.17 15.63 41.17 13.1C41.17 10.56 39.12 8.51 36.58 8.51ZM42.46 28C41.06 23.74 37.14 20.76 32.69 20.75C29.25 20.74 27.35 21.71 23.77 23.16C21.71 23.99 20.02 25.56 19.02 27.57C18.96 27.7 18.45 28.74 18.38 28.87C17.64 30.38 18.24 32.22 19.74 32.97C21.23 33.73 23.05 33.12 23.8 31.61C23.87 31.48 24.38 30.44 24.44 30.31C24.78 29.64 25.33 29.11 26.02 28.83C26.19 28.77 27.04 28.42 28.58 27.8C27.71 31.28 27.23 33.22 27.13 33.6C26.63 35.59 27.17 37.71 28.55 39.23C29.13 39.85 33.71 44.85 34.28 45.48C34.97 46.23 35.46 47.14 35.7 48.13C35.88 48.83 37.28 54.43 37.45 55.13C37.86 56.77 39.53 57.77 41.16 57.36C42.8 56.95 43.8 55.29 43.39 53.65C43.18 52.8 41.48 45.99 41.27 45.14C41.02 44.16 40.53 43.24 39.84 42.5C39.55 42.18 38.1 40.59 35.49 37.74C35.66 37.08 36.98 31.84 37.14 31.18C37.45 32.12 37.63 32.65 37.66 32.75C38.17 34.29 39.26 35.56 40.69 36.29C40.92 36.4 42.7 37.31 42.92 37.42C44.41 38.17 46.23 37.56 46.99 36.05C47.72 34.55 47.12 32.7 45.62 31.94C45.62 31.94 44.88 31.56 43.39 30.81C42.83 29.13 42.53 28.19 42.46 28ZM17.6 52.24C16.4 53.43 16.4 55.37 17.6 56.57C18.79 57.76 20.72 57.76 21.92 56.57C22.49 56 27.03 51.46 27.6 50.89C28.18 50.31 28.64 49.61 28.95 48.83C29.08 48.51 30.12 45.93 30.25 45.6C24.96 39.84 26.55 41.61 25.71 40.47C25.58 40.8 24.92 42.44 23.74 45.39C23.23 46.37 22.77 47.06 22.38 47.45C21.9 47.93 18.08 51.76 17.6 52.24Z" id="a1rTIlsw2V"></path><path d="M35.85 13.95L42.72 20.82L38.87 24.67L32 17.8L25.13 24.67L21.28 20.82L28.15 13.95L21.28 7.08L25.13 3.23L32 10.1L38.87 3.23L42.72 7.08L35.85 13.95Z" id="d4lmYQG4bV"></path></defs><g><g><g><use xlink:href="#b1FedPSBIH" opacity="1" fill="#c244f7" fill-opacity="1"></use></g><g><use xlink:href="#a1rTIlsw2V" opacity="1" fill="#ffffff" fill-opacity="1"></use><g><use xlink:href="#a1rTIlsw2V" opacity="1" fill-opacity="0" stroke="#000000" stroke-width="1" stroke-opacity="0"></use></g></g><g><use xlink:href="#d4lmYQG4bV" opacity="1" fill="#ff2a2a" fill-opacity="1"></use></g></g></g></svg>