<?xml version="1.0" encoding="UTF-8" standalone="no"?>
<!DOCTYPE svg PUBLIC "-//W3C//DTD SVG 1.1//EN" "http://www.w3.org/Graphics/SVG/1.1/DTD/svg11.dtd">
<svg version="1.1" xmlns="http://www.w3.org/2000/svg" xmlns:xlink="http://www.w3.org/1999/xlink" preserveAspectRatio="xMidYMid meet" viewBox="0 0 64 64" width="64" height="64"><defs><path d="M64 32C64 49.66 49.66 64 32 64C14.34 64 0 49.66 0 32C0 14.34 14.34 0 32 0C49.66 0 64 14.34 64 32Z" id="c9VDF3jNtM"></path><path d="M32 30.4C34.07 30.4 35.98 31.31 37.26 32.87C38.18 32.19 39.3 31.81 40.47 31.81C41.04 31.81 41.6 31.9 42.12 32.07C42.12 30.56 42.12 18.48 42.12 16.97C42.12 16.33 41.6 15.8 40.95 15.8C39.16 15.8 24.84 15.8 23.05 15.8C22.4 15.8 21.88 16.33 21.88 16.97C21.88 18.48 21.88 30.56 21.88 32.07C22.4 31.9 22.96 31.81 23.53 31.81C24.7 31.81 25.82 32.19 26.74 32.87C28.02 31.31 29.93 30.4 32 30.4ZM36.47 20.28C36.47 19.63 37 19.1 37.65 19.1C38.29 19.1 38.82 19.63 38.82 20.28C38.82 20.98 38.82 26.63 38.82 27.33C38.82 27.98 38.29 28.5 37.65 28.5C37 28.5 36.47 27.98 36.47 27.33C36.47 25.92 36.47 21.69 36.47 20.28ZM30.83 20.28C30.83 19.63 31.35 19.1 32 19.1C32.65 19.1 33.17 19.63 33.17 20.28C33.17 20.98 33.17 26.63 33.17 27.33C33.17 27.98 32.65 28.5 32 28.5C31.35 28.5 30.83 27.98 30.83 27.33C30.83 25.92 30.83 21.69 30.83 20.28ZM25.18 20.28C25.18 19.63 25.71 19.1 26.35 19.1C27 19.1 27.53 19.63 27.53 20.28C27.53 20.98 27.53 26.63 27.53 27.33C27.53 27.98 27 28.5 26.35 28.5C25.71 28.5 25.18 27.98 25.18 27.33C25.18 25.92 25.18 21.69 25.18 20.28Z" id="c1PrbPFxAP"></path><path d="M24.06 38.6C25.37 38.6 26.6 39.11 27.52 40.03C28.27 40.76 29.05 40.8 29.35 40.8C30.38 40.8 30.98 40.22 31.19 40.03C32.11 39.11 33.34 38.6 34.65 38.6C35.95 38.6 37.18 39.11 38.11 40.03C38.85 40.76 39.64 40.8 39.94 40.8C40.97 40.8 41.57 40.22 41.77 40.03C42.28 39.52 42.88 39.15 43.53 38.91C43.53 38.74 43.53 37.38 43.53 37.21C43.53 35.52 42.16 34.15 40.47 34.15C39.49 34.15 38.59 34.61 38 35.4C37.76 35.73 37.36 35.91 36.96 35.87C36.55 35.84 36.19 35.59 36.01 35.23C35.25 33.69 33.71 32.74 32 32.74C30.29 32.74 28.75 33.69 27.99 35.23C27.81 35.59 27.45 35.84 27.04 35.87C26.64 35.91 26.24 35.73 26 35.4C25.41 34.61 24.51 34.15 23.53 34.15C21.84 34.15 20.47 35.52 20.47 37.21C20.47 37.51 20.47 39.86 20.47 40.15C20.55 40.08 20.58 40.05 20.6 40.03C21.53 39.11 22.76 38.6 24.06 38.6Z" id="a2nEnW3m2M"></path><path d="M45.23 40.95C44.55 40.95 43.9 41.21 43.42 41.7C42.06 43.06 40.48 43.14 39.94 43.14C39.39 43.14 37.84 43.06 36.46 41.7C35.98 41.21 35.33 40.95 34.65 40.95C33.96 40.95 33.31 41.21 32.83 41.7C31.47 43.06 29.9 43.14 29.35 43.14C28.8 43.14 27.25 43.06 25.88 41.7C25.39 41.21 24.75 40.95 24.06 40.95C23.37 40.95 22.73 41.21 22.24 41.7C20.89 43.06 19.31 43.14 18.77 43.14C18.22 43.14 16.67 43.06 15.29 41.7C14.81 41.21 14.16 40.95 13.47 40.95C12.94 40.95 12.43 41.11 12 41.41C12 41.83 12 45.2 12 45.63C12.47 45.48 12.97 45.4 13.47 45.4C14.78 45.4 16.01 45.91 16.94 46.83C17.68 47.55 18.47 47.59 18.77 47.59C19.07 47.59 19.85 47.55 20.6 46.83C21.52 45.91 22.75 45.4 24.06 45.4C25.37 45.4 26.6 45.91 27.52 46.83C28.27 47.55 29.05 47.59 29.35 47.59C29.65 47.59 30.44 47.55 31.18 46.83C32.11 45.91 33.34 45.4 34.65 45.4C35.95 45.4 37.18 45.91 38.11 46.83C38.85 47.55 39.64 47.59 39.94 47.59C40.24 47.59 41.03 47.55 41.77 46.83C42.69 45.91 43.92 45.4 45.23 45.4C46.54 45.4 47.77 45.91 48.7 46.83C49.44 47.55 50.22 47.59 50.53 47.59C51.06 47.59 51.57 47.43 52 47.13C52 46.71 52 43.34 52 42.92C51.53 43.06 51.03 43.14 50.53 43.14C49.97 43.14 48.42 43.06 47.05 41.7C46.56 41.21 45.92 40.95 45.23 40.95Z" id="bolBrF1C9"></path><path d="M46.11 12.98C45.2 12.98 44.46 13.72 44.46 14.63C44.46 16.52 44.46 31.68 44.46 33.57C45.34 34.54 45.88 35.81 45.88 37.21C45.88 37.36 45.88 38.5 45.88 38.65C46.94 38.78 47.92 39.26 48.7 40.03C49.44 40.76 50.22 40.8 50.53 40.8C51.06 40.8 51.57 40.63 52 40.33C52 37.71 52 16.77 52 14.15C52 13.5 51.48 12.98 50.83 12.98C49.89 12.98 46.59 12.98 46.11 12.98Z" id="fnM2FA8yl"></path><path d="M18.13 40.72C18.13 40.37 18.13 37.56 18.13 37.21C18.13 35.81 18.66 34.54 19.54 33.57C19.54 31.68 19.54 16.52 19.54 14.63C19.54 13.72 18.8 12.98 17.89 12.98C17.41 12.98 13.64 12.98 13.17 12.98C12.52 12.98 12 13.5 12 14.15C12 16.62 12 36.36 12 38.83C12.47 38.68 12.97 38.6 13.47 38.6C14.78 38.6 16.01 39.11 16.94 40.03C17.14 40.23 17.51 40.56 18.13 40.72Z" id="c1w0E6Fbql"></path><path d="M45.23 47.74C44.55 47.74 43.9 48.01 43.42 48.5C42.22 49.7 40.79 49.94 39.94 49.94C39.39 49.94 37.84 49.86 36.46 48.5C35.98 48.01 35.33 47.74 34.65 47.74C33.96 47.74 33.31 48.01 32.83 48.5C31.64 49.7 30.2 49.94 29.35 49.94C28.8 49.94 27.25 49.86 25.88 48.5C25.39 48.01 24.75 47.74 24.06 47.74C23.37 47.74 22.73 48.01 22.24 48.5C21.05 49.7 19.62 49.94 18.77 49.94C18.22 49.94 16.67 49.86 15.29 48.5C14.81 48.01 14.16 47.74 13.47 47.74C12.94 47.74 12.43 47.91 12 48.21C12 48.57 12 51.45 12 51.81C12 52.45 12.52 52.98 13.17 52.98C16.94 52.98 47.06 52.98 50.83 52.98C51.48 52.98 52 52.45 52 51.81C52 51.6 52 49.92 52 49.71C51.53 49.86 51.03 49.94 50.53 49.94C49.97 49.94 48.42 49.86 47.05 48.5C46.56 48.01 45.92 47.74 45.23 47.74Z" id="c36NH0LSiQ"></path><path d="M35.85 11.97L42.72 18.84L38.87 22.69L32 15.82L25.13 22.69L21.28 18.84L28.15 11.97L21.28 5.1L25.13 1.25L32 8.13L38.87 1.25L42.72 5.1L35.85 11.97Z" id="dbnXwlaLm"></path></defs><g><g><g><use xlink:href="#c9VDF3jNtM" opacity="1" fill="#53ff19" fill-opacity="1"></use></g><g><use xlink:href="#c1PrbPFxAP" opacity="1" fill="#ffffff" fill-opacity="1"></use></g><g><use xlink:href="#a2nEnW3m2M" opacity="1" fill="#ffffff" fill-opacity="1"></use></g><g><use xlink:href="#bolBrF1C9" opacity="1" fill="#ffffff" fill-opacity="1"></use></g><g><use xlink:href="#fnM2FA8yl" opacity="1" fill="#ffffff" fill-opacity="1"></use></g><g><use xlink:href="#c1w0E6Fbql" opacity="1" fill="#ffffff" fill-opacity="1"></use></g><g><use xlink:href="#c36NH0LSiQ" opacity="1" fill="#ffffff" fill-opacity="1"></use></g><g><use xlink:href="#dbnXwlaLm" opacity="1" fill="#ff2a2a" fill-opacity="1"></use></g></g></g></svg>